<svg width="62" height="49" viewBox="0 0 62 49" fill="none" xmlns="http://www.w3.org/2000/svg">
<path d="M5.50693 35.444C6.54693 35.444 7.41093 35.708 8.09893 36.236C8.78693 36.764 9.25093 37.48 9.49093 38.384H8.03893C7.83893 37.872 7.51893 37.468 7.07893 37.172C6.64693 36.868 6.11493 36.716 5.48293 36.716C4.97893 36.716 4.52693 36.84 4.12693 37.088C3.73493 37.336 3.42293 37.692 3.19093 38.156C2.96693 38.612 2.85493 39.148 2.85493 39.764C2.85493 40.372 2.96693 40.908 3.19093 41.372C3.42293 41.828 3.73493 42.18 4.12693 42.428C4.52693 42.676 4.97893 42.8 5.48293 42.8C6.11493 42.8 6.64693 42.652 7.07893 42.356C7.51893 42.052 7.83893 41.648 8.03893 41.144H9.49093C9.25093 42.048 8.78693 42.764 8.09893 43.292C7.41093 43.812 6.54693 44.072 5.50693 44.072C4.70693 44.072 3.99893 43.892 3.38293 43.532C2.76693 43.164 2.29093 42.656 1.95493 42.008C1.61893 41.352 1.45093 40.604 1.45093 39.764C1.45093 38.924 1.61893 38.18 1.95493 37.532C2.29093 36.876 2.76693 36.364 3.38293 35.996C3.99893 35.628 4.70693 35.444 5.50693 35.444ZM16.9998 40.376C16.9998 40.6 16.9838 40.796 16.9518 40.964H11.8638C11.8878 41.644 12.0758 42.148 12.4278 42.476C12.7798 42.804 13.2158 42.968 13.7358 42.968C14.1918 42.968 14.5758 42.852 14.8878 42.62C15.2078 42.388 15.4038 42.08 15.4758 41.696H16.9398C16.8518 42.16 16.6678 42.572 16.3878 42.932C16.1078 43.292 15.7438 43.576 15.2958 43.784C14.8478 43.984 14.3478 44.084 13.7958 44.084C13.1558 44.084 12.5878 43.948 12.0918 43.676C11.6038 43.404 11.2198 43.012 10.9398 42.5C10.6598 41.988 10.5198 41.384 10.5198 40.688C10.5198 40 10.6598 39.4 10.9398 38.888C11.2198 38.376 11.6038 37.984 12.0918 37.712C12.5878 37.44 13.1558 37.304 13.7958 37.304C14.4438 37.304 15.0078 37.44 15.4878 37.712C15.9758 37.976 16.3478 38.344 16.6038 38.816C16.8678 39.28 16.9998 39.8 16.9998 40.376ZM15.6198 40.34C15.6358 39.908 15.5598 39.548 15.3918 39.26C15.2318 38.964 15.0078 38.748 14.7198 38.612C14.4398 38.468 14.1318 38.396 13.7958 38.396C13.2598 38.396 12.8118 38.56 12.4518 38.888C12.0918 39.216 11.8958 39.7 11.8638 40.34H15.6198ZM19.6887 35.12V44H18.3207V35.12H19.6887ZM27.4881 40.376C27.4881 40.6 27.4721 40.796 27.4401 40.964H22.3521C22.3761 41.644 22.5641 42.148 22.9161 42.476C23.2681 42.804 23.7041 42.968 24.2241 42.968C24.6801 42.968 25.0641 42.852 25.3761 42.62C25.6961 42.388 25.8921 42.08 25.9641 41.696H27.4281C27.3401 42.16 27.1561 42.572 26.8761 42.932C26.5961 43.292 26.2321 43.576 25.7841 43.784C25.3361 43.984 24.8361 44.084 24.2841 44.084C23.6441 44.084 23.0761 43.948 22.5801 43.676C22.0921 43.404 21.7081 43.012 21.4281 42.5C21.1481 41.988 21.0081 41.384 21.0081 40.688C21.0081 40 21.1481 39.4 21.4281 38.888C21.7081 38.376 22.0921 37.984 22.5801 37.712C23.0761 37.44 23.6441 37.304 24.2841 37.304C24.9321 37.304 25.4961 37.44 25.9761 37.712C26.4641 37.976 26.8361 38.344 27.0921 38.816C27.3561 39.28 27.4881 39.8 27.4881 40.376ZM26.1081 40.34C26.1241 39.908 26.0481 39.548 25.8801 39.26C25.7201 38.964 25.4961 38.748 25.2081 38.612C24.9281 38.468 24.6201 38.396 24.2841 38.396C23.7481 38.396 23.3001 38.56 22.9401 38.888C22.5801 39.216 22.3841 39.7 22.3521 40.34H26.1081ZM32.601 37.304C33.177 37.304 33.689 37.44 34.137 37.712C34.593 37.984 34.949 38.376 35.205 38.888C35.461 39.4 35.589 40 35.589 40.688C35.589 41.384 35.461 41.988 35.205 42.5C34.949 43.012 34.593 43.404 34.137 43.676C33.689 43.948 33.177 44.084 32.601 44.084C32.001 44.084 31.489 43.936 31.065 43.64C30.641 43.344 30.345 42.952 30.177 42.464V44H28.809V35.12H30.177V38.924C30.345 38.436 30.641 38.044 31.065 37.748C31.489 37.452 32.001 37.304 32.601 37.304ZM32.181 38.504C31.797 38.504 31.453 38.596 31.149 38.78C30.845 38.956 30.605 39.212 30.429 39.548C30.253 39.876 30.165 40.256 30.165 40.688C30.165 41.128 30.253 41.512 30.429 41.84C30.605 42.168 30.845 42.424 31.149 42.608C31.453 42.784 31.797 42.872 32.181 42.872C32.789 42.872 33.277 42.68 33.645 42.296C34.013 41.904 34.197 41.368 34.197 40.688C34.197 40.016 34.013 39.484 33.645 39.092C33.277 38.7 32.789 38.504 32.181 38.504ZM38.2746 38.684C38.4986 38.252 38.8186 37.912 39.2346 37.664C39.6506 37.408 40.1306 37.28 40.6746 37.28V38.768H40.2666C39.6666 38.768 39.1826 38.916 38.8146 39.212C38.4546 39.5 38.2746 39.98 38.2746 40.652V44H36.9066V37.388H38.2746V38.684ZM44.3516 37.304C44.9516 37.304 45.4636 37.452 45.8876 37.748C46.3116 38.044 46.6116 38.436 46.7876 38.924V37.388H48.1556V44H46.7876V42.464C46.6116 42.952 46.3116 43.344 45.8876 43.64C45.4636 43.936 44.9516 44.084 44.3516 44.084C43.7756 44.084 43.2596 43.948 42.8036 43.676C42.3556 43.404 42.0036 43.012 41.7476 42.5C41.4916 41.988 41.3636 41.384 41.3636 40.688C41.3636 40 41.4916 39.4 41.7476 38.888C42.0036 38.376 42.3556 37.984 42.8036 37.712C43.2596 37.44 43.7756 37.304 44.3516 37.304ZM44.7716 38.504C44.1636 38.504 43.6756 38.7 43.3076 39.092C42.9476 39.476 42.7676 40.008 42.7676 40.688C42.7676 41.368 42.9476 41.904 43.3076 42.296C43.6756 42.68 44.1636 42.872 44.7716 42.872C45.1556 42.872 45.4996 42.784 45.8036 42.608C46.1076 42.424 46.3476 42.168 46.5236 41.84C46.6996 41.512 46.7876 41.128 46.7876 40.688C46.7876 40.256 46.6996 39.876 46.5236 39.548C46.3476 39.212 46.1076 38.956 45.8036 38.78C45.4996 38.596 45.1556 38.504 44.7716 38.504ZM53.1212 42.812V44H52.2812C51.5772 44 51.0412 43.832 50.6732 43.496C50.3132 43.152 50.1332 42.584 50.1332 41.792V38.552H49.1852V37.388H50.1332V35.744H51.5132V37.388H53.1092V38.552H51.5132V41.816C51.5132 42.192 51.5812 42.452 51.7172 42.596C51.8612 42.74 52.1092 42.812 52.4612 42.812H53.1212ZM60.5467 40.376C60.5467 40.6 60.5307 40.796 60.4987 40.964H55.4107C55.4347 41.644 55.6227 42.148 55.9747 42.476C56.3267 42.804 56.7627 42.968 57.2827 42.968C57.7387 42.968 58.1227 42.852 58.4347 42.62C58.7547 42.388 58.9507 42.08 59.0227 41.696H60.4867C60.3987 42.16 60.2147 42.572 59.9347 42.932C59.6547 43.292 59.2907 43.576 58.8427 43.784C58.3947 43.984 57.8947 44.084 57.3427 44.084C56.7027 44.084 56.1347 43.948 55.6387 43.676C55.1507 43.404 54.7667 43.012 54.4867 42.5C54.2067 41.988 54.0667 41.384 54.0667 40.688C54.0667 40 54.2067 39.4 54.4867 38.888C54.7667 38.376 55.1507 37.984 55.6387 37.712C56.1347 37.44 56.7027 37.304 57.3427 37.304C57.9907 37.304 58.5547 37.44 59.0347 37.712C59.5227 37.976 59.8947 38.344 60.1507 38.816C60.4147 39.28 60.5467 39.8 60.5467 40.376ZM59.1667 40.34C59.1827 39.908 59.1067 39.548 58.9387 39.26C58.7787 38.964 58.5547 38.748 58.2667 38.612C57.9867 38.468 57.6787 38.396 57.3427 38.396C56.8067 38.396 56.3587 38.56 55.9987 38.888C55.6387 39.216 55.4427 39.7 55.4107 40.34H59.1667Z" fill="white"/>
<path d="M33.1051 16.3584C33.639 15.8328 33.3509 14.6255 32.4788 13.2309C32.7957 13.1814 33.0921 13.1058 33.3162 12.99C34.1226 12.5737 34.6671 11.815 35.0793 11.0303C35.5224 10.1884 35.8197 9.26303 36.3979 8.49647C36.4955 8.36687 36.5931 8.25069 36.6904 8.14138C37.9379 8.29091 38.9337 8.55903 38.9337 8.55903L39.3143 7.59206C38.834 7.41969 38.3415 7.2833 37.841 7.18403C38.1476 7.00975 38.3476 6.95544 38.3476 6.95544L37.9871 5.98056C37.4089 6.22497 36.9396 6.58556 36.5467 7.01731C35.0782 6.93516 33.5994 7.22769 32.4327 8.13244C31.5555 8.81306 30.9629 9.75666 30.4053 10.7006C29.9113 10.2158 29.3852 9.76481 28.8306 9.35069C28.9358 9.17778 29.0485 9.02241 29.1699 8.90244C29.9031 8.18056 30.8704 7.71891 31.505 6.89288C32.8387 5.15831 31.8631 2.43925 30.7659 1.03125C30.5693 1.22066 30.2441 1.49669 29.9993 1.71463C31.1657 2.90916 31.9814 5.00053 31.0674 6.56322C30.5566 7.43669 29.6126 7.98462 28.9526 8.73503C28.8385 8.86531 28.7364 9.03031 28.6439 9.2125C26.918 7.97466 25.334 7.47656 24.7063 8.09462C24.6439 8.15839 24.5926 8.23203 24.5543 8.31256L24.5519 8.31016L24.5351 8.35931C24.5117 8.41259 24.4904 8.46794 24.476 8.52844L20.1567 20.9688L32.7593 16.5626L32.7559 16.5591C32.8913 16.5155 33.0106 16.4512 33.1051 16.3584ZM22.6637 19.3641L21.6118 18.8739L22.3217 16.8286L25.5773 18.3452L22.6637 19.3641ZM28.4906 17.3267L23.0322 14.7833L23.7421 12.7383L27.821 14.7857C25.3862 13.201 24.4519 10.6927 24.4519 10.6927L24.6946 9.99384C25.126 11.0852 26.0751 12.4444 27.3793 13.7273C28.6945 15.0219 30.0884 15.9596 31.2025 16.3787L28.4906 17.3267ZM30.5871 10.8848C31.1571 10.0677 31.7446 9.24309 32.5613 8.65631C33.3389 8.09737 34.6011 7.99528 35.7977 8.06231C35.3935 8.76837 35.0947 9.55178 34.8266 10.3042C34.5025 11.2152 34.068 12.1598 33.2395 12.7184C33.0161 12.869 32.7029 12.979 32.3685 13.0604C31.9089 12.3561 31.3059 11.6115 30.5871 10.8848Z" fill="white"/>
<path d="M27.387 7.56251C27.7315 7.56251 26.6989 6.53126 26.8714 5.62685C27.5328 5.57598 29.0446 5.87401 28.1646 4.66539C29.1601 4.8407 29.6757 4.09751 28.7359 3.39317C29.0487 3.41517 29.5348 2.82529 29.1859 2.7507C28.068 2.51385 27.6304 3.11851 28.3399 3.9906C27.594 3.85173 26.9859 4.19857 27.5462 4.97751C25.3923 4.70904 26.6177 7.56251 27.387 7.56251Z" fill="white"/>
<path d="M34.7814 6.64599C35.1042 6.50024 34.5566 5.5374 34.3785 5.29127C35.7408 5.14552 35.6893 4.73955 34.835 3.86986C37.1574 3.9479 34.9069 2.6279 35.2224 2.1054C35.4957 1.65233 36.3341 2.1274 36.2564 1.87508C35.9945 1.03118 33.5099 1.6018 35.0822 3.17755C33.7099 3.20436 33.5783 3.65296 34.6009 4.5828C32.8196 4.6024 34.273 6.87493 34.7814 6.64599Z" fill="white"/>
<path d="M40.6777 10.0463C40.1339 10.1986 40.05 10.1415 40.1226 10.6829C38.8665 10.1047 37.5376 9.30068 38.344 11.4309C36.9174 10.5815 36.9886 11.3254 36.7219 12.5495C36.3747 12.2789 35.8814 11.566 35.8814 11.566L35.3589 12.0098C35.3589 12.0098 36.3162 13.36 36.7889 13.2834C37.2045 13.2163 37.4307 12.4309 37.4537 11.7386C38.7771 12.2971 39.4107 12.3717 38.8053 10.7382C39.8634 11.3326 41.1607 11.8568 40.6777 10.0463Z" fill="white"/>
<path d="M21.5486 3.93152L22.5208 4.90399L21.5486 5.87611L20.5762 4.90399L21.5486 3.93152Z" fill="white"/>
<path d="M23.8774 7.97425L22.9046 8.94638L21.9321 7.97357L22.9049 7.0011L23.8774 7.97425Z" fill="white"/>
<path d="M25.3885 2.40625L26.3606 3.37838L25.3881 4.35119L24.416 3.37838L25.3885 2.40625Z" fill="white"/>
<path d="M35.9728 15.9788L35 15.0064L35.9721 14.0336L36.9449 15.006L35.9728 15.9788Z" fill="white"/>
<path d="M33.8051 19.314L32.833 18.3419L33.8051 17.3694L34.7776 18.3419L33.8051 19.314Z" fill="white"/>
<path d="M38.0705 20.0818L37.0977 19.1093L38.0694 18.1365L39.0422 19.1089L38.0705 20.0818Z" fill="white"/>
<path d="M39.0429 15.6531L38.0708 14.6806L39.0429 13.7085L40.0151 14.6806L39.0429 15.6531Z" fill="white"/>
<path d="M37.4197 3.4375L38.3919 4.40962L37.4194 5.38209L36.4473 4.40962L37.4197 3.4375Z" fill="white"/>
</svg>
