<svg width="23" height="22" viewBox="0 0 23 22" fill="none" xmlns="http://www.w3.org/2000/svg">
<g filter="url(#filter0_di_3445_26480)">
<path d="M2 18.75L14.3491 14.2314L6.4104 6.09786L2 18.75ZM13.0525 10.1917L17.9833 5.13991C18.0857 5.03471 18.2074 4.95124 18.3413 4.89429C18.4753 4.83735 18.6189 4.80803 18.7639 4.80803C18.909 4.80803 19.0526 4.83735 19.1865 4.89429C19.3205 4.95124 19.4421 5.03471 19.5446 5.13991L20.065 5.67311L21 4.71516L20.4796 4.18196C20.0237 3.7174 19.4069 3.45662 18.7639 3.45662C18.121 3.45662 17.5041 3.7174 17.0483 4.18196L12.1175 9.23378L13.0525 10.1917ZM9.10956 5.08569L8.58914 5.61888L9.52414 6.57683L10.0446 6.04363C10.498 5.57659 10.7525 4.94463 10.7525 4.28589C10.7525 3.62715 10.498 2.99519 10.0446 2.52815L9.52414 1.99495L8.58914 2.96193L9.10956 3.49513C9.53296 3.92892 9.53296 4.6519 9.10956 5.08569ZM15.2841 9.60431L13.8816 11.0412L14.8166 11.9992L16.2191 10.5623C16.3215 10.4571 16.4432 10.3736 16.5772 10.3166C16.7111 10.2597 16.8547 10.2304 16.9998 10.2304C17.1448 10.2304 17.2884 10.2597 17.4224 10.3166C17.5563 10.3736 17.678 10.4571 17.7804 10.5623L19.2006 12.0173L20.1356 11.0593L18.7154 9.60431C18.2596 9.13975 17.6427 8.87897 16.9998 8.87897C16.3568 8.87897 15.74 9.13975 15.2841 9.60431ZM13.52 4.18196L10.3533 7.42633L11.2883 8.38428L14.455 5.13991C14.9084 4.67287 15.1629 4.04091 15.1629 3.38217C15.1629 2.72342 14.9084 2.09146 14.455 1.62442L13.0525 0.1875L12.1175 1.14545L13.52 2.58237C13.9434 3.02519 13.9434 3.74817 13.52 4.18196Z" fill="url(#paint0_linear_3445_26480)"/>
</g>
<defs>
<filter id="filter0_di_3445_26480" x="0" y="-1.8125" width="23" height="24.5625" filterUnits="userSpaceOnUse" color-interpolation-filters="sRGB">
<feFlood flood-opacity="0" result="BackgroundImageFix"/>
<feColorMatrix in="SourceAlpha" type="matrix" values="0 0 0 0 0 0 0 0 0 0 0 0 0 0 0 0 0 0 127 0" result="hardAlpha"/>
<feOffset dy="2"/>
<feGaussianBlur stdDeviation="1"/>
<feComposite in2="hardAlpha" operator="out"/>
<feColorMatrix type="matrix" values="0 0 0 0 0.94902 0 0 0 0 0.541176 0 0 0 0 0.262745 0 0 0 0.29 0"/>
<feBlend mode="normal" in2="BackgroundImageFix" result="effect1_dropShadow_3445_26480"/>
<feBlend mode="normal" in="SourceGraphic" in2="effect1_dropShadow_3445_26480" result="shape"/>
<feColorMatrix in="SourceAlpha" type="matrix" values="0 0 0 0 0 0 0 0 0 0 0 0 0 0 0 0 0 0 127 0" result="hardAlpha"/>
<feOffset dx="-2" dy="-2"/>
<feGaussianBlur stdDeviation="1"/>
<feComposite in2="hardAlpha" operator="arithmetic" k2="-1" k3="1"/>
<feColorMatrix type="matrix" values="0 0 0 0 0.9375 0 0 0 0 0.410536 0 0 0 0 0.0507812 0 0 0 1 0"/>
<feBlend mode="normal" in2="shape" result="effect2_innerShadow_3445_26480"/>
</filter>
<linearGradient id="paint0_linear_3445_26480" x1="2" y1="9.46875" x2="21" y2="9.46875" gradientUnits="userSpaceOnUse">
<stop stop-color="#EF843B"/>
<stop offset="1" stop-color="#FFA567"/>
</linearGradient>
</defs>
</svg>
