<svg width="21" height="24" viewBox="0 0 21 24" fill="none" xmlns="http://www.w3.org/2000/svg">
<g filter="url(#filter0_d_3445_26484)">
<g filter="url(#filter1_i_3445_26484)">
<path d="M11.1749 18.614C10.4582 18.614 9.7545 18.3512 9.07977 17.8316C8.51653 17.3986 2.73355 11.9814 2.67419 11.9276C2.33827 11.6051 2.02263 11.1228 2.43239 10.6689C2.596 10.4867 2.80161 10.3912 3.02458 10.3912C3.27652 10.3912 3.54004 10.5091 3.76447 10.7256L6.15498 12.9311C6.20163 12.9742 6.26288 12.9967 6.32548 12.9936C6.38808 12.9905 6.44699 12.9622 6.48945 12.9146C6.57777 12.8161 6.57343 12.6623 6.47931 12.5697L2.65537 8.77856C2.44252 8.574 2.30931 8.32763 2.2818 8.08125C2.25285 7.83488 2.32958 7.60195 2.50478 7.40933C2.6684 7.22716 2.874 7.1316 3.09698 7.1316C3.34892 7.1316 3.61244 7.24956 3.83687 7.46607L7.7419 11.1228C7.78823 11.1661 7.8447 11.187 7.90262 11.187C7.96632 11.187 8.03003 11.1602 8.07781 11.1079C8.16758 11.0093 8.16324 10.8541 8.06768 10.7615L3.36919 6.13715C3.15635 5.93259 3.02458 5.68622 2.99563 5.44134C2.96667 5.19497 3.04341 4.96203 3.21861 4.76942C3.38222 4.58725 3.58782 4.49169 3.8108 4.49169C4.06274 4.49169 4.32626 4.60965 4.55069 4.82616L9.33316 9.30565C9.37949 9.34895 9.43596 9.36985 9.49388 9.36985C9.55758 9.36985 9.62129 9.34298 9.66907 9.29221C9.75884 9.19366 9.7545 9.03837 9.65894 8.9458L6.17959 5.50853C5.80893 5.15167 5.61925 4.59173 6.02756 4.1393C6.19118 3.95713 6.39678 3.86157 6.61976 3.86157C6.8717 3.86157 7.13522 3.97953 7.35965 4.19604C8.63092 5.39654 11.9524 8.53518 12.0712 8.65612C12.1638 8.76363 12.2681 8.78752 12.3376 8.78752C12.6069 8.78752 12.7372 8.47396 12.7488 8.16338C12.7618 7.79457 12.6663 7.33766 12.575 6.89568C12.4751 6.41339 12.3709 5.91467 12.4172 5.57722C12.5084 4.89932 13.1021 4.4663 13.4699 4.4663C13.5133 4.4663 13.5509 4.47228 13.5784 4.48571C14.1431 4.73507 14.1344 5.08447 14.0548 5.92512L14.0389 6.08937C13.9621 6.92704 14.3241 7.69303 14.6745 8.43364C14.8294 8.76214 14.9902 9.10258 15.1118 9.44601C15.1697 9.61025 15.2508 9.7969 15.3464 10.0134C15.9791 11.4588 17.039 13.8792 14.4009 16.8222C13.3381 18.0123 12.2522 18.614 11.1749 18.614Z" fill="url(#paint0_linear_3445_26484)"/>
</g>
<path d="M6.61994 4.10944C6.81107 4.10944 7.01667 4.20501 7.19911 4.37971C8.99887 6.07893 11.7166 8.64717 11.8976 8.82635C12.0612 9.00702 12.2422 9.0339 12.3363 9.0339C12.707 9.0339 12.9676 8.68748 12.9864 8.17234C13.0009 7.77218 12.9025 7.30034 12.8083 6.84492C12.7128 6.38353 12.6129 5.90572 12.6534 5.61306C12.7287 5.05611 13.2239 4.71417 13.47 4.71417H13.4889C13.8812 4.88738 13.8986 5.05312 13.8175 5.90273L13.8016 6.06847C13.7191 6.97483 14.0955 7.77217 14.4604 8.54414C14.6139 8.86816 14.7717 9.20263 14.8875 9.53262C14.9484 9.70582 15.0323 9.89695 15.1279 10.1164C15.736 11.5066 16.7554 13.8329 14.2244 16.6565C13.208 17.7898 12.1814 18.3662 11.1736 18.3662C10.5105 18.3662 9.85314 18.1198 9.22185 17.633C8.76141 17.2792 4.45531 13.2625 2.83943 11.7485C2.64686 11.5633 2.52234 11.3722 2.48759 11.2109C2.46732 11.1139 2.46442 10.9944 2.60776 10.8361C2.72649 10.7048 2.86694 10.6376 3.02621 10.6376C3.21734 10.6376 3.42294 10.7331 3.60248 10.9048C3.60538 10.9078 3.60683 10.9093 3.60972 10.9108L5.99589 13.1132C6.08918 13.1996 6.21169 13.2445 6.33689 13.2384C6.4621 13.2322 6.57991 13.1755 6.66483 13.0804C6.75035 12.9857 6.79631 12.8601 6.79279 12.7307C6.78927 12.6014 6.73654 12.4786 6.646 12.389L2.82206 8.60088L2.81626 8.59491C2.64686 8.43215 2.54116 8.23954 2.51944 8.0514C2.49917 7.8767 2.55274 7.71693 2.68016 7.57657C2.79889 7.44517 2.93934 7.37798 3.09861 7.37798C3.28973 7.37798 3.49534 7.47354 3.67922 7.64974L7.58136 11.3035C7.67258 11.3886 7.78841 11.4319 7.9028 11.4319C8.03166 11.4319 8.15908 11.3797 8.25319 11.2751C8.33886 11.1801 8.38477 11.0541 8.38098 10.9244C8.37719 10.7947 8.32399 10.6718 8.23292 10.5823L3.53154 5.9535C3.27091 5.70265 3.07834 5.28606 3.39398 4.93516C3.51271 4.80376 3.65316 4.73657 3.81243 4.73657C4.00356 4.73657 4.20916 4.83213 4.39305 5.00833L9.17407 9.48633C9.26529 9.57144 9.38112 9.61474 9.4955 9.61474C9.62292 9.61474 9.75179 9.56248 9.8459 9.45796C9.93144 9.36297 9.97739 9.23715 9.97387 9.10757C9.97035 8.978 9.91764 8.85503 9.82708 8.76513L6.34049 5.32637C6.17109 5.16362 6.06539 4.971 6.04367 4.78286C6.0234 4.60816 6.07697 4.44839 6.20439 4.30803C6.32167 4.17664 6.46212 4.10944 6.61994 4.10944ZM6.61994 3.6167C6.34339 3.6167 6.07263 3.72869 5.85255 3.97207C5.38342 4.49169 5.50794 5.20095 6.01326 5.68622L9.49406 9.122L4.71304 4.644C4.44517 4.38717 4.12373 4.24383 3.81098 4.24383C3.53443 4.24383 3.26367 4.35582 3.04359 4.5992C2.57446 5.11882 2.69898 5.82808 3.20431 6.31335L7.90135 10.9377L3.99921 7.2854C3.73135 7.02858 3.40991 6.88524 3.09716 6.88524C2.82061 6.88524 2.54985 6.99722 2.32976 7.24061C1.86064 7.76023 1.98516 8.46948 2.49048 8.95476L6.31443 12.7459L3.92826 10.545C3.6604 10.2882 3.33896 10.1448 3.02621 10.1448C2.74966 10.1448 2.4789 10.2568 2.25882 10.5002C1.78969 11.0198 2.00833 11.6245 2.5151 12.1098C2.5151 12.1098 8.35889 17.5838 8.93806 18.0287C9.41876 18.3975 10.1948 18.8589 11.1765 18.8589C12.1423 18.8589 13.305 18.4125 14.5791 16.991C17.7313 13.4731 15.765 10.5719 15.3393 9.3624C14.9426 8.23804 14.1781 7.23613 14.2794 6.11327C14.3605 5.21886 14.4734 4.60965 13.6742 4.25876C13.6148 4.23188 13.5453 4.21994 13.4715 4.21994C12.9995 4.21994 12.2914 4.72463 12.1814 5.54288C12.0858 6.24915 12.5361 7.41979 12.5115 8.15293C12.5057 8.3351 12.4391 8.53966 12.3392 8.53966C12.3103 8.53966 12.2784 8.52324 12.2451 8.48441C12.1814 8.41125 7.52489 4.01537 7.52489 4.01537C7.25413 3.75855 6.93269 3.6167 6.61994 3.6167Z" fill="#C5E6FF"/>
<g filter="url(#filter2_i_3445_26484)">
<path d="M10.9955 18.8904C8.82365 18.8904 7.72033 17.3823 7.257 16.4835C6.92688 15.8429 4.06 8.84892 4.03104 8.77874C3.91666 8.4816 3.88046 8.20835 3.92824 7.99632C3.97602 7.77981 4.11068 7.63049 4.338 7.53643C4.44515 7.49312 4.55229 7.47073 4.65799 7.47073C5.01997 7.47073 5.35009 7.74099 5.51805 8.17699L6.75892 11.2275C6.79801 11.3216 6.88633 11.3783 6.979 11.3783C7.00796 11.3783 7.03837 11.3724 7.06732 11.3604C7.18895 11.3111 7.24831 11.1693 7.20198 11.0439L5.32548 5.92829C5.1387 5.44152 5.20096 4.85172 5.75841 4.62475C5.86555 4.58145 5.9727 4.55906 6.0784 4.55906C6.44182 4.55906 6.7705 4.82932 6.93846 5.26532L8.94382 10.2958C8.96774 10.3559 9.01377 10.4038 9.07184 10.429C9.12991 10.4542 9.1953 10.4546 9.25368 10.4302C9.3753 10.3809 9.43612 10.2391 9.38833 10.1136L7.07022 3.85727C6.88344 3.37199 6.9457 2.78219 7.50315 2.55374C7.61029 2.51043 7.71744 2.48804 7.82314 2.48804C8.18656 2.48804 8.51524 2.7583 8.6832 3.1943L11.1389 9.35659C11.1628 9.4167 11.2088 9.46458 11.2669 9.48977C11.325 9.51496 11.3903 9.51539 11.4487 9.49098C11.5703 9.4417 11.6312 9.29985 11.5848 9.17443L9.8676 4.53367C9.68081 4.0469 9.74307 3.45859 10.3005 3.23014C10.4077 3.18684 10.5148 3.16444 10.6205 3.16444C10.9839 3.16444 11.3126 3.4347 11.4806 3.87071C12.1292 5.51767 13.8248 9.82097 13.8798 9.98372C13.9348 10.1793 14.0839 10.251 14.2027 10.251C14.4676 10.251 14.6472 9.93445 14.6964 9.83739C14.8426 9.54772 14.8832 9.21624 14.9252 8.86683C14.986 8.36065 15.0497 7.83655 15.4493 7.38562C15.7809 7.01083 16.2066 6.79582 16.6134 6.79582C16.8075 6.79582 16.9827 6.84509 17.1173 6.93767C17.4532 7.16911 17.4706 7.39308 17.4431 7.58122C17.3939 7.91868 17.1361 8.35319 16.8914 8.73245C16.3876 9.51188 16.3282 10.693 16.2761 11.7352C16.2601 12.0428 16.2457 12.3325 16.2211 12.6012C16.2008 12.8237 16.208 13.091 16.2182 13.3986C16.2645 14.9604 16.3354 17.3196 13.0269 18.5007C12.3088 18.7605 11.6254 18.8904 10.9955 18.8904Z" fill="url(#paint1_linear_3445_26484)"/>
</g>
<path d="M7.82203 2.73569C8.08411 2.73569 8.32881 2.94623 8.46201 3.29264L10.9162 9.45194C10.9522 9.5426 11.0136 9.62015 11.0925 9.67467C11.1714 9.72919 11.2643 9.75822 11.3593 9.75804C11.4172 9.75804 11.478 9.74759 11.5345 9.7237C11.6513 9.67572 11.7452 9.58229 11.7959 9.46357C11.8465 9.34486 11.8499 9.21036 11.8053 9.08911L10.0895 4.43939C10.004 4.21691 9.98957 3.99592 10.0475 3.81674C10.1011 3.64951 10.2169 3.53006 10.3892 3.45988C10.4688 3.42703 10.547 3.4106 10.6209 3.4106C10.8829 3.4106 11.1276 3.62114 11.2594 3.96606C12.1788 6.29838 13.5645 9.82076 13.6528 10.0626C13.7353 10.3284 13.9496 10.4987 14.2016 10.4987C14.6012 10.4987 14.843 10.0806 14.9081 9.95215C15.0746 9.62216 15.1195 9.25485 15.1615 8.89947C15.2209 8.40972 15.2774 7.94684 15.6249 7.55413C15.9115 7.23012 16.2721 7.04347 16.6123 7.04347C16.7571 7.04347 16.8889 7.07931 16.983 7.14351C17.219 7.30627 17.2234 7.42124 17.206 7.54517C17.164 7.83634 16.9092 8.2604 16.6905 8.59636C16.1505 9.43253 16.0896 10.6495 16.0346 11.723C16.0187 12.0277 16.0042 12.3158 15.981 12.5786C15.9593 12.816 15.9666 13.0908 15.9767 13.4073C15.9999 14.1599 16.0274 15.0976 15.6596 15.9845C15.2281 17.0238 14.3406 17.7704 12.9462 18.2691C12.2541 18.5169 11.5968 18.6424 10.993 18.6424C8.94562 18.6424 7.90457 17.2164 7.46585 16.3668C7.19509 15.8442 5.05507 10.651 4.25147 8.68744C3.97058 7.95131 4.31084 7.81096 4.42377 7.76467C4.50341 7.73182 4.5816 7.71539 4.65544 7.71539C4.91751 7.71539 5.16221 7.92593 5.29252 8.26637L5.29687 8.27533L6.53628 11.3199C6.57276 11.4097 6.63414 11.4863 6.7127 11.5402C6.79127 11.5942 6.88352 11.623 6.9779 11.623C7.05528 11.6226 7.13142 11.6029 7.19984 11.5657C7.26827 11.5284 7.32694 11.4746 7.37088 11.4089C7.41481 11.3432 7.4427 11.2676 7.45218 11.1884C7.46166 11.1092 7.45244 11.0288 7.42531 10.9541L5.54881 5.83998C5.54736 5.83699 5.54736 5.8355 5.54591 5.83251C5.46048 5.61003 5.446 5.38904 5.50392 5.20987C5.55749 5.04263 5.67333 4.92318 5.84563 4.853C5.92526 4.82015 6.00345 4.80372 6.0773 4.80372C6.33937 4.80372 6.58407 5.01426 6.71727 5.36067L8.72119 10.3882C8.75717 10.4788 8.81854 10.5564 8.89746 10.6109C8.97638 10.6654 9.06926 10.6944 9.16425 10.6943C9.22362 10.6943 9.28298 10.6823 9.3409 10.6599C9.45775 10.6119 9.55162 10.5185 9.60228 10.3998C9.65293 10.2811 9.6563 10.1466 9.61166 10.0253L7.29065 3.76299C7.15889 3.42105 7.15889 2.95967 7.59037 2.78347C7.66856 2.75212 7.74674 2.73569 7.82203 2.73569ZM7.82203 2.24146C7.69027 2.24146 7.55272 2.26833 7.41372 2.32507C6.77374 2.58638 6.59131 3.28219 6.84614 3.94516L9.16425 10.2015L7.16034 5.17403C6.96052 4.6559 6.55221 4.31098 6.07874 4.31098C5.94698 4.31098 5.80943 4.33786 5.67043 4.3946C5.03045 4.6559 4.84801 5.35172 5.10285 6.01468L6.97935 11.1318L5.73993 8.08719C5.54012 7.56906 5.13181 7.22414 4.65834 7.22414C4.52658 7.22414 4.38902 7.25102 4.25002 7.30776C3.61005 7.56906 3.55647 8.21262 3.81131 8.87558C3.81131 8.87558 6.70714 15.9427 7.0474 16.6012C7.58747 17.6479 8.79648 19.1366 10.9959 19.1366C11.617 19.1366 12.3178 19.0186 13.1055 18.7364C17.2509 17.2567 16.343 13.9061 16.4603 12.6264C16.5703 11.4349 16.4849 9.8103 17.0916 8.8711C17.7287 7.88412 17.9734 7.23012 17.2509 6.73289C17.0786 6.61493 16.857 6.54923 16.6138 6.54923C16.1838 6.54923 15.6857 6.7523 15.273 7.21966C14.5404 8.04837 14.8126 9.07268 14.4839 9.7237C14.4115 9.86704 14.2913 10.0044 14.2016 10.0044C14.161 10.0044 14.1263 9.97604 14.106 9.90437C14.0785 9.8103 11.701 3.77792 11.701 3.77792C11.5012 3.25979 11.0929 2.91487 10.6194 2.91487C10.4876 2.91487 10.3501 2.94175 10.2111 2.99849C9.57112 3.25979 9.38868 3.95561 9.64351 4.61857L11.3578 9.26231L8.90363 3.1045C8.70526 2.58638 8.29695 2.24146 7.82203 2.24146Z" fill="#C5E6FF"/>
<path d="M15.0684 5.1652L17.5139 4.17822" stroke="url(#paint2_linear_3445_26484)" stroke-width="1.03242" stroke-miterlimit="10" stroke-linecap="round" stroke-linejoin="round"/>
<path d="M12.7836 3.63021L12.5708 1.21875" stroke="url(#paint3_linear_3445_26484)" stroke-width="1.03242" stroke-miterlimit="10" stroke-linecap="round" stroke-linejoin="round"/>
<path d="M14.3491 3.92136L15.9722 1.43823" stroke="url(#paint4_linear_3445_26484)" stroke-width="1.03242" stroke-miterlimit="10" stroke-linecap="round" stroke-linejoin="round"/>
</g>
<defs>
<filter id="filter0_d_3445_26484" x="0" y="0.702393" width="20.0303" height="22.4343" filterUnits="userSpaceOnUse" color-interpolation-filters="sRGB">
<feFlood flood-opacity="0" result="BackgroundImageFix"/>
<feColorMatrix in="SourceAlpha" type="matrix" values="0 0 0 0 0 0 0 0 0 0 0 0 0 0 0 0 0 0 127 0" result="hardAlpha"/>
<feOffset dy="2"/>
<feGaussianBlur stdDeviation="1"/>
<feComposite in2="hardAlpha" operator="out"/>
<feColorMatrix type="matrix" values="0 0 0 0 0.379167 0 0 0 0 0.73925 0 0 0 0 1 0 0 0 0.29 0"/>
<feBlend mode="normal" in2="BackgroundImageFix" result="effect1_dropShadow_3445_26484"/>
<feBlend mode="normal" in="SourceGraphic" in2="effect1_dropShadow_3445_26484" result="shape"/>
</filter>
<filter id="filter1_i_3445_26484" x="0.238281" y="1.86157" width="15.8623" height="16.7524" filterUnits="userSpaceOnUse" color-interpolation-filters="sRGB">
<feFlood flood-opacity="0" result="BackgroundImageFix"/>
<feBlend mode="normal" in="SourceGraphic" in2="BackgroundImageFix" result="shape"/>
<feColorMatrix in="SourceAlpha" type="matrix" values="0 0 0 0 0 0 0 0 0 0 0 0 0 0 0 0 0 0 127 0" result="hardAlpha"/>
<feOffset dx="-2" dy="-2"/>
<feGaussianBlur stdDeviation="1"/>
<feComposite in2="hardAlpha" operator="arithmetic" k2="-1" k3="1"/>
<feColorMatrix type="matrix" values="0 0 0 0 0.15099 0 0 0 0 0.598569 0 0 0 0 0.929167 0 0 0 1 0"/>
<feBlend mode="normal" in2="shape" result="effect1_innerShadow_3445_26484"/>
</filter>
<filter id="filter2_i_3445_26484" x="1.90771" y="0.488037" width="15.5444" height="18.4023" filterUnits="userSpaceOnUse" color-interpolation-filters="sRGB">
<feFlood flood-opacity="0" result="BackgroundImageFix"/>
<feBlend mode="normal" in="SourceGraphic" in2="BackgroundImageFix" result="shape"/>
<feColorMatrix in="SourceAlpha" type="matrix" values="0 0 0 0 0 0 0 0 0 0 0 0 0 0 0 0 0 0 127 0" result="hardAlpha"/>
<feOffset dx="-2" dy="-2"/>
<feGaussianBlur stdDeviation="1"/>
<feComposite in2="hardAlpha" operator="arithmetic" k2="-1" k3="1"/>
<feColorMatrix type="matrix" values="0 0 0 0 0.15099 0 0 0 0 0.598569 0 0 0 0 0.929167 0 0 0 1 0"/>
<feBlend mode="normal" in2="shape" result="effect1_innerShadow_3445_26484"/>
</filter>
<linearGradient id="paint0_linear_3445_26484" x1="0.604514" y1="3.86157" x2="16.3011" y2="4.67251" gradientUnits="userSpaceOnUse">
<stop stop-color="#1A83CF"/>
<stop offset="0.555477" stop-color="#5FB5F4"/>
<stop offset="1" stop-color="#2DA6FF"/>
</linearGradient>
<linearGradient id="paint1_linear_3445_26484" x1="2.31142" y1="2.48803" x2="17.6573" y2="3.18475" gradientUnits="userSpaceOnUse">
<stop stop-color="#1A83CF"/>
<stop offset="0.555477" stop-color="#5FB5F4"/>
<stop offset="1" stop-color="#2DA6FF"/>
</linearGradient>
<linearGradient id="paint2_linear_3445_26484" x1="14.7801" y1="4.17822" x2="17.5061" y2="4.54958" gradientUnits="userSpaceOnUse">
<stop stop-color="#1A83CF"/>
<stop offset="0.555477" stop-color="#5FB5F4"/>
<stop offset="1" stop-color="#2DA6FF"/>
</linearGradient>
<linearGradient id="paint3_linear_3445_26484" x1="12.5457" y1="1.21875" x2="12.7874" y2="1.21992" gradientUnits="userSpaceOnUse">
<stop stop-color="#1A83CF"/>
<stop offset="0.555477" stop-color="#5FB5F4"/>
<stop offset="1" stop-color="#2DA6FF"/>
</linearGradient>
<linearGradient id="paint4_linear_3445_26484" x1="14.1578" y1="1.43823" x2="15.9983" y2="1.50437" gradientUnits="userSpaceOnUse">
<stop stop-color="#1A83CF"/>
<stop offset="0.555477" stop-color="#5FB5F4"/>
<stop offset="1" stop-color="#2DA6FF"/>
</linearGradient>
</defs>
</svg>
