<svg width="19" height="19" viewBox="0 0 19 19" fill="none" xmlns="http://www.w3.org/2000/svg">
<path d="M17.5498 6.7609L17.5498 3.6793C17.5498 2.6557 16.7402 1.8001 15.7098 1.8001L3.2898 1.8001C2.2594 1.8001 1.4498 2.6557 1.4498 3.6793L1.4498 11.7313C1.4498 12.7549 2.2594 13.6105 3.2898 13.6105L5.1298 13.6105L5.1298 17.4001L5.13325 17.4001L5.13555 17.3989L7.6276 15.4789L7.2665 16.9837C7.24235 17.0869 7.22395 17.1877 7.2136 17.2897L5.81865 18.3637C5.57384 18.552 5.26797 18.6325 4.96686 18.5878C4.66575 18.5432 4.39348 18.3769 4.20865 18.1249C4.06049 17.9212 3.98013 17.6726 3.9798 17.4169L3.9798 14.8105L3.2898 14.8105C1.6384 14.8105 0.299805 13.4317 0.299805 11.7313L0.299805 3.6793C0.299805 1.9789 1.6384 0.600098 3.2898 0.600098L15.7098 0.600098C17.3612 0.600098 18.6998 1.9789 18.6998 3.6793L18.6998 7.4281C18.3636 7.12695 17.9724 6.89998 17.5498 6.7609Z" fill="#1E293B"/>
<path d="M15.0279 8.45529L9.4734 14.2513C9.15009 14.5891 8.92074 15.0121 8.80985 15.4753L8.3786 17.2729C8.33582 17.4518 8.33815 17.6391 8.38534 17.8168C8.43254 17.9944 8.523 18.1563 8.64792 18.2867C8.77284 18.417 8.92798 18.5114 9.09822 18.5606C9.26847 18.6099 9.44803 18.6123 9.61945 18.5677L11.3421 18.1177C11.786 18.0025 12.192 17.7625 12.5151 17.4241L18.0696 11.6281C18.2718 11.4203 18.4326 11.1727 18.5427 10.8998C18.6528 10.6268 18.71 10.3338 18.711 10.0377C18.7121 9.74152 18.6569 9.44809 18.5488 9.17428C18.4406 8.90048 18.2816 8.65172 18.0809 8.44235C17.8802 8.23298 17.6417 8.06714 17.3793 7.95439C17.1168 7.84164 16.8356 7.78422 16.5518 7.78542C16.268 7.78662 15.9872 7.84643 15.7257 7.9614C15.4641 8.07637 15.227 8.24423 15.0279 8.45529Z" fill="#1E293B"/>
</svg>
