<svg width="73" height="47" viewBox="0 0 73 47" fill="none" xmlns="http://www.w3.org/2000/svg">
<path d="M20.2999 33.444C21.3399 33.444 22.2039 33.708 22.8919 34.236C23.5799 34.764 24.0439 35.48 24.2839 36.384H22.8319C22.6319 35.872 22.3119 35.468 21.8719 35.172C21.4399 34.868 20.9079 34.716 20.2759 34.716C19.7719 34.716 19.3199 34.84 18.9199 35.088C18.5279 35.336 18.2159 35.692 17.9839 36.156C17.7599 36.612 17.6479 37.148 17.6479 37.764C17.6479 38.372 17.7599 38.908 17.9839 39.372C18.2159 39.828 18.5279 40.18 18.9199 40.428C19.3199 40.676 19.7719 40.8 20.2759 40.8C20.9079 40.8 21.4399 40.652 21.8719 40.356C22.3119 40.052 22.6319 39.648 22.8319 39.144H24.2839C24.0439 40.048 23.5799 40.764 22.8919 41.292C22.2039 41.812 21.3399 42.072 20.2999 42.072C19.4999 42.072 18.7919 41.892 18.1759 41.532C17.5599 41.164 17.0839 40.656 16.7479 40.008C16.4119 39.352 16.2439 38.604 16.2439 37.764C16.2439 36.924 16.4119 36.18 16.7479 35.532C17.0839 34.876 17.5599 34.364 18.1759 33.996C18.7919 33.628 19.4999 33.444 20.2999 33.444ZM27.0168 36.684C27.2408 36.252 27.5608 35.912 27.9768 35.664C28.3928 35.408 28.8728 35.28 29.4168 35.28V36.768H29.0088C28.4088 36.768 27.9248 36.916 27.5568 37.212C27.1968 37.5 27.0168 37.98 27.0168 38.652V42H25.6488V35.388H27.0168V36.684ZM36.5858 38.376C36.5858 38.6 36.5698 38.796 36.5378 38.964H31.4498C31.4738 39.644 31.6618 40.148 32.0138 40.476C32.3658 40.804 32.8018 40.968 33.3218 40.968C33.7778 40.968 34.1618 40.852 34.4738 40.62C34.7938 40.388 34.9898 40.08 35.0618 39.696H36.5258C36.4378 40.16 36.2538 40.572 35.9738 40.932C35.6938 41.292 35.3298 41.576 34.8818 41.784C34.4338 41.984 33.9338 42.084 33.3818 42.084C32.7418 42.084 32.1738 41.948 31.6778 41.676C31.1898 41.404 30.8058 41.012 30.5258 40.5C30.2458 39.988 30.1058 39.384 30.1058 38.688C30.1058 38 30.2458 37.4 30.5258 36.888C30.8058 36.376 31.1898 35.984 31.6778 35.712C32.1738 35.44 32.7418 35.304 33.3818 35.304C34.0298 35.304 34.5938 35.44 35.0738 35.712C35.5618 35.976 35.9338 36.344 36.1898 36.816C36.4538 37.28 36.5858 37.8 36.5858 38.376ZM35.2058 38.34C35.2218 37.908 35.1458 37.548 34.9778 37.26C34.8178 36.964 34.5938 36.748 34.3058 36.612C34.0258 36.468 33.7178 36.396 33.3818 36.396C32.8458 36.396 32.3978 36.56 32.0378 36.888C31.6778 37.216 31.4818 37.7 31.4498 38.34H35.2058ZM40.5586 35.304C41.1586 35.304 41.6706 35.452 42.0946 35.748C42.5186 36.044 42.8186 36.436 42.9946 36.924V35.388H44.3626V42H42.9946V40.464C42.8186 40.952 42.5186 41.344 42.0946 41.64C41.6706 41.936 41.1586 42.084 40.5586 42.084C39.9826 42.084 39.4666 41.948 39.0106 41.676C38.5626 41.404 38.2106 41.012 37.9546 40.5C37.6986 39.988 37.5706 39.384 37.5706 38.688C37.5706 38 37.6986 37.4 37.9546 36.888C38.2106 36.376 38.5626 35.984 39.0106 35.712C39.4666 35.44 39.9826 35.304 40.5586 35.304ZM40.9786 36.504C40.3706 36.504 39.8826 36.7 39.5146 37.092C39.1546 37.476 38.9746 38.008 38.9746 38.688C38.9746 39.368 39.1546 39.904 39.5146 40.296C39.8826 40.68 40.3706 40.872 40.9786 40.872C41.3626 40.872 41.7066 40.784 42.0106 40.608C42.3146 40.424 42.5546 40.168 42.7306 39.84C42.9066 39.512 42.9946 39.128 42.9946 38.688C42.9946 38.256 42.9066 37.876 42.7306 37.548C42.5546 37.212 42.3146 36.956 42.0106 36.78C41.7066 36.596 41.3626 36.504 40.9786 36.504ZM49.3283 40.812V42H48.4883C47.7843 42 47.2483 41.832 46.8803 41.496C46.5203 41.152 46.3403 40.584 46.3403 39.792V36.552H45.3923V35.388H46.3403V33.744H47.7203V35.388H49.3163V36.552H47.7203V39.816C47.7203 40.192 47.7883 40.452 47.9243 40.596C48.0683 40.74 48.3163 40.812 48.6683 40.812H49.3283ZM56.7537 38.376C56.7537 38.6 56.7377 38.796 56.7057 38.964H51.6177C51.6417 39.644 51.8297 40.148 52.1817 40.476C52.5337 40.804 52.9697 40.968 53.4897 40.968C53.9457 40.968 54.3297 40.852 54.6417 40.62C54.9617 40.388 55.1577 40.08 55.2297 39.696H56.6937C56.6057 40.16 56.4217 40.572 56.1417 40.932C55.8617 41.292 55.4977 41.576 55.0497 41.784C54.6017 41.984 54.1017 42.084 53.5497 42.084C52.9097 42.084 52.3417 41.948 51.8457 41.676C51.3577 41.404 50.9737 41.012 50.6937 40.5C50.4137 39.988 50.2737 39.384 50.2737 38.688C50.2737 38 50.4137 37.4 50.6937 36.888C50.9737 36.376 51.3577 35.984 51.8457 35.712C52.3417 35.44 52.9097 35.304 53.5497 35.304C54.1977 35.304 54.7617 35.44 55.2417 35.712C55.7297 35.976 56.1017 36.344 56.3577 36.816C56.6217 37.28 56.7537 37.8 56.7537 38.376ZM55.3737 38.34C55.3897 37.908 55.3137 37.548 55.1457 37.26C54.9857 36.964 54.7617 36.748 54.4737 36.612C54.1937 36.468 53.8857 36.396 53.5497 36.396C53.0137 36.396 52.5657 36.56 52.2057 36.888C51.8457 37.216 51.6497 37.7 51.6177 38.34H55.3737Z" fill="white"/>
<path d="M38.4692 22C43.9921 22 48.4692 17.5228 48.4692 12C48.4692 6.47715 43.9921 2 38.4692 2C32.9464 2 28.4692 6.47715 28.4692 12C28.4692 14.7974 29.6179 17.3265 31.4692 19.1414M31.4692 19.1414L32.4692 14M31.4692 19.1414L36.4692 18M32.4692 14L40.4692 6L42.4692 8M32.4692 14L34.4692 16M36.4692 18L44.4692 10L42.4692 8M36.4692 18L34.4692 16M34.4692 16L42.4692 8" stroke="white" stroke-width="1.5" stroke-linecap="round" stroke-linejoin="round"/>
</svg>
