<svg width="100" height="140" viewBox="0 0 100 140" fill="none" xmlns="http://www.w3.org/2000/svg">
<rect x="1.16667" y="1.16667" width="97.6667" height="137.667" rx="12.8333" fill="white"/>
<path d="M48.5254 73.0482L48.4761 49.0501" stroke="#C39EFF" stroke-width="3" stroke-linecap="round" stroke-linejoin="round"/>
<path d="M36.502 61.074L60.5 61.0247" stroke="#C39EFF" stroke-width="3" stroke-linecap="round" stroke-linejoin="round"/>
<path d="M23.362 123.298C23.362 122.749 23.4847 122.258 23.73 121.826C23.9807 121.389 24.3194 121.05 24.746 120.81C25.178 120.565 25.6607 120.442 26.194 120.442C26.818 120.442 27.3647 120.602 27.834 120.922C28.3034 121.242 28.6314 121.685 28.818 122.25H27.53C27.402 121.984 27.2207 121.784 26.986 121.65C26.7567 121.517 26.49 121.45 26.186 121.45C25.8607 121.45 25.57 121.528 25.314 121.682C25.0634 121.832 24.866 122.045 24.722 122.322C24.5834 122.6 24.514 122.925 24.514 123.298C24.514 123.666 24.5834 123.992 24.722 124.274C24.866 124.552 25.0634 124.768 25.314 124.922C25.57 125.072 25.8607 125.146 26.186 125.146C26.49 125.146 26.7567 125.08 26.986 124.946C27.2207 124.808 27.402 124.605 27.53 124.338H28.818C28.6314 124.909 28.3034 125.354 27.834 125.674C27.37 125.989 26.8234 126.146 26.194 126.146C25.6607 126.146 25.178 126.026 24.746 125.786C24.3194 125.541 23.9807 125.202 23.73 124.77C23.4847 124.338 23.362 123.848 23.362 123.298ZM30.8947 122.354C31.0387 122.12 31.2253 121.936 31.4547 121.802C31.6893 121.669 31.956 121.602 32.2547 121.602V122.778H31.9587C31.6067 122.778 31.34 122.861 31.1587 123.026C30.9827 123.192 30.8947 123.48 30.8947 123.89V126.098H29.7747V121.666H30.8947V122.354ZM37.129 123.786C37.129 123.946 37.1184 124.09 37.097 124.218H33.857C33.8837 124.538 33.9957 124.789 34.193 124.97C34.3904 125.152 34.633 125.242 34.921 125.242C35.337 125.242 35.633 125.064 35.809 124.706H37.017C36.889 125.133 36.6437 125.485 36.281 125.762C35.9184 126.034 35.473 126.17 34.945 126.17C34.5184 126.17 34.1344 126.077 33.793 125.89C33.457 125.698 33.193 125.429 33.001 125.082C32.8144 124.736 32.721 124.336 32.721 123.882C32.721 123.424 32.8144 123.021 33.001 122.674C33.1877 122.328 33.449 122.061 33.785 121.874C34.121 121.688 34.5077 121.594 34.945 121.594C35.3664 121.594 35.7424 121.685 36.073 121.866C36.409 122.048 36.6677 122.306 36.849 122.642C37.0357 122.973 37.129 123.354 37.129 123.786ZM35.969 123.466C35.9637 123.178 35.8597 122.949 35.657 122.778C35.4544 122.602 35.2064 122.514 34.913 122.514C34.6357 122.514 34.401 122.6 34.209 122.77C34.0224 122.936 33.9077 123.168 33.865 123.466H35.969ZM37.6585 123.866C37.6585 123.418 37.7465 123.021 37.9225 122.674C38.1039 122.328 38.3465 122.061 38.6505 121.874C38.9599 121.688 39.3039 121.594 39.6825 121.594C40.0132 121.594 40.3012 121.661 40.5465 121.794C40.7972 121.928 40.9972 122.096 41.1465 122.298V121.666H42.2745V126.098H41.1465V125.45C41.0025 125.658 40.8025 125.832 40.5465 125.97C40.2959 126.104 40.0052 126.17 39.6745 126.17C39.3012 126.17 38.9599 126.074 38.6505 125.882C38.3465 125.69 38.1039 125.421 37.9225 125.074C37.7465 124.722 37.6585 124.32 37.6585 123.866ZM41.1465 123.882C41.1465 123.61 41.0932 123.378 40.9865 123.186C40.8799 122.989 40.7359 122.84 40.5545 122.738C40.3732 122.632 40.1785 122.578 39.9705 122.578C39.7625 122.578 39.5705 122.629 39.3945 122.73C39.2185 122.832 39.0745 122.981 38.9625 123.178C38.8559 123.37 38.8025 123.6 38.8025 123.866C38.8025 124.133 38.8559 124.368 38.9625 124.57C39.0745 124.768 39.2185 124.92 39.3945 125.026C39.5759 125.133 39.7679 125.186 39.9705 125.186C40.1785 125.186 40.3732 125.136 40.5545 125.034C40.7359 124.928 40.8799 124.778 40.9865 124.586C41.0932 124.389 41.1465 124.154 41.1465 123.882ZM44.6724 122.586V124.73C44.6724 124.88 44.7071 124.989 44.7764 125.058C44.8511 125.122 44.9737 125.154 45.1444 125.154H45.6644V126.098H44.9604C44.0164 126.098 43.5444 125.64 43.5444 124.722V122.586H43.0164V121.666H43.5444V120.57H44.6724V121.666H45.6644V122.586H44.6724ZM50.59 123.786C50.59 123.946 50.5793 124.09 50.558 124.218H47.318C47.3446 124.538 47.4566 124.789 47.654 124.97C47.8513 125.152 48.094 125.242 48.382 125.242C48.798 125.242 49.094 125.064 49.27 124.706H50.478C50.35 125.133 50.1046 125.485 49.742 125.762C49.3793 126.034 48.934 126.17 48.406 126.17C47.9793 126.17 47.5953 126.077 47.254 125.89C46.918 125.698 46.654 125.429 46.462 125.082C46.2753 124.736 46.182 124.336 46.182 123.882C46.182 123.424 46.2753 123.021 46.462 122.674C46.6486 122.328 46.91 122.061 47.246 121.874C47.582 121.688 47.9686 121.594 48.406 121.594C48.8273 121.594 49.2033 121.685 49.534 121.866C49.87 122.048 50.1286 122.306 50.31 122.642C50.4966 122.973 50.59 123.354 50.59 123.786ZM49.43 123.466C49.4246 123.178 49.3206 122.949 49.118 122.778C48.9153 122.602 48.6673 122.514 48.374 122.514C48.0966 122.514 47.862 122.6 47.67 122.77C47.4833 122.936 47.3686 123.168 47.326 123.466H49.43ZM55.2417 126.154C54.8524 126.154 54.5004 126.088 54.1857 125.954C53.8764 125.821 53.6311 125.629 53.4497 125.378C53.2684 125.128 53.1751 124.832 53.1697 124.49H54.3697C54.3857 124.72 54.4657 124.901 54.6097 125.034C54.7591 125.168 54.9617 125.234 55.2177 125.234C55.4791 125.234 55.6844 125.173 55.8337 125.05C55.9831 124.922 56.0577 124.757 56.0577 124.554C56.0577 124.389 56.0071 124.253 55.9057 124.146C55.8044 124.04 55.6764 123.957 55.5217 123.898C55.3724 123.834 55.1644 123.765 54.8977 123.69C54.5351 123.584 54.2391 123.48 54.0097 123.378C53.7857 123.272 53.5911 123.114 53.4257 122.906C53.2657 122.693 53.1857 122.41 53.1857 122.058C53.1857 121.728 53.2684 121.44 53.4337 121.194C53.5991 120.949 53.8311 120.762 54.1297 120.634C54.4284 120.501 54.7697 120.434 55.1537 120.434C55.7297 120.434 56.1964 120.576 56.5537 120.858C56.9164 121.136 57.1164 121.525 57.1537 122.026H55.9217C55.9111 121.834 55.8284 121.677 55.6737 121.554C55.5244 121.426 55.3244 121.362 55.0737 121.362C54.8551 121.362 54.6791 121.418 54.5457 121.53C54.4177 121.642 54.3537 121.805 54.3537 122.018C54.3537 122.168 54.4017 122.293 54.4977 122.394C54.5991 122.49 54.7217 122.57 54.8657 122.634C55.0151 122.693 55.2231 122.762 55.4897 122.842C55.8524 122.949 56.1484 123.056 56.3777 123.162C56.6071 123.269 56.8044 123.429 56.9697 123.642C57.1351 123.856 57.2177 124.136 57.2177 124.482C57.2177 124.781 57.1404 125.058 56.9857 125.314C56.8311 125.57 56.6044 125.776 56.3057 125.93C56.0071 126.08 55.6524 126.154 55.2417 126.154ZM59.4927 122.586V124.73C59.4927 124.88 59.5274 124.989 59.5967 125.058C59.6714 125.122 59.7941 125.154 59.9647 125.154H60.4847V126.098H59.7807C58.8367 126.098 58.3647 125.64 58.3647 124.722V122.586H57.8367V121.666H58.3647V120.57H59.4927V121.666H60.4847V122.586H59.4927ZM63.2583 126.17C62.8316 126.17 62.4476 126.077 62.1063 125.89C61.7649 125.698 61.4956 125.429 61.2983 125.082C61.1063 124.736 61.0103 124.336 61.0103 123.882C61.0103 123.429 61.1089 123.029 61.3063 122.682C61.5089 122.336 61.7836 122.069 62.1303 121.882C62.4769 121.69 62.8636 121.594 63.2903 121.594C63.7169 121.594 64.1036 121.69 64.4503 121.882C64.7969 122.069 65.0689 122.336 65.2663 122.682C65.4689 123.029 65.5703 123.429 65.5703 123.882C65.5703 124.336 65.4663 124.736 65.2583 125.082C65.0556 125.429 64.7783 125.698 64.4263 125.89C64.0796 126.077 63.6903 126.17 63.2583 126.17ZM63.2583 125.194C63.4609 125.194 63.6503 125.146 63.8263 125.05C64.0076 124.949 64.1516 124.8 64.2583 124.602C64.3649 124.405 64.4183 124.165 64.4183 123.882C64.4183 123.461 64.3063 123.138 64.0823 122.914C63.8636 122.685 63.5943 122.57 63.2743 122.57C62.9543 122.57 62.6849 122.685 62.4663 122.914C62.2529 123.138 62.1463 123.461 62.1463 123.882C62.1463 124.304 62.2503 124.629 62.4583 124.858C62.6716 125.082 62.9383 125.194 63.2583 125.194ZM67.5118 122.354C67.6558 122.12 67.8425 121.936 68.0718 121.802C68.3065 121.669 68.5732 121.602 68.8718 121.602V122.778H68.5758C68.2238 122.778 67.9572 122.861 67.7758 123.026C67.5998 123.192 67.5118 123.48 67.5118 123.89V126.098H66.3918V121.666H67.5118V122.354ZM73.8662 121.666L71.1222 128.194H69.9302L70.8902 125.986L69.1142 121.666H70.3702L71.5142 124.762L72.6742 121.666H73.8662Z" fill="#010010"/>
<rect x="1.16667" y="1.16667" width="97.6667" height="137.667" rx="12.8333" stroke="#C39EFF" stroke-width="2.33333"/>
</svg>
