<svg width="22" height="23" viewBox="0 0 22 23" fill="none" xmlns="http://www.w3.org/2000/svg">
<g filter="url(#filter0_di_3445_26524)">
<path d="M11 18.75C9.78125 18.75 8.61523 18.5053 7.50195 18.0158C6.38867 17.5264 5.43066 16.8678 4.62793 16.0399C3.8252 15.2121 3.18652 14.2242 2.71191 13.0761C2.2373 11.928 2 10.7256 2 9.46875C2 8.21191 2.2373 7.00946 2.71191 5.86139C3.18652 4.71332 3.8252 3.72537 4.62793 2.89755C5.43066 2.06973 6.38867 1.4111 7.50195 0.921661C8.61523 0.43222 9.78125 0.1875 11 0.1875C12.2188 0.1875 13.3848 0.43222 14.498 0.921661C15.6113 1.4111 16.5693 2.06973 17.3721 2.89755C18.1748 3.72537 18.8135 4.71332 19.2881 5.86139C19.7627 7.00946 20 8.21191 20 9.46875C20 10.7256 19.7627 11.928 19.2881 13.0761C18.8135 14.2242 18.1748 15.2121 17.3721 16.0399C16.5693 16.8678 15.6113 17.5264 14.498 18.0158C13.3848 18.5053 12.2188 18.75 11 18.75ZM8.57422 7.02155C8.67969 6.9007 8.73242 6.75568 8.73242 6.58649C8.73242 6.4173 8.67676 6.27228 8.56543 6.15143C8.4541 6.03058 8.31641 5.97015 8.15234 5.97015C7.98828 5.97015 7.84766 6.03058 7.73047 6.15143L7.04492 6.8584L6.37695 6.15143C6.25977 6.03058 6.11914 5.97015 5.95508 5.97015C5.79102 5.97015 5.65039 6.03058 5.5332 6.15143C5.41602 6.27228 5.35742 6.4173 5.35742 6.58649C5.35742 6.75568 5.41602 6.9007 5.5332 7.02155L6.21875 7.71039L5.5332 8.41736C5.41602 8.53821 5.35742 8.68323 5.35742 8.85242C5.35742 9.02161 5.41602 9.1636 5.5332 9.27841C5.65039 9.39322 5.79102 9.45062 5.95508 9.45062C6.11914 9.45062 6.25977 9.39624 6.37695 9.28748L7.04492 8.58051L7.73047 9.28748C7.84766 9.39624 7.98828 9.45062 8.15234 9.45062C8.31641 9.45062 8.4541 9.39322 8.56543 9.27841C8.67676 9.1636 8.73242 9.02161 8.73242 8.85242C8.73242 8.68323 8.67969 8.53821 8.57422 8.41736L7.88867 7.71039L8.57422 7.02155ZM11 12.9492C10.3789 12.9492 9.84863 13.1184 9.40918 13.4568C8.96973 13.7952 8.75 14.2061 8.75 14.6895C8.75 15.1729 8.96973 15.5837 9.40918 15.9221C9.84863 16.2605 10.3789 16.4297 11 16.4297C11.6211 16.4297 12.1514 16.2605 12.5908 15.9221C13.0303 15.5837 13.25 15.1729 13.25 14.6895C13.25 14.2061 13.0303 13.7952 12.5908 13.4568C12.1514 13.1184 11.6211 12.9492 11 12.9492ZM16.4492 7.02155C16.5547 6.9007 16.6074 6.75568 16.6074 6.58649C16.6074 6.4173 16.5518 6.27228 16.4404 6.15143C16.3291 6.03058 16.1914 5.97015 16.0273 5.97015C15.8633 5.97015 15.7227 6.03058 15.6055 6.15143L14.9199 6.8584L14.252 6.15143C14.1348 6.03058 13.9941 5.97015 13.8301 5.97015C13.666 5.97015 13.5254 6.03058 13.4082 6.15143C13.291 6.27228 13.2324 6.4173 13.2324 6.58649C13.2324 6.75568 13.291 6.9007 13.4082 7.02155L14.0938 7.71039L13.4082 8.41736C13.291 8.53821 13.2324 8.68323 13.2324 8.85242C13.2324 9.02161 13.291 9.1636 13.4082 9.27841C13.5254 9.39322 13.666 9.45062 13.8301 9.45062C13.9941 9.45062 14.1348 9.39624 14.252 9.28748L14.9199 8.58051L15.6055 9.28748C15.7227 9.39624 15.8633 9.45062 16.0273 9.45062C16.1914 9.45062 16.3291 9.39322 16.4404 9.27841C16.5518 9.1636 16.6074 9.02161 16.6074 8.85242C16.6074 8.68323 16.5547 8.53821 16.4492 8.41736L15.7637 7.71039L16.4492 7.02155Z" fill="url(#paint0_linear_3445_26524)"/>
</g>
<defs>
<filter id="filter0_di_3445_26524" x="0" y="-0.8125" width="22" height="23.5625" filterUnits="userSpaceOnUse" color-interpolation-filters="sRGB">
<feFlood flood-opacity="0" result="BackgroundImageFix"/>
<feColorMatrix in="SourceAlpha" type="matrix" values="0 0 0 0 0 0 0 0 0 0 0 0 0 0 0 0 0 0 127 0" result="hardAlpha"/>
<feOffset dy="2"/>
<feGaussianBlur stdDeviation="1"/>
<feComposite in2="hardAlpha" operator="out"/>
<feColorMatrix type="matrix" values="0 0 0 0 1 0 0 0 0 0.8 0 0 0 0 0.861702 0 0 0 1 0"/>
<feBlend mode="normal" in2="BackgroundImageFix" result="effect1_dropShadow_3445_26524"/>
<feBlend mode="normal" in="SourceGraphic" in2="effect1_dropShadow_3445_26524" result="shape"/>
<feColorMatrix in="SourceAlpha" type="matrix" values="0 0 0 0 0 0 0 0 0 0 0 0 0 0 0 0 0 0 127 0" result="hardAlpha"/>
<feOffset dy="-1"/>
<feGaussianBlur stdDeviation="1"/>
<feComposite in2="hardAlpha" operator="arithmetic" k2="-1" k3="1"/>
<feColorMatrix type="matrix" values="0 0 0 0 0.75 0 0 0 0 0.05 0 0 0 0 0.288298 0 0 0 1 0"/>
<feBlend mode="normal" in2="shape" result="effect2_innerShadow_3445_26524"/>
</filter>
<linearGradient id="paint0_linear_3445_26524" x1="-0.121428" y1="0.187496" x2="20.2569" y2="1.27397" gradientUnits="userSpaceOnUse">
<stop stop-color="#C7539A"/>
<stop offset="0.555477" stop-color="#FB3E78"/>
<stop offset="1" stop-color="#FF5369"/>
</linearGradient>
</defs>
</svg>
