<svg width="19" height="20" viewBox="0 0 19 20" fill="none" xmlns="http://www.w3.org/2000/svg">
<path d="M18.4201 10.0468C18.4201 10.3262 18.3534 10.5884 18.2418 10.8268C17.4968 13.2301 14.009 13.0545 9.04788 13.1718C8.21844 13.1912 8.69288 14.1707 8.98399 16.3207C9.17344 17.719 8.27177 19.8662 6.75621 19.8662C4.25732 19.8662 6.66121 17.8951 4.45177 13.0207C3.27121 10.4162 0.632324 11.8751 0.632324 9.25899V3.30399C0.632324 2.28566 0.732324 1.30677 2.16455 1.14566C3.55288 0.989546 3.24066 0.000101089 5.24344 0.000101089H15.2679C16.289 0.000101089 17.1195 0.831213 17.1195 1.85232C17.1195 2.27566 16.9712 2.66121 16.7318 2.97343C17.2984 3.29066 17.6873 3.88954 17.6873 4.58399C17.6873 5.00621 17.5395 5.39177 17.3007 5.70343C17.869 6.0201 18.259 6.61954 18.259 7.3151C18.259 7.8201 18.0545 8.27788 17.7251 8.61288C18.1457 8.95232 18.4201 9.46566 18.4201 10.0468Z" fill="url(#paint0_linear_3451_14274)"/>
<defs>
<linearGradient id="paint0_linear_3451_14274" x1="-0.286711" y1="23.2807" x2="19.6698" y2="22.9358" gradientUnits="userSpaceOnUse">
<stop stop-color="#FE5E71"/>
<stop offset="1" stop-color="#FF3951"/>
</linearGradient>
</defs>
</svg>
