<svg width="19" height="20" viewBox="0 0 19 20" fill="none" xmlns="http://www.w3.org/2000/svg">
<path d="M18.4201 9.95323C18.4201 9.67379 18.3534 9.41157 18.2418 9.17323C17.4968 6.7699 14.009 6.94546 9.04788 6.82823C8.21844 6.80879 8.69288 5.82934 8.98399 3.67934C9.17344 2.28101 8.27177 0.133789 6.75621 0.133789C4.25732 0.133789 6.66121 2.1049 4.45177 6.97934C3.27121 9.58379 0.632324 8.1249 0.632324 10.741V16.696C0.632324 17.7143 0.732324 18.6932 2.16455 18.8543C3.55288 19.0105 3.24066 19.9999 5.24344 19.9999H15.2679C16.289 19.9999 17.1195 19.1688 17.1195 18.1477C17.1195 17.7243 16.9712 17.3388 16.7318 17.0266C17.2984 16.7093 17.6873 16.1105 17.6873 15.416C17.6873 14.9938 17.5395 14.6082 17.3007 14.2966C17.869 13.9799 18.259 13.3805 18.259 12.6849C18.259 12.1799 18.0545 11.7221 17.7251 11.3871C18.1457 11.0477 18.4201 10.5343 18.4201 9.95323Z" fill="#F2BD6F"/>
</svg>
