<svg width="18" height="17" viewBox="0 0 18 17" fill="none" xmlns="http://www.w3.org/2000/svg">
<g filter="url(#filter0_i_3445_26496)">
<path d="M17.6885 4.39734C17.6213 3.34876 17.3973 2.49712 16.6667 1.61974C15.2039 -0.134484 11.8426 -0.426489 10.3363 1.26226C10.0747 1.51044 9.82705 1.81012 9.57806 2.16731L9.01569 2.97594L8.45195 2.16731C8.20295 1.80984 7.95422 1.51044 7.69263 1.26226C6.18768 -0.426489 2.82606 -0.134484 1.36494 1.61946C0.633284 2.49685 0.408939 3.34876 0.341827 4.39707C0.245953 7.51517 2.50913 10.012 2.78798 10.3777C4.32361 12.179 5.99867 13.8828 7.7003 15.4519C8.00846 15.7214 8.27444 15.9452 8.54043 16.1677C8.69985 16.2986 8.85736 16.4304 9.01678 16.5602C9.17511 16.4304 9.33262 16.2986 9.49095 16.1677C9.75803 15.945 10.0237 15.7214 10.3308 15.4519C12.0327 13.8826 13.7075 12.179 15.2434 10.3777C15.5228 10.012 17.7862 7.51544 17.6893 4.39734" fill="url(#paint0_linear_3445_26496)"/>
</g>
<defs>
<filter id="filter0_i_3445_26496" x="-1.66113" y="-1.86157" width="19.3535" height="18.4219" filterUnits="userSpaceOnUse" color-interpolation-filters="sRGB">
<feFlood flood-opacity="0" result="BackgroundImageFix"/>
<feBlend mode="normal" in="SourceGraphic" in2="BackgroundImageFix" result="shape"/>
<feColorMatrix in="SourceAlpha" type="matrix" values="0 0 0 0 0 0 0 0 0 0 0 0 0 0 0 0 0 0 127 0" result="hardAlpha"/>
<feOffset dx="-2" dy="-2"/>
<feGaussianBlur stdDeviation="1"/>
<feComposite in2="hardAlpha" operator="arithmetic" k2="-1" k3="1"/>
<feColorMatrix type="matrix" values="0 0 0 0 0.554167 0 0 0 0 0.0277084 0 0 0 0 0.25463 0 0 0 1 0"/>
<feBlend mode="normal" in2="shape" result="effect1_innerShadow_3445_26496"/>
</filter>
<linearGradient id="paint0_linear_3445_26496" x1="0.338867" y1="8.34932" x2="17.6923" y2="8.34932" gradientUnits="userSpaceOnUse">
<stop stop-color="#80002B"/>
<stop offset="1" stop-color="#E60573"/>
</linearGradient>
</defs>
</svg>
