<svg width="36" height="38" viewBox="0 0 36 38" fill="none" xmlns="http://www.w3.org/2000/svg">
<path d="M5.62944 24.42C6.41344 24.42 7.12144 24.604 7.75344 24.972C8.39344 25.34 8.89344 25.856 9.25344 26.52C9.62144 27.176 9.80544 27.92 9.80544 28.752C9.80544 29.584 9.62144 30.332 9.25344 30.996C8.89344 31.652 8.39344 32.168 7.75344 32.544C7.12144 32.912 6.41344 33.096 5.62944 33.096C4.83744 33.096 4.12144 32.912 3.48144 32.544C2.84944 32.168 2.34944 31.652 1.98144 30.996C1.61344 30.332 1.42944 29.584 1.42944 28.752C1.42944 27.92 1.61344 27.176 1.98144 26.52C2.34944 25.856 2.84944 25.34 3.48144 24.972C4.12144 24.604 4.83744 24.42 5.62944 24.42ZM5.62944 25.692C5.08544 25.692 4.60144 25.816 4.17744 26.064C3.75344 26.312 3.42144 26.668 3.18144 27.132C2.94944 27.596 2.83344 28.136 2.83344 28.752C2.83344 29.368 2.94944 29.908 3.18144 30.372C3.42144 30.836 3.75344 31.192 4.17744 31.44C4.60144 31.688 5.08544 31.812 5.62944 31.812C6.16544 31.812 6.64144 31.688 7.05744 31.44C7.48144 31.192 7.80944 30.836 8.04144 30.372C8.28144 29.908 8.40144 29.368 8.40144 28.752C8.40144 28.136 8.28144 27.596 8.04144 27.132C7.80944 26.668 7.48144 26.312 7.05744 26.064C6.64144 25.816 6.16544 25.692 5.62944 25.692ZM14.5099 31.812V33H13.6699C12.9659 33 12.4299 32.832 12.0619 32.496C11.7019 32.152 11.5219 31.584 11.5219 30.792V27.552H10.5739V26.388H11.5219V24.744H12.9019V26.388H14.4979V27.552H12.9019V30.816C12.9019 31.192 12.9699 31.452 13.1059 31.596C13.2499 31.74 13.4979 31.812 13.8499 31.812H14.5099ZM19.4874 26.28C20.2554 26.28 20.8714 26.528 21.3354 27.024C21.7994 27.52 22.0314 28.228 22.0314 29.148V33H20.6634V29.292C20.6634 28.7 20.5114 28.244 20.2074 27.924C19.9034 27.596 19.4874 27.432 18.9594 27.432C18.4154 27.432 17.9794 27.608 17.6514 27.96C17.3234 28.304 17.1594 28.812 17.1594 29.484V33H15.7914V24.12H17.1594V27.84C17.3354 27.344 17.6314 26.96 18.0474 26.688C18.4634 26.416 18.9434 26.28 19.4874 26.28ZM29.7752 29.376C29.7752 29.6 29.7592 29.796 29.7272 29.964H24.6392C24.6632 30.644 24.8512 31.148 25.2032 31.476C25.5552 31.804 25.9912 31.968 26.5112 31.968C26.9672 31.968 27.3512 31.852 27.6632 31.62C27.9832 31.388 28.1792 31.08 28.2512 30.696H29.7152C29.6272 31.16 29.4432 31.572 29.1632 31.932C28.8832 32.292 28.5192 32.576 28.0712 32.784C27.6232 32.984 27.1232 33.084 26.5712 33.084C25.9312 33.084 25.3632 32.948 24.8672 32.676C24.3792 32.404 23.9952 32.012 23.7152 31.5C23.4352 30.988 23.2952 30.384 23.2952 29.688C23.2952 29 23.4352 28.4 23.7152 27.888C23.9952 27.376 24.3792 26.984 24.8672 26.712C25.3632 26.44 25.9312 26.304 26.5712 26.304C27.2192 26.304 27.7832 26.44 28.2632 26.712C28.7512 26.976 29.1232 27.344 29.3792 27.816C29.6432 28.28 29.7752 28.8 29.7752 29.376ZM28.3952 29.34C28.4112 28.908 28.3352 28.548 28.1672 28.26C28.0072 27.964 27.7832 27.748 27.4952 27.612C27.2152 27.468 26.9072 27.396 26.5712 27.396C26.0352 27.396 25.5872 27.56 25.2272 27.888C24.8672 28.216 24.6712 28.7 24.6392 29.34H28.3952ZM32.4641 27.684C32.6881 27.252 33.0081 26.912 33.4241 26.664C33.8401 26.408 34.3201 26.28 34.8641 26.28V27.768H34.4561C33.8561 27.768 33.3721 27.916 33.0041 28.212C32.6441 28.5 32.4641 28.98 32.4641 29.652V33H31.0961V26.388H32.4641V27.684Z" fill="white"/>
<circle cx="8.46924" cy="2" r="2" transform="rotate(-90 8.46924 2)" fill="white"/>
<circle cx="16.4692" cy="2" r="2" transform="rotate(-90 16.4692 2)" fill="white"/>
<circle cx="24.4692" cy="2" r="2" transform="rotate(-90 24.4692 2)" fill="white"/>
</svg>
