<svg width="300" height="390" viewBox="0 0 300 390" fill="none" xmlns="http://www.w3.org/2000/svg">
<rect x="100" y="109" width="100" height="100" rx="50" fill="#C39EFF"/>
<path d="M132 168L132 150C132 146.134 135.134 143 139 143L161 143C164.866 143 168 146.134 168 150L168 168C168 171.866 164.866 175 161 175L139 175C135.134 175 132 171.866 132 168Z" stroke="white" stroke-width="3" stroke-linecap="round" stroke-linejoin="round"/>
<path d="M134 173L154 153L168 167" stroke="white" stroke-width="3" stroke-linecap="round" stroke-linejoin="round"/>
<circle cx="142" cy="153" r="4" fill="white"/>
<path d="M45.74 246.02C45.74 244.66 46.0533 243.44 46.68 242.36C47.32 241.28 48.18 240.44 49.26 239.84C50.3533 239.227 51.5467 238.92 52.84 238.92C54.32 238.92 55.6333 239.287 56.78 240.02C57.94 240.74 58.78 241.767 59.3 243.1H56.56C56.2 242.367 55.7 241.82 55.06 241.46C54.42 241.1 53.68 240.92 52.84 240.92C51.92 240.92 51.1 241.127 50.38 241.54C49.66 241.953 49.0933 242.547 48.68 243.32C48.28 244.093 48.08 244.993 48.08 246.02C48.08 247.047 48.28 247.947 48.68 248.72C49.0933 249.493 49.66 250.093 50.38 250.52C51.1 250.933 51.92 251.14 52.84 251.14C53.68 251.14 54.42 250.96 55.06 250.6C55.7 250.24 56.2 249.693 56.56 248.96H59.3C58.78 250.293 57.94 251.32 56.78 252.04C55.6333 252.76 54.32 253.12 52.84 253.12C51.5333 253.12 50.34 252.82 49.26 252.22C48.18 251.607 47.32 250.76 46.68 249.68C46.0533 248.6 45.74 247.38 45.74 246.02ZM64.2488 243.58C64.5821 243.02 65.0221 242.587 65.5688 242.28C66.1288 241.96 66.7888 241.8 67.5488 241.8V244.16H66.9688C66.0754 244.16 65.3954 244.387 64.9288 244.84C64.4754 245.293 64.2488 246.08 64.2488 247.2V253H61.9688V241.98H64.2488V243.58ZM79.7445 247.22C79.7445 247.633 79.7179 248.007 79.6645 248.34H71.2445C71.3112 249.22 71.6379 249.927 72.2245 250.46C72.8112 250.993 73.5312 251.26 74.3845 251.26C75.6112 251.26 76.4779 250.747 76.9845 249.72H79.4445C79.1112 250.733 78.5045 251.567 77.6245 252.22C76.7579 252.86 75.6779 253.18 74.3845 253.18C73.3312 253.18 72.3845 252.947 71.5445 252.48C70.7179 252 70.0645 251.333 69.5845 250.48C69.1179 249.613 68.8845 248.613 68.8845 247.48C68.8845 246.347 69.1112 245.353 69.5645 244.5C70.0312 243.633 70.6779 242.967 71.5045 242.5C72.3445 242.033 73.3045 241.8 74.3845 241.8C75.4245 241.8 76.3512 242.027 77.1645 242.48C77.9779 242.933 78.6112 243.573 79.0645 244.4C79.5179 245.213 79.7445 246.153 79.7445 247.22ZM77.3645 246.5C77.3512 245.66 77.0512 244.987 76.4645 244.48C75.8779 243.973 75.1512 243.72 74.2845 243.72C73.4979 243.72 72.8245 243.973 72.2645 244.48C71.7045 244.973 71.3712 245.647 71.2645 246.5H77.3645ZM81.2283 247.44C81.2283 246.333 81.4549 245.353 81.9083 244.5C82.3749 243.647 83.0016 242.987 83.7883 242.52C84.5883 242.04 85.4683 241.8 86.4283 241.8C87.2949 241.8 88.0483 241.973 88.6883 242.32C89.3416 242.653 89.8616 243.073 90.2483 243.58V241.98H92.5483V253H90.2483V251.36C89.8616 251.88 89.3349 252.313 88.6683 252.66C88.0016 253.007 87.2416 253.18 86.3883 253.18C85.4416 253.18 84.5749 252.94 83.7883 252.46C83.0016 251.967 82.3749 251.287 81.9083 250.42C81.4549 249.54 81.2283 248.547 81.2283 247.44ZM90.2483 247.48C90.2483 246.72 90.0883 246.06 89.7683 245.5C89.4616 244.94 89.0549 244.513 88.5483 244.22C88.0416 243.927 87.4949 243.78 86.9083 243.78C86.3216 243.78 85.7749 243.927 85.2683 244.22C84.7616 244.5 84.3483 244.92 84.0283 245.48C83.7216 246.027 83.5683 246.68 83.5683 247.44C83.5683 248.2 83.7216 248.867 84.0283 249.44C84.3483 250.013 84.7616 250.453 85.2683 250.76C85.7883 251.053 86.3349 251.2 86.9083 251.2C87.4949 251.2 88.0416 251.053 88.5483 250.76C89.0549 250.467 89.4616 250.04 89.7683 249.48C90.0883 248.907 90.2483 248.24 90.2483 247.48ZM98.203 243.84V249.94C98.203 250.353 98.2963 250.653 98.483 250.84C98.683 251.013 99.0163 251.1 99.483 251.1H100.883V253H99.083C98.0563 253 97.2696 252.76 96.723 252.28C96.1763 251.8 95.903 251.02 95.903 249.94V243.84H94.603V241.98H95.903V239.24H98.203V241.98H100.883V243.84H98.203ZM113.084 247.22C113.084 247.633 113.058 248.007 113.004 248.34H104.584C104.651 249.22 104.978 249.927 105.564 250.46C106.151 250.993 106.871 251.26 107.724 251.26C108.951 251.26 109.818 250.747 110.324 249.72H112.784C112.451 250.733 111.844 251.567 110.964 252.22C110.098 252.86 109.018 253.18 107.724 253.18C106.671 253.18 105.724 252.947 104.884 252.48C104.058 252 103.404 251.333 102.924 250.48C102.458 249.613 102.224 248.613 102.224 247.48C102.224 246.347 102.451 245.353 102.904 244.5C103.371 243.633 104.018 242.967 104.844 242.5C105.684 242.033 106.644 241.8 107.724 241.8C108.764 241.8 109.691 242.027 110.504 242.48C111.318 242.933 111.951 243.573 112.404 244.4C112.858 245.213 113.084 246.153 113.084 247.22ZM110.704 246.5C110.691 245.66 110.391 244.987 109.804 244.48C109.218 243.973 108.491 243.72 107.624 243.72C106.838 243.72 106.164 243.973 105.604 244.48C105.044 244.973 104.711 245.647 104.604 246.5H110.704ZM119.763 247.44C119.763 246.333 119.99 245.353 120.443 244.5C120.91 243.647 121.537 242.987 122.323 242.52C123.123 242.04 124.003 241.8 124.963 241.8C125.83 241.8 126.583 241.973 127.223 242.32C127.877 242.653 128.397 243.073 128.783 243.58V241.98H131.083V253H128.783V251.36C128.397 251.88 127.87 252.313 127.203 252.66C126.537 253.007 125.777 253.18 124.923 253.18C123.977 253.18 123.11 252.94 122.323 252.46C121.537 251.967 120.91 251.287 120.443 250.42C119.99 249.54 119.763 248.547 119.763 247.44ZM128.783 247.48C128.783 246.72 128.623 246.06 128.303 245.5C127.997 244.94 127.59 244.513 127.083 244.22C126.577 243.927 126.03 243.78 125.443 243.78C124.857 243.78 124.31 243.927 123.803 244.22C123.297 244.5 122.883 244.92 122.563 245.48C122.257 246.027 122.103 246.68 122.103 247.44C122.103 248.2 122.257 248.867 122.563 249.44C122.883 250.013 123.297 250.453 123.803 250.76C124.323 251.053 124.87 251.2 125.443 251.2C126.03 251.2 126.577 251.053 127.083 250.76C127.59 250.467 127.997 250.04 128.303 249.48C128.623 248.907 128.783 248.24 128.783 247.48ZM141.553 243.6C141.94 243.093 142.467 242.667 143.133 242.32C143.8 241.973 144.553 241.8 145.393 241.8C146.353 241.8 147.227 242.04 148.013 242.52C148.813 242.987 149.44 243.647 149.893 244.5C150.347 245.353 150.573 246.333 150.573 247.44C150.573 248.547 150.347 249.54 149.893 250.42C149.44 251.287 148.813 251.967 148.013 252.46C147.227 252.94 146.353 253.18 145.393 253.18C144.553 253.18 143.807 253.013 143.153 252.68C142.5 252.333 141.967 251.907 141.553 251.4V258.24H139.273V241.98H141.553V243.6ZM148.253 247.44C148.253 246.68 148.093 246.027 147.773 245.48C147.467 244.92 147.053 244.5 146.533 244.22C146.027 243.927 145.48 243.78 144.893 243.78C144.32 243.78 143.773 243.927 143.253 244.22C142.747 244.513 142.333 244.94 142.013 245.5C141.707 246.06 141.553 246.72 141.553 247.48C141.553 248.24 141.707 248.907 142.013 249.48C142.333 250.04 142.747 250.467 143.253 250.76C143.773 251.053 144.32 251.2 144.893 251.2C145.48 251.2 146.027 251.053 146.533 250.76C147.053 250.453 147.467 250.013 147.773 249.44C148.093 248.867 148.253 248.2 148.253 247.44ZM158.528 241.8C159.368 241.8 160.115 241.98 160.768 242.34C161.435 242.7 161.955 243.233 162.328 243.94C162.715 244.647 162.908 245.5 162.908 246.5V253H160.648V246.84C160.648 245.853 160.401 245.1 159.908 244.58C159.415 244.047 158.741 243.78 157.888 243.78C157.035 243.78 156.355 244.047 155.848 244.58C155.355 245.1 155.108 245.853 155.108 246.84V253H152.828V238.2H155.108V243.26C155.495 242.793 155.981 242.433 156.568 242.18C157.168 241.927 157.821 241.8 158.528 241.8ZM170.596 253.18C169.556 253.18 168.616 252.947 167.776 252.48C166.936 252 166.276 251.333 165.796 250.48C165.316 249.613 165.076 248.613 165.076 247.48C165.076 246.36 165.323 245.367 165.816 244.5C166.31 243.633 166.983 242.967 167.836 242.5C168.69 242.033 169.643 241.8 170.696 241.8C171.75 241.8 172.703 242.033 173.556 242.5C174.41 242.967 175.083 243.633 175.576 244.5C176.07 245.367 176.316 246.36 176.316 247.48C176.316 248.6 176.063 249.593 175.556 250.46C175.05 251.327 174.356 252 173.476 252.48C172.61 252.947 171.65 253.18 170.596 253.18ZM170.596 251.2C171.183 251.2 171.73 251.06 172.236 250.78C172.756 250.5 173.176 250.08 173.496 249.52C173.816 248.96 173.976 248.28 173.976 247.48C173.976 246.68 173.823 246.007 173.516 245.46C173.21 244.9 172.803 244.48 172.296 244.2C171.79 243.92 171.243 243.78 170.656 243.78C170.07 243.78 169.523 243.92 169.016 244.2C168.523 244.48 168.13 244.9 167.836 245.46C167.543 246.007 167.396 246.68 167.396 247.48C167.396 248.667 167.696 249.587 168.296 250.24C168.91 250.88 169.676 251.2 170.596 251.2ZM181.23 243.84V249.94C181.23 250.353 181.324 250.653 181.51 250.84C181.71 251.013 182.044 251.1 182.51 251.1H183.91V253H182.11C181.084 253 180.297 252.76 179.75 252.28C179.204 251.8 178.93 251.02 178.93 249.94V243.84H177.63V241.98H178.93V239.24H181.23V241.98H183.91V243.84H181.23ZM190.792 253.18C189.752 253.18 188.812 252.947 187.972 252.48C187.132 252 186.472 251.333 185.992 250.48C185.512 249.613 185.272 248.613 185.272 247.48C185.272 246.36 185.518 245.367 186.012 244.5C186.505 243.633 187.178 242.967 188.032 242.5C188.885 242.033 189.838 241.8 190.892 241.8C191.945 241.8 192.898 242.033 193.752 242.5C194.605 242.967 195.278 243.633 195.772 244.5C196.265 245.367 196.512 246.36 196.512 247.48C196.512 248.6 196.258 249.593 195.752 250.46C195.245 251.327 194.552 252 193.672 252.48C192.805 252.947 191.845 253.18 190.792 253.18ZM190.792 251.2C191.378 251.2 191.925 251.06 192.432 250.78C192.952 250.5 193.372 250.08 193.692 249.52C194.012 248.96 194.172 248.28 194.172 247.48C194.172 246.68 194.018 246.007 193.712 245.46C193.405 244.9 192.998 244.48 192.492 244.2C191.985 243.92 191.438 243.78 190.852 243.78C190.265 243.78 189.718 243.92 189.212 244.2C188.718 244.48 188.325 244.9 188.032 245.46C187.738 246.007 187.592 246.68 187.592 247.48C187.592 248.667 187.892 249.587 188.492 250.24C189.105 250.88 189.872 251.2 190.792 251.2ZM208.541 253.14C207.608 253.14 206.768 252.98 206.021 252.66C205.274 252.327 204.688 251.86 204.261 251.26C203.834 250.66 203.621 249.96 203.621 249.16H206.061C206.114 249.76 206.348 250.253 206.761 250.64C207.188 251.027 207.781 251.22 208.541 251.22C209.328 251.22 209.941 251.033 210.381 250.66C210.821 250.273 211.041 249.78 211.041 249.18C211.041 248.713 210.901 248.333 210.621 248.04C210.354 247.747 210.014 247.52 209.601 247.36C209.201 247.2 208.641 247.027 207.921 246.84C207.014 246.6 206.274 246.36 205.701 246.12C205.141 245.867 204.661 245.48 204.261 244.96C203.861 244.44 203.661 243.747 203.661 242.88C203.661 242.08 203.861 241.38 204.261 240.78C204.661 240.18 205.221 239.72 205.941 239.4C206.661 239.08 207.494 238.92 208.441 238.92C209.788 238.92 210.888 239.26 211.741 239.94C212.608 240.607 213.088 241.527 213.181 242.7H210.661C210.621 242.193 210.381 241.76 209.941 241.4C209.501 241.04 208.921 240.86 208.201 240.86C207.548 240.86 207.014 241.027 206.601 241.36C206.188 241.693 205.981 242.173 205.981 242.8C205.981 243.227 206.108 243.58 206.361 243.86C206.628 244.127 206.961 244.34 207.361 244.5C207.761 244.66 208.308 244.833 209.001 245.02C209.921 245.273 210.668 245.527 211.241 245.78C211.828 246.033 212.321 246.427 212.721 246.96C213.134 247.48 213.341 248.18 213.341 249.06C213.341 249.767 213.148 250.433 212.761 251.06C212.388 251.687 211.834 252.193 211.101 252.58C210.381 252.953 209.528 253.14 208.541 253.14ZM218.691 243.84V249.94C218.691 250.353 218.785 250.653 218.971 250.84C219.171 251.013 219.505 251.1 219.971 251.1H221.371V253H219.571C218.545 253 217.758 252.76 217.211 252.28C216.665 251.8 216.391 251.02 216.391 249.94V243.84H215.091V241.98H216.391V239.24H218.691V241.98H221.371V243.84H218.691ZM228.253 253.18C227.213 253.18 226.273 252.947 225.433 252.48C224.593 252 223.933 251.333 223.453 250.48C222.973 249.613 222.733 248.613 222.733 247.48C222.733 246.36 222.979 245.367 223.473 244.5C223.966 243.633 224.639 242.967 225.493 242.5C226.346 242.033 227.299 241.8 228.353 241.8C229.406 241.8 230.359 242.033 231.213 242.5C232.066 242.967 232.739 243.633 233.233 244.5C233.726 245.367 233.973 246.36 233.973 247.48C233.973 248.6 233.719 249.593 233.213 250.46C232.706 251.327 232.013 252 231.133 252.48C230.266 252.947 229.306 253.18 228.253 253.18ZM228.253 251.2C228.839 251.2 229.386 251.06 229.893 250.78C230.413 250.5 230.833 250.08 231.153 249.52C231.473 248.96 231.633 248.28 231.633 247.48C231.633 246.68 231.479 246.007 231.173 245.46C230.866 244.9 230.459 244.48 229.953 244.2C229.446 243.92 228.899 243.78 228.313 243.78C227.726 243.78 227.179 243.92 226.673 244.2C226.179 244.48 225.786 244.9 225.493 245.46C225.199 246.007 225.053 246.68 225.053 247.48C225.053 248.667 225.353 249.587 225.953 250.24C226.566 250.88 227.333 251.2 228.253 251.2ZM238.507 243.58C238.84 243.02 239.28 242.587 239.827 242.28C240.387 241.96 241.047 241.8 241.807 241.8V244.16H241.227C240.333 244.16 239.653 244.387 239.187 244.84C238.733 245.293 238.507 246.08 238.507 247.2V253H236.227V241.98H238.507V243.58ZM253.822 241.98L247.062 258.18H244.702L246.942 252.82L242.602 241.98H245.142L248.242 250.38L251.462 241.98H253.822Z" fill="#010010"/>
<rect x="0.75" y="0.75" width="298.5" height="388.5" rx="19.25" stroke="#C39EFF" stroke-width="1.5"/>
</svg>
