<svg width="69" height="46" viewBox="0 0 69 46" fill="none" xmlns="http://www.w3.org/2000/svg">
<path d="M6.34482 42L4.58482 39.18H3.77482V42H2.63482V34.94H5.12482C5.93149 34.94 6.54149 35.1367 6.95482 35.53C7.37482 35.9233 7.58482 36.4433 7.58482 37.09C7.58482 37.6433 7.42816 38.0967 7.11482 38.45C6.80816 38.8033 6.36149 39.03 5.77482 39.13L7.62482 42H6.34482ZM3.77482 38.37H5.03482C5.95482 38.37 6.41482 37.9633 6.41482 37.15C6.41482 36.7633 6.30149 36.4633 6.07482 36.25C5.85482 36.03 5.50816 35.92 5.03482 35.92H3.77482V38.37ZM13.7314 38.98C13.7314 39.1667 13.7181 39.33 13.6914 39.47H9.45139C9.47139 40.0367 9.62805 40.4567 9.92139 40.73C10.2147 41.0033 10.5781 41.14 11.0114 41.14C11.3914 41.14 11.7114 41.0433 11.9714 40.85C12.2381 40.6567 12.4014 40.4 12.4614 40.08H13.6814C13.6081 40.4667 13.4547 40.81 13.2214 41.11C12.9881 41.41 12.6847 41.6467 12.3114 41.82C11.9381 41.9867 11.5214 42.07 11.0614 42.07C10.5281 42.07 10.0547 41.9567 9.64139 41.73C9.23472 41.5033 8.91472 41.1767 8.68139 40.75C8.44805 40.3233 8.33139 39.82 8.33139 39.24C8.33139 38.6667 8.44805 38.1667 8.68139 37.74C8.91472 37.3133 9.23472 36.9867 9.64139 36.76C10.0547 36.5333 10.5281 36.42 11.0614 36.42C11.6014 36.42 12.0714 36.5333 12.4714 36.76C12.8781 36.98 13.1881 37.2867 13.4014 37.68C13.6214 38.0667 13.7314 38.5 13.7314 38.98ZM12.5814 38.95C12.5947 38.59 12.5314 38.29 12.3914 38.05C12.2581 37.8033 12.0714 37.6233 11.8314 37.51C11.5981 37.39 11.3414 37.33 11.0614 37.33C10.6147 37.33 10.2414 37.4667 9.94139 37.74C9.64139 38.0133 9.47805 38.4167 9.45139 38.95H12.5814ZM17.2821 36.42C17.9954 36.42 18.5854 36.61 19.0521 36.99C19.5188 37.3633 19.8088 37.8733 19.9221 38.52H18.7121C18.6454 38.1733 18.4821 37.9033 18.2221 37.71C17.9688 37.51 17.6488 37.41 17.2621 37.41C16.8221 37.41 16.4554 37.5667 16.1621 37.88C15.8688 38.1867 15.7221 38.64 15.7221 39.24C15.7221 39.84 15.8688 40.2967 16.1621 40.61C16.4554 40.9233 16.8221 41.08 17.2621 41.08C17.6488 41.08 17.9688 40.98 18.2221 40.78C18.4821 40.58 18.6454 40.3067 18.7121 39.96H19.9221C19.8088 40.6067 19.5188 41.12 19.0521 41.5C18.5854 41.88 17.9954 42.07 17.2821 42.07C16.7488 42.07 16.2754 41.9567 15.8621 41.73C15.4554 41.5033 15.1354 41.1767 14.9021 40.75C14.6688 40.3233 14.5521 39.82 14.5521 39.24C14.5521 38.6667 14.6688 38.1667 14.9021 37.74C15.1354 37.3133 15.4554 36.9867 15.8621 36.76C16.2754 36.5333 16.7488 36.42 17.2821 36.42ZM23.5435 36.42C24.0768 36.42 24.5568 36.5333 24.9835 36.76C25.4102 36.9867 25.7435 37.3133 25.9835 37.74C26.2235 38.1667 26.3435 38.6667 26.3435 39.24C26.3435 39.82 26.2235 40.3233 25.9835 40.75C25.7435 41.1767 25.4102 41.5033 24.9835 41.73C24.5568 41.9567 24.0768 42.07 23.5435 42.07C23.0102 42.07 22.5302 41.9567 22.1035 41.73C21.6835 41.5033 21.3502 41.1767 21.1035 40.75C20.8635 40.3167 20.7435 39.8133 20.7435 39.24C20.7435 38.6667 20.8635 38.1667 21.1035 37.74C21.3502 37.3133 21.6835 36.9867 22.1035 36.76C22.5302 36.5333 23.0102 36.42 23.5435 36.42ZM23.5435 37.41C23.2502 37.41 22.9802 37.4767 22.7335 37.61C22.4868 37.7433 22.2868 37.95 22.1335 38.23C21.9868 38.5033 21.9135 38.84 21.9135 39.24C21.9135 39.6467 21.9868 39.9867 22.1335 40.26C22.2868 40.5333 22.4868 40.7367 22.7335 40.87C22.9802 41.0033 23.2502 41.07 23.5435 41.07C23.8368 41.07 24.1068 41.0033 24.3535 40.87C24.6002 40.7367 24.7968 40.5333 24.9435 40.26C25.0968 39.9867 25.1735 39.6467 25.1735 39.24C25.1735 38.84 25.0968 38.5033 24.9435 38.23C24.7968 37.95 24.6002 37.7433 24.3535 37.61C24.1068 37.4767 23.8368 37.41 23.5435 37.41ZM34.3295 36.4C34.9828 36.4 35.5028 36.6067 35.8895 37.02C36.2828 37.4333 36.4795 38.0233 36.4795 38.79V42H35.3395V38.91C35.3395 38.43 35.2195 38.06 34.9795 37.8C34.7395 37.5333 34.4095 37.4 33.9895 37.4C33.5428 37.4 33.1862 37.5433 32.9195 37.83C32.6595 38.11 32.5295 38.5233 32.5295 39.07V42H31.3895V38.91C31.3895 38.43 31.2695 38.06 31.0295 37.8C30.7895 37.5333 30.4595 37.4 30.0395 37.4C29.5928 37.4 29.2362 37.5433 28.9695 37.83C28.7095 38.11 28.5795 38.5233 28.5795 39.07V42H27.4395V36.49H28.5795V37.64C28.7195 37.24 28.9528 36.9333 29.2795 36.72C29.6062 36.5067 29.9895 36.4 30.4295 36.4C30.8895 36.4 31.2862 36.5133 31.6195 36.74C31.9595 36.9667 32.2062 37.2933 32.3595 37.72C32.5195 37.3067 32.7762 36.9833 33.1295 36.75C33.4828 36.5167 33.8828 36.4 34.3295 36.4ZM44.7006 36.4C45.3539 36.4 45.8739 36.6067 46.2606 37.02C46.6539 37.4333 46.8506 38.0233 46.8506 38.79V42H45.7106V38.91C45.7106 38.43 45.5906 38.06 45.3506 37.8C45.1106 37.5333 44.7806 37.4 44.3606 37.4C43.9139 37.4 43.5573 37.5433 43.2906 37.83C43.0306 38.11 42.9006 38.5233 42.9006 39.07V42H41.7606V38.91C41.7606 38.43 41.6406 38.06 41.4006 37.8C41.1606 37.5333 40.8306 37.4 40.4106 37.4C39.9639 37.4 39.6073 37.5433 39.3406 37.83C39.0806 38.11 38.9506 38.5233 38.9506 39.07V42H37.8106V36.49H38.9506V37.64C39.0906 37.24 39.3239 36.9333 39.6506 36.72C39.9773 36.5067 40.3606 36.4 40.8006 36.4C41.2606 36.4 41.6573 36.5133 41.9906 36.74C42.3306 36.9667 42.5773 37.2933 42.7306 37.72C42.8906 37.3067 43.1473 36.9833 43.5006 36.75C43.8539 36.5167 44.2539 36.4 44.7006 36.4ZM53.3017 38.98C53.3017 39.1667 53.2884 39.33 53.2617 39.47H49.0217C49.0417 40.0367 49.1984 40.4567 49.4917 40.73C49.785 41.0033 50.1484 41.14 50.5817 41.14C50.9617 41.14 51.2817 41.0433 51.5417 40.85C51.8084 40.6567 51.9717 40.4 52.0317 40.08H53.2517C53.1784 40.4667 53.025 40.81 52.7917 41.11C52.5584 41.41 52.255 41.6467 51.8817 41.82C51.5084 41.9867 51.0917 42.07 50.6317 42.07C50.0984 42.07 49.625 41.9567 49.2117 41.73C48.805 41.5033 48.485 41.1767 48.2517 40.75C48.0184 40.3233 47.9017 39.82 47.9017 39.24C47.9017 38.6667 48.0184 38.1667 48.2517 37.74C48.485 37.3133 48.805 36.9867 49.2117 36.76C49.625 36.5333 50.0984 36.42 50.6317 36.42C51.1717 36.42 51.6417 36.5333 52.0417 36.76C52.4484 36.98 52.7584 37.2867 52.9717 37.68C53.1917 38.0667 53.3017 38.5 53.3017 38.98ZM52.1517 38.95C52.165 38.59 52.1017 38.29 51.9617 38.05C51.8284 37.8033 51.6417 37.6233 51.4017 37.51C51.1684 37.39 50.9117 37.33 50.6317 37.33C50.185 37.33 49.8117 37.4667 49.5117 37.74C49.2117 38.0133 49.0484 38.4167 49.0217 38.95H52.1517ZM57.4824 36.4C58.1224 36.4 58.6357 36.6067 59.0224 37.02C59.4091 37.4333 59.6024 38.0233 59.6024 38.79V42H58.4624V38.91C58.4624 38.4167 58.3357 38.0367 58.0824 37.77C57.8291 37.4967 57.4824 37.36 57.0424 37.36C56.5891 37.36 56.2257 37.5067 55.9524 37.8C55.6791 38.0867 55.5424 38.51 55.5424 39.07V42H54.4024V36.49H55.5424V37.7C55.6891 37.2867 55.9357 36.9667 56.2824 36.74C56.6291 36.5133 57.0291 36.4 57.4824 36.4ZM63.1456 36.42C63.6456 36.42 64.0723 36.5433 64.4256 36.79C64.7789 37.0367 65.0256 37.3633 65.1656 37.77V34.6H66.3156V42H65.1656V40.72C65.0256 41.1267 64.7789 41.4533 64.4256 41.7C64.0723 41.9467 63.6456 42.07 63.1456 42.07C62.6656 42.07 62.2356 41.9567 61.8556 41.73C61.4823 41.5033 61.1889 41.1767 60.9756 40.75C60.7623 40.3233 60.6556 39.82 60.6556 39.24C60.6556 38.6667 60.7623 38.1667 60.9756 37.74C61.1889 37.3133 61.4823 36.9867 61.8556 36.76C62.2356 36.5333 62.6656 36.42 63.1456 36.42ZM63.4956 37.42C62.9889 37.42 62.5823 37.5833 62.2756 37.91C61.9756 38.23 61.8256 38.6733 61.8256 39.24C61.8256 39.8067 61.9756 40.2533 62.2756 40.58C62.5823 40.9 62.9889 41.06 63.4956 41.06C63.8156 41.06 64.1023 40.9867 64.3556 40.84C64.6089 40.6867 64.8089 40.4733 64.9556 40.2C65.1023 39.9267 65.1756 39.6067 65.1756 39.24C65.1756 38.88 65.1023 38.5633 64.9556 38.29C64.8089 38.01 64.6089 37.7967 64.3556 37.65C64.1023 37.4967 63.8156 37.42 63.4956 37.42Z" fill="white"/>
<path d="M40.3569 10.8967C41.7519 10.7007 42.8259 9.50473 42.8289 8.05573C42.8289 6.62773 41.7879 5.44373 40.4229 5.21973" stroke="white" stroke-width="1.5" stroke-linecap="round" stroke-linejoin="round"/>
<path d="M42.1978 14.2502C43.5488 14.4522 44.4918 14.9252 44.4918 15.9002C44.4918 16.5712 44.0478 17.0072 43.3298 17.2812" stroke="white" stroke-width="1.5" stroke-linecap="round" stroke-linejoin="round"/>
<path fill-rule="evenodd" clip-rule="evenodd" d="M34.356 14.6638C31.142 14.6638 28.397 15.1508 28.397 17.0958C28.397 19.0398 31.125 19.5408 34.356 19.5408C37.57 19.5408 40.314 19.0588 40.314 17.1128C40.314 15.1668 37.587 14.6638 34.356 14.6638Z" stroke="white" stroke-width="1.5" stroke-linecap="round" stroke-linejoin="round"/>
<path fill-rule="evenodd" clip-rule="evenodd" d="M34.3561 11.8879C36.4651 11.8879 38.1751 10.1789 38.1751 8.06888C38.1751 5.95988 36.4651 4.24988 34.3561 4.24988C32.2471 4.24988 30.5371 5.95988 30.5371 8.06888C30.5291 10.1709 32.2261 11.8809 34.3281 11.8879H34.3561Z" stroke="white" stroke-width="1.5" stroke-linecap="round" stroke-linejoin="round"/>
<path d="M28.3543 10.8967C26.9583 10.7007 25.8853 9.50473 25.8823 8.05573C25.8823 6.62773 26.9233 5.44373 28.2883 5.21973" stroke="white" stroke-width="1.5" stroke-linecap="round" stroke-linejoin="round"/>
<path d="M26.5132 14.2502C25.1622 14.4522 24.2192 14.9252 24.2192 15.9002C24.2192 16.5712 24.6632 17.0072 25.3812 17.2812" stroke="white" stroke-width="1.5" stroke-linecap="round" stroke-linejoin="round"/>
</svg>
