<svg width="69" height="47" viewBox="0 0 69 47" fill="none" xmlns="http://www.w3.org/2000/svg">
<path d="M18.5617 42L16.4497 38.616H15.4777V42H14.1097V33.528H17.0977C18.0657 33.528 18.7977 33.764 19.2937 34.236C19.7977 34.708 20.0497 35.332 20.0497 36.108C20.0497 36.772 19.8617 37.316 19.4857 37.74C19.1177 38.164 18.5817 38.436 17.8777 38.556L20.0977 42H18.5617ZM15.4777 37.644H16.9897C18.0937 37.644 18.6457 37.156 18.6457 36.18C18.6457 35.716 18.5097 35.356 18.2377 35.1C17.9737 34.836 17.5577 34.704 16.9897 34.704H15.4777V37.644ZM27.4256 38.376C27.4256 38.6 27.4096 38.796 27.3776 38.964H22.2896C22.3136 39.644 22.5016 40.148 22.8536 40.476C23.2056 40.804 23.6416 40.968 24.1616 40.968C24.6176 40.968 25.0016 40.852 25.3136 40.62C25.6336 40.388 25.8296 40.08 25.9016 39.696H27.3656C27.2776 40.16 27.0936 40.572 26.8136 40.932C26.5336 41.292 26.1696 41.576 25.7216 41.784C25.2736 41.984 24.7736 42.084 24.2216 42.084C23.5816 42.084 23.0136 41.948 22.5176 41.676C22.0296 41.404 21.6456 41.012 21.3656 40.5C21.0856 39.988 20.9456 39.384 20.9456 38.688C20.9456 38 21.0856 37.4 21.3656 36.888C21.6456 36.376 22.0296 35.984 22.5176 35.712C23.0136 35.44 23.5816 35.304 24.2216 35.304C24.8696 35.304 25.4336 35.44 25.9136 35.712C26.4016 35.976 26.7736 36.344 27.0296 36.816C27.2936 37.28 27.4256 37.8 27.4256 38.376ZM26.0456 38.34C26.0616 37.908 25.9856 37.548 25.8176 37.26C25.6576 36.964 25.4336 36.748 25.1456 36.612C24.8656 36.468 24.5576 36.396 24.2216 36.396C23.6856 36.396 23.2376 36.56 22.8776 36.888C22.5176 37.216 22.3216 37.7 22.2896 38.34H26.0456ZM31.4585 40.584L33.3305 35.388H34.7945L32.2745 42H30.6185L28.0985 35.388H29.5625L31.4585 40.584ZM35.6091 33.468C35.6091 33.236 35.6891 33.044 35.8491 32.892C36.0091 32.74 36.2211 32.664 36.4851 32.664C36.7491 32.664 36.9611 32.74 37.1211 32.892C37.2891 33.044 37.3731 33.236 37.3731 33.468C37.3731 33.7 37.2891 33.888 37.1211 34.032C36.9611 34.176 36.7491 34.248 36.4851 34.248C36.2211 34.248 36.0091 34.176 35.8491 34.032C35.6891 33.888 35.6091 33.7 35.6091 33.468ZM37.1691 35.388V42H35.8011V35.388H37.1691ZM44.9686 38.376C44.9686 38.6 44.9526 38.796 44.9206 38.964H39.8326C39.8566 39.644 40.0446 40.148 40.3966 40.476C40.7486 40.804 41.1846 40.968 41.7046 40.968C42.1606 40.968 42.5446 40.852 42.8566 40.62C43.1766 40.388 43.3726 40.08 43.4446 39.696H44.9086C44.8206 40.16 44.6366 40.572 44.3566 40.932C44.0766 41.292 43.7126 41.576 43.2646 41.784C42.8166 41.984 42.3166 42.084 41.7646 42.084C41.1246 42.084 40.5566 41.948 40.0606 41.676C39.5726 41.404 39.1886 41.012 38.9086 40.5C38.6286 39.988 38.4886 39.384 38.4886 38.688C38.4886 38 38.6286 37.4 38.9086 36.888C39.1886 36.376 39.5726 35.984 40.0606 35.712C40.5566 35.44 41.1246 35.304 41.7646 35.304C42.4126 35.304 42.9766 35.44 43.4566 35.712C43.9446 35.976 44.3166 36.344 44.5726 36.816C44.8366 37.28 44.9686 37.8 44.9686 38.376ZM43.5886 38.34C43.6046 37.908 43.5286 37.548 43.3606 37.26C43.2006 36.964 42.9766 36.748 42.6886 36.612C42.4086 36.468 42.1006 36.396 41.7646 36.396C41.2286 36.396 40.7806 36.56 40.4206 36.888C40.0606 37.216 39.8646 37.7 39.8326 38.34H43.5886ZM55.5534 35.388L53.7174 42H52.2054L50.5734 36.888L48.9174 42H47.4174L45.5814 35.388H46.9614L48.2214 40.74L49.8774 35.388H51.3174L52.9974 40.74L54.2574 35.388H55.5534Z" fill="white"/>
<g clip-path="url(#clip0_3481_20159)">
<path d="M30.8269 6.07881L33.4204 0.9405C33.4702 0.837132 33.5481 0.749827 33.645 0.688524C33.742 0.627221 33.8543 0.594383 33.969 0.59375C34.1864 0.59375 34.4037 0.708938 34.5212 0.9405L37.1147 6.07881L42.9311 6.90531C43.0761 6.9281 43.2088 7.00021 43.3068 7.10945C43.4048 7.2187 43.4621 7.35841 43.469 7.505C43.4773 7.6026 43.4635 7.7008 43.4285 7.7923C43.3936 7.8838 43.3384 7.96623 43.2672 8.03344L39.0836 12.0187L40.0692 17.6356C40.1619 18.1616 39.6417 18.5737 39.1834 18.3386L33.969 15.6596L28.7571 18.3386C28.7026 18.3669 28.6442 18.3869 28.5837 18.3979C28.1776 18.4692 27.7905 18.0963 27.8712 17.6356L28.8569 12.0187L24.6745 8.03344C24.6095 7.97192 24.5578 7.8977 24.5226 7.81538C24.4875 7.73305 24.4697 7.64438 24.4702 7.55488C24.4703 7.42833 24.5052 7.30425 24.5712 7.19625C24.618 7.11796 24.6817 7.05117 24.7578 7.00081C24.8338 6.95046 24.9202 6.91782 25.0105 6.90531L30.8269 6.07881ZM33.969 14.2821C34.0649 14.2817 34.1594 14.3045 34.2445 14.3486L38.6217 16.5977L37.7975 11.8988C37.7781 11.7907 37.7855 11.6795 37.819 11.5749C37.8525 11.4704 37.9112 11.3756 37.9899 11.2991L41.442 8.00969L36.6302 7.32569C36.5306 7.31064 36.4361 7.27167 36.3548 7.21211C36.2735 7.15254 36.2079 7.07417 36.1635 6.98369L33.9702 2.63981L33.969 2.64338V14.2809V14.2821Z" fill="white"/>
</g>
<defs>
<clipPath id="clip0_3481_20159">
<rect width="19" height="19" fill="white" transform="translate(24.4692)"/>
</clipPath>
</defs>
</svg>
