<svg width="24" height="24" viewBox="0 0 24 24" fill="none" xmlns="http://www.w3.org/2000/svg">
<g filter="url(#filter0_di_3445_26519)">
<path d="M21.0918 10.2812C21.0918 5.10438 17.0209 0.90625 12 0.90625C6.97814 0.90625 2.90723 5.10437 2.90723 10.2831C2.90723 15.4609 6.97814 19.6591 12 19.6591C17.0209 19.6581 21.0909 15.46 21.0909 10.2822L21.0918 10.2812ZM8.13723 8.40625C8.1311 8.24854 8.15594 8.09118 8.21024 7.94361C8.26455 7.79604 8.3472 7.6613 8.45324 7.54748C8.55928 7.43366 8.68652 7.34311 8.82734 7.28125C8.96815 7.21939 9.11963 7.18751 9.27268 7.18751C9.42574 7.18751 9.57721 7.21939 9.71803 7.28125C9.85884 7.34311 9.98608 7.43366 10.0921 7.54748C10.1982 7.6613 10.2808 7.79604 10.3351 7.94361C10.3894 8.09118 10.4143 8.24854 10.4081 8.40625C10.3964 8.70869 10.2716 8.99472 10.06 9.20443C9.84832 9.41414 9.56619 9.53126 9.27268 9.53126C8.97917 9.53126 8.69704 9.41414 8.48538 9.20443C8.27373 8.99472 8.14896 8.70869 8.13723 8.40625ZM13.5918 8.40625C13.5857 8.24854 13.6105 8.09118 13.6648 7.94361C13.7191 7.79604 13.8017 7.6613 13.9078 7.54748C14.0138 7.43366 14.1411 7.34311 14.2819 7.28125C14.4227 7.21939 14.5742 7.18751 14.7272 7.18751C14.8803 7.18751 15.0318 7.21939 15.1726 7.28125C15.3134 7.34311 15.4406 7.43366 15.5467 7.54748C15.6527 7.6613 15.7354 7.79604 15.7897 7.94361C15.844 8.09118 15.8688 8.24854 15.8627 8.40625C15.8509 8.70869 15.7262 8.99472 15.5145 9.20443C15.3029 9.41414 15.0207 9.53126 14.7272 9.53126C14.4337 9.53126 14.1516 9.41414 13.9399 9.20443C13.7283 8.99472 13.6035 8.70869 13.5918 8.40625ZM15.4081 12.1562H15.9536C16.1344 12.1562 16.3078 12.2303 16.4357 12.3622C16.5636 12.4941 16.6354 12.6729 16.6354 12.8594C16.6354 13.0459 16.5636 13.2247 16.4357 13.3566C16.3078 13.4884 16.1344 13.5625 15.9536 13.5625H15.4081C14.8463 13.5625 14.1927 13.7125 13.5927 13.9544C12.9836 14.1981 12.5036 14.5056 12.2545 14.7625C12.1921 14.8316 12.1168 14.887 12.0332 14.9254C11.9495 14.9639 11.8592 14.9845 11.7677 14.9862C11.6762 14.9878 11.5852 14.9705 11.5003 14.9351C11.4154 14.8998 11.3383 14.8471 11.2736 14.7803C11.2088 14.7136 11.1578 14.634 11.1235 14.5465C11.0892 14.4589 11.0723 14.3652 11.074 14.2708C11.0756 14.1764 11.0956 14.0832 11.1329 13.997C11.1701 13.9107 11.2239 13.8331 11.2909 13.7688C11.7227 13.3225 12.3927 12.9269 13.0981 12.6438C13.8118 12.3569 14.6354 12.1562 15.4081 12.1562Z" fill="url(#paint0_linear_3445_26519)"/>
</g>
<defs>
<filter id="filter0_di_3445_26519" x="0.907227" y="-1.09375" width="22.1846" height="24.7529" filterUnits="userSpaceOnUse" color-interpolation-filters="sRGB">
<feFlood flood-opacity="0" result="BackgroundImageFix"/>
<feColorMatrix in="SourceAlpha" type="matrix" values="0 0 0 0 0 0 0 0 0 0 0 0 0 0 0 0 0 0 127 0" result="hardAlpha"/>
<feOffset dy="2"/>
<feGaussianBlur stdDeviation="1"/>
<feComposite in2="hardAlpha" operator="out"/>
<feColorMatrix type="matrix" values="0 0 0 0 0.779167 0 0 0 0 1 0 0 0 0 0.894602 0 0 0 1 0"/>
<feBlend mode="normal" in2="BackgroundImageFix" result="effect1_dropShadow_3445_26519"/>
<feBlend mode="normal" in="SourceGraphic" in2="effect1_dropShadow_3445_26519" result="shape"/>
<feColorMatrix in="SourceAlpha" type="matrix" values="0 0 0 0 0 0 0 0 0 0 0 0 0 0 0 0 0 0 127 0" result="hardAlpha"/>
<feOffset dx="-2" dy="-2"/>
<feGaussianBlur stdDeviation="1"/>
<feComposite in2="hardAlpha" operator="arithmetic" k2="-1" k3="1"/>
<feColorMatrix type="matrix" values="0 0 0 0 0.222396 0 0 0 0 0.7625 0 0 0 0 0.502093 0 0 0 1 0"/>
<feBlend mode="normal" in2="shape" result="effect2_innerShadow_3445_26519"/>
</filter>
<linearGradient id="paint0_linear_3445_26519" x1="2.90723" y1="10.2827" x2="21.0918" y2="10.2827" gradientUnits="userSpaceOnUse">
<stop stop-color="#6DD7A4"/>
<stop offset="1" stop-color="#3EC684"/>
</linearGradient>
</defs>
</svg>
