<svg width="24" height="24" viewBox="0 0 24 24" fill="none" xmlns="http://www.w3.org/2000/svg">
<g filter="url(#filter0_d_3445_26501)">
<g filter="url(#filter1_i_3445_26501)">
<path d="M8.68753 9.0625C7.50003 13.6562 6.96878 17.7188 9.56253 17.7188C12.3125 17.7188 12.0313 13.6562 12.0313 8.96875C12.0313 4.28125 12.1563 0.625 10.75 0.625C9.21878 0.625 9.84378 4.59375 8.68753 9.0625Z" fill="#F2D2AC"/>
<path d="M8.719 14.7812C11.719 14.7812 11.8127 13.3125 11.8127 8.65625C11.8127 5.03125 11.9065 1.96875 11.219 0.8125C12.2502 1.59375 12.094 4.9375 12.094 9C12.094 13.6562 13.1877 17.75 10.1877 17.75C9.5315 17.7188 8.25025 14.7812 8.719 14.7812Z" fill="#E6B796"/>
<path d="M13.2502 0.625C11.8127 0.625 11.9377 4.34375 11.9377 9C11.9377 13.6562 11.6877 17.75 14.4064 17.75C17.0002 17.75 16.4689 13.6562 15.2814 9.09375C14.1564 4.59375 14.7814 0.625 13.2502 0.625Z" fill="#F2D2AC"/>
<path d="M13.8127 17.7188C10.8127 17.7188 11.9064 13.625 11.9064 8.96875C11.9064 4.90625 11.7814 1.5625 12.7814 0.78125C12.0939 1.9375 12.1877 5 12.1877 8.625C12.1877 13.2812 12.2502 14.75 15.2814 14.75C15.7502 14.7812 14.4689 17.7188 13.8127 17.7188Z" fill="#E6B796"/>
<path d="M6.09375 14.9063L8.46875 19.0625L11.1562 17.6562L7.9375 12.5C7.9375 12.5 7.125 14.5 6.09375 14.9063Z" fill="#F2D2AC"/>
<path d="M8.53125 11.9375C8.21875 12.4375 8.09375 14.7188 6.625 15.3125L8.34375 18.8125C8.34375 18.8125 10.25 18.3438 11 17.875C13.0937 16.5938 10.7188 15.0625 11.9375 12.2187C12.625 10.625 11.375 6.875 9.875 6.875C8.375 6.875 9.0625 9.03125 8.9375 9.59375C8.75 10.25 8.8125 11.0938 8.53125 11.9375Z" fill="#FFE1BD"/>
<path d="M10.9063 17.625C13 16.3438 10.4062 14.8125 11.625 12C12.1563 10.75 11.4688 8.09375 10.4375 7.0625C11.6563 7.84375 12.5938 10.7812 11.9688 12.2187C10.7188 15.0312 13.375 16.5312 11.2188 17.8438C11.0625 17.9375 9.875 18.4688 8.5 19.0625L8.28125 18.6562C9.78125 18.2188 10.7813 17.6875 10.9063 17.625Z" fill="#E6B796"/>
<path d="M16.0625 12.5L12.8438 17.6562L15.5312 19.0625L17.9062 14.9375C16.875 14.5 16.0625 12.5 16.0625 12.5Z" fill="#F2D2AC"/>
<path d="M15.0939 9.5625C14.9376 9 15.6564 6.84375 14.1564 6.84375C12.6251 6.875 11.3751 10.625 12.0626 12.2188C13.2814 15.0625 10.9064 16.5938 13.0001 17.875C13.7501 18.3438 15.6564 18.8125 15.6564 18.8125L17.3751 15.3125C15.9064 14.6875 15.7813 12.4375 15.4688 11.9375C15.1876 11.0938 15.2501 10.25 15.0939 9.5625Z" fill="#FFE1BD"/>
<path d="M15.7188 18.6562L15.5313 19.0625C14.1563 18.4688 12.9688 17.9375 12.8125 17.8438C10.6563 16.5 13.3125 15.0312 12.0625 12.2187C11.4375 10.7812 12.375 7.8125 13.5938 7.0625C12.5313 8.09375 11.8438 10.7188 12.4063 12C13.625 14.8438 11.0313 16.3438 13.125 17.625C13.2188 17.6875 14.2188 18.2188 15.7188 18.6562Z" fill="#E6B796"/>
</g>
<g filter="url(#filter2_i_3445_26501)">
<path d="M2.625 17.2812V19.375H9.5625C10.3438 17.875 5.9375 14.5 5.9375 14.5L2.625 17.2812Z" fill="url(#paint0_linear_3445_26501)"/>
<path d="M18.0626 14.5C18.0626 14.5 13.6563 17.875 14.4376 19.375H21.3751V17.2812L18.0626 14.5Z" fill="url(#paint1_linear_3445_26501)"/>
</g>
</g>
<defs>
<filter id="filter0_d_3445_26501" x="0.625" y="0.625" width="22.75" height="22.75" filterUnits="userSpaceOnUse" color-interpolation-filters="sRGB">
<feFlood flood-opacity="0" result="BackgroundImageFix"/>
<feColorMatrix in="SourceAlpha" type="matrix" values="0 0 0 0 0 0 0 0 0 0 0 0 0 0 0 0 0 0 127 0" result="hardAlpha"/>
<feOffset dy="2"/>
<feGaussianBlur stdDeviation="1"/>
<feComposite in2="hardAlpha" operator="out"/>
<feColorMatrix type="matrix" values="0 0 0 0 0.898438 0 0 0 0 0.8375 0 0 0 0 1 0 0 0 1 0"/>
<feBlend mode="normal" in2="BackgroundImageFix" result="effect1_dropShadow_3445_26501"/>
<feBlend mode="normal" in="SourceGraphic" in2="effect1_dropShadow_3445_26501" result="shape"/>
</filter>
<filter id="filter1_i_3445_26501" x="4.09375" y="-1.375" width="13.8125" height="20.4375" filterUnits="userSpaceOnUse" color-interpolation-filters="sRGB">
<feFlood flood-opacity="0" result="BackgroundImageFix"/>
<feBlend mode="normal" in="SourceGraphic" in2="BackgroundImageFix" result="shape"/>
<feColorMatrix in="SourceAlpha" type="matrix" values="0 0 0 0 0 0 0 0 0 0 0 0 0 0 0 0 0 0 127 0" result="hardAlpha"/>
<feOffset dx="-2" dy="-2"/>
<feGaussianBlur stdDeviation="1"/>
<feComposite in2="hardAlpha" operator="arithmetic" k2="-1" k3="1"/>
<feColorMatrix type="matrix" values="0 0 0 0 0.904167 0 0 0 0 0.73532 0 0 0 0 0.519896 0 0 0 1 0"/>
<feBlend mode="normal" in2="shape" result="effect1_innerShadow_3445_26501"/>
</filter>
<filter id="filter2_i_3445_26501" x="0.625" y="12.5" width="20.75" height="6.875" filterUnits="userSpaceOnUse" color-interpolation-filters="sRGB">
<feFlood flood-opacity="0" result="BackgroundImageFix"/>
<feBlend mode="normal" in="SourceGraphic" in2="BackgroundImageFix" result="shape"/>
<feColorMatrix in="SourceAlpha" type="matrix" values="0 0 0 0 0 0 0 0 0 0 0 0 0 0 0 0 0 0 127 0" result="hardAlpha"/>
<feOffset dx="-2" dy="-2"/>
<feGaussianBlur stdDeviation="1"/>
<feComposite in2="hardAlpha" operator="arithmetic" k2="-1" k3="1"/>
<feColorMatrix type="matrix" values="0 0 0 0 0.551896 0 0 0 0 0.326128 0 0 0 0 0.920833 0 0 0 1 0"/>
<feBlend mode="normal" in2="shape" result="effect1_innerShadow_3445_26501"/>
</filter>
<linearGradient id="paint0_linear_3445_26501" x1="2.625" y1="16.9375" x2="9.65534" y2="16.9375" gradientUnits="userSpaceOnUse">
<stop stop-color="#C39EFF"/>
<stop offset="1" stop-color="#A576F3"/>
</linearGradient>
<linearGradient id="paint1_linear_3445_26501" x1="14.3447" y1="16.9375" x2="21.3751" y2="16.9375" gradientUnits="userSpaceOnUse">
<stop stop-color="#C39EFF"/>
<stop offset="1" stop-color="#A576F3"/>
</linearGradient>
</defs>
</svg>
