<svg width="300" height="390" viewBox="0 0 300 390" fill="none" xmlns="http://www.w3.org/2000/svg">
<rect x="100.5" y="109" width="100" height="100" rx="50" fill="#C39EFF"/>
<path d="M143.904 165.744H135.008L133.536 170H128.832L136.864 147.632H142.08L150.112 170H145.376L143.904 165.744ZM142.688 162.16L139.456 152.816L136.224 162.16H142.688ZM151.962 161.072C151.962 159.28 152.314 157.691 153.018 156.304C153.744 154.917 154.714 153.851 155.93 153.104C157.168 152.357 158.544 151.984 160.058 151.984C161.381 151.984 162.533 152.251 163.514 152.784C164.517 153.317 165.317 153.989 165.914 154.8V152.272H170.426V170H165.914V167.408C165.338 168.24 164.538 168.933 163.514 169.488C162.512 170.021 161.349 170.288 160.026 170.288C158.533 170.288 157.168 169.904 155.93 169.136C154.714 168.368 153.744 167.291 153.018 165.904C152.314 164.496 151.962 162.885 151.962 161.072ZM165.914 161.136C165.914 160.048 165.701 159.12 165.274 158.352C164.848 157.563 164.272 156.965 163.546 156.56C162.821 156.133 162.042 155.92 161.21 155.92C160.378 155.92 159.61 156.123 158.906 156.528C158.202 156.933 157.626 157.531 157.178 158.32C156.752 159.088 156.538 160.005 156.538 161.072C156.538 162.139 156.752 163.077 157.178 163.888C157.626 164.677 158.202 165.285 158.906 165.712C159.632 166.139 160.4 166.352 161.21 166.352C162.042 166.352 162.821 166.149 163.546 165.744C164.272 165.317 164.848 164.72 165.274 163.952C165.701 163.163 165.914 162.224 165.914 161.136Z" fill="white"/>
<path d="M57.74 246.02C57.74 244.66 58.0533 243.44 58.68 242.36C59.32 241.28 60.18 240.44 61.26 239.84C62.3533 239.227 63.5467 238.92 64.84 238.92C66.32 238.92 67.6333 239.287 68.78 240.02C69.94 240.74 70.78 241.767 71.3 243.1H68.56C68.2 242.367 67.7 241.82 67.06 241.46C66.42 241.1 65.68 240.92 64.84 240.92C63.92 240.92 63.1 241.127 62.38 241.54C61.66 241.953 61.0933 242.547 60.68 243.32C60.28 244.093 60.08 244.993 60.08 246.02C60.08 247.047 60.28 247.947 60.68 248.72C61.0933 249.493 61.66 250.093 62.38 250.52C63.1 250.933 63.92 251.14 64.84 251.14C65.68 251.14 66.42 250.96 67.06 250.6C67.7 250.24 68.2 249.693 68.56 248.96H71.3C70.78 250.293 69.94 251.32 68.78 252.04C67.6333 252.76 66.32 253.12 64.84 253.12C63.5333 253.12 62.34 252.82 61.26 252.22C60.18 251.607 59.32 250.76 58.68 249.68C58.0533 248.6 57.74 247.38 57.74 246.02ZM76.2488 243.58C76.5821 243.02 77.0221 242.587 77.5688 242.28C78.1288 241.96 78.7888 241.8 79.5488 241.8V244.16H78.9688C78.0754 244.16 77.3954 244.387 76.9288 244.84C76.4754 245.293 76.2488 246.08 76.2488 247.2V253H73.9688V241.98H76.2488V243.58ZM91.7445 247.22C91.7445 247.633 91.7179 248.007 91.6645 248.34H83.2445C83.3112 249.22 83.6379 249.927 84.2245 250.46C84.8112 250.993 85.5312 251.26 86.3845 251.26C87.6112 251.26 88.4779 250.747 88.9845 249.72H91.4445C91.1112 250.733 90.5045 251.567 89.6245 252.22C88.7579 252.86 87.6779 253.18 86.3845 253.18C85.3312 253.18 84.3845 252.947 83.5445 252.48C82.7179 252 82.0645 251.333 81.5845 250.48C81.1179 249.613 80.8845 248.613 80.8845 247.48C80.8845 246.347 81.1112 245.353 81.5645 244.5C82.0312 243.633 82.6779 242.967 83.5045 242.5C84.3445 242.033 85.3045 241.8 86.3845 241.8C87.4245 241.8 88.3512 242.027 89.1645 242.48C89.9779 242.933 90.6112 243.573 91.0645 244.4C91.5179 245.213 91.7445 246.153 91.7445 247.22ZM89.3645 246.5C89.3512 245.66 89.0512 244.987 88.4645 244.48C87.8779 243.973 87.1512 243.72 86.2845 243.72C85.4979 243.72 84.8245 243.973 84.2645 244.48C83.7045 244.973 83.3712 245.647 83.2645 246.5H89.3645ZM93.2283 247.44C93.2283 246.333 93.4549 245.353 93.9083 244.5C94.3749 243.647 95.0016 242.987 95.7883 242.52C96.5883 242.04 97.4683 241.8 98.4283 241.8C99.2949 241.8 100.048 241.973 100.688 242.32C101.342 242.653 101.862 243.073 102.248 243.58V241.98H104.548V253H102.248V251.36C101.862 251.88 101.335 252.313 100.668 252.66C100.002 253.007 99.2416 253.18 98.3883 253.18C97.4416 253.18 96.5749 252.94 95.7883 252.46C95.0016 251.967 94.3749 251.287 93.9083 250.42C93.4549 249.54 93.2283 248.547 93.2283 247.44ZM102.248 247.48C102.248 246.72 102.088 246.06 101.768 245.5C101.462 244.94 101.055 244.513 100.548 244.22C100.042 243.927 99.4949 243.78 98.9083 243.78C98.3216 243.78 97.7749 243.927 97.2683 244.22C96.7616 244.5 96.3483 244.92 96.0283 245.48C95.7216 246.027 95.5683 246.68 95.5683 247.44C95.5683 248.2 95.7216 248.867 96.0283 249.44C96.3483 250.013 96.7616 250.453 97.2683 250.76C97.7883 251.053 98.3349 251.2 98.9083 251.2C99.4949 251.2 100.042 251.053 100.548 250.76C101.055 250.467 101.462 250.04 101.768 249.48C102.088 248.907 102.248 248.24 102.248 247.48ZM110.203 243.84V249.94C110.203 250.353 110.296 250.653 110.483 250.84C110.683 251.013 111.016 251.1 111.483 251.1H112.883V253H111.083C110.056 253 109.27 252.76 108.723 252.28C108.176 251.8 107.903 251.02 107.903 249.94V243.84H106.603V241.98H107.903V239.24H110.203V241.98H112.883V243.84H110.203ZM125.084 247.22C125.084 247.633 125.058 248.007 125.004 248.34H116.584C116.651 249.22 116.978 249.927 117.564 250.46C118.151 250.993 118.871 251.26 119.724 251.26C120.951 251.26 121.818 250.747 122.324 249.72H124.784C124.451 250.733 123.844 251.567 122.964 252.22C122.098 252.86 121.018 253.18 119.724 253.18C118.671 253.18 117.724 252.947 116.884 252.48C116.058 252 115.404 251.333 114.924 250.48C114.458 249.613 114.224 248.613 114.224 247.48C114.224 246.347 114.451 245.353 114.904 244.5C115.371 243.633 116.018 242.967 116.844 242.5C117.684 242.033 118.644 241.8 119.724 241.8C120.764 241.8 121.691 242.027 122.504 242.48C123.318 242.933 123.951 243.573 124.404 244.4C124.858 245.213 125.084 246.153 125.084 247.22ZM122.704 246.5C122.691 245.66 122.391 244.987 121.804 244.48C121.218 243.973 120.491 243.72 119.624 243.72C118.838 243.72 118.164 243.973 117.604 244.48C117.044 244.973 116.711 245.647 116.604 246.5H122.704ZM131.763 247.44C131.763 246.333 131.99 245.353 132.443 244.5C132.91 243.647 133.537 242.987 134.323 242.52C135.123 242.04 136.003 241.8 136.963 241.8C137.83 241.8 138.583 241.973 139.223 242.32C139.877 242.653 140.397 243.073 140.783 243.58V241.98H143.083V253H140.783V251.36C140.397 251.88 139.87 252.313 139.203 252.66C138.537 253.007 137.777 253.18 136.923 253.18C135.977 253.18 135.11 252.94 134.323 252.46C133.537 251.967 132.91 251.287 132.443 250.42C131.99 249.54 131.763 248.547 131.763 247.44ZM140.783 247.48C140.783 246.72 140.623 246.06 140.303 245.5C139.997 244.94 139.59 244.513 139.083 244.22C138.577 243.927 138.03 243.78 137.443 243.78C136.857 243.78 136.31 243.927 135.803 244.22C135.297 244.5 134.883 244.92 134.563 245.48C134.257 246.027 134.103 246.68 134.103 247.44C134.103 248.2 134.257 248.867 134.563 249.44C134.883 250.013 135.297 250.453 135.803 250.76C136.323 251.053 136.87 251.2 137.443 251.2C138.03 251.2 138.577 251.053 139.083 250.76C139.59 250.467 139.997 250.04 140.303 249.48C140.623 248.907 140.783 248.24 140.783 247.48ZM153.933 243.84V249.94C153.933 250.353 154.027 250.653 154.213 250.84C154.413 251.013 154.747 251.1 155.213 251.1H156.613V253H154.813C153.787 253 153 252.76 152.453 252.28C151.907 251.8 151.633 251.02 151.633 249.94V243.84H150.333V241.98H151.633V239.24H153.933V241.98H156.613V243.84H153.933ZM168.815 247.22C168.815 247.633 168.788 248.007 168.735 248.34H160.315C160.382 249.22 160.708 249.927 161.295 250.46C161.882 250.993 162.602 251.26 163.455 251.26C164.682 251.26 165.548 250.747 166.055 249.72H168.515C168.182 250.733 167.575 251.567 166.695 252.22C165.828 252.86 164.748 253.18 163.455 253.18C162.402 253.18 161.455 252.947 160.615 252.48C159.788 252 159.135 251.333 158.655 250.48C158.188 249.613 157.955 248.613 157.955 247.48C157.955 246.347 158.182 245.353 158.635 244.5C159.102 243.633 159.748 242.967 160.575 242.5C161.415 242.033 162.375 241.8 163.455 241.8C164.495 241.8 165.422 242.027 166.235 242.48C167.048 242.933 167.682 243.573 168.135 244.4C168.588 245.213 168.815 246.153 168.815 247.22ZM166.435 246.5C166.422 245.66 166.122 244.987 165.535 244.48C164.948 243.973 164.222 243.72 163.355 243.72C162.568 243.72 161.895 243.973 161.335 244.48C160.775 244.973 160.442 245.647 160.335 246.5H166.435ZM175.779 247.42L179.339 253H176.759L174.379 249.26L172.139 253H169.759L173.319 247.58L169.759 241.98H172.339L174.719 245.72L176.959 241.98H179.339L175.779 247.42ZM183.699 243.84V249.94C183.699 250.353 183.792 250.653 183.979 250.84C184.179 251.013 184.512 251.1 184.979 251.1H186.379V253H184.579C183.552 253 182.766 252.76 182.219 252.28C181.672 251.8 181.399 251.02 181.399 249.94V243.84H180.099V241.98H181.399V239.24H183.699V241.98H186.379V243.84H183.699ZM198.256 253.14C197.322 253.14 196.482 252.98 195.736 252.66C194.989 252.327 194.402 251.86 193.976 251.26C193.549 250.66 193.336 249.96 193.336 249.16H195.776C195.829 249.76 196.062 250.253 196.476 250.64C196.902 251.027 197.496 251.22 198.256 251.22C199.042 251.22 199.656 251.033 200.096 250.66C200.536 250.273 200.756 249.78 200.756 249.18C200.756 248.713 200.616 248.333 200.336 248.04C200.069 247.747 199.729 247.52 199.316 247.36C198.916 247.2 198.356 247.027 197.636 246.84C196.729 246.6 195.989 246.36 195.416 246.12C194.856 245.867 194.376 245.48 193.976 244.96C193.576 244.44 193.376 243.747 193.376 242.88C193.376 242.08 193.576 241.38 193.976 240.78C194.376 240.18 194.936 239.72 195.656 239.4C196.376 239.08 197.209 238.92 198.156 238.92C199.502 238.92 200.602 239.26 201.456 239.94C202.322 240.607 202.802 241.527 202.896 242.7H200.376C200.336 242.193 200.096 241.76 199.656 241.4C199.216 241.04 198.636 240.86 197.916 240.86C197.262 240.86 196.729 241.027 196.316 241.36C195.902 241.693 195.696 242.173 195.696 242.8C195.696 243.227 195.822 243.58 196.076 243.86C196.342 244.127 196.676 244.34 197.076 244.5C197.476 244.66 198.022 244.833 198.716 245.02C199.636 245.273 200.382 245.527 200.956 245.78C201.542 246.033 202.036 246.427 202.436 246.96C202.849 247.48 203.056 248.18 203.056 249.06C203.056 249.767 202.862 250.433 202.476 251.06C202.102 251.687 201.549 252.193 200.816 252.58C200.096 252.953 199.242 253.14 198.256 253.14ZM208.406 243.84V249.94C208.406 250.353 208.499 250.653 208.686 250.84C208.886 251.013 209.219 251.1 209.686 251.1H211.086V253H209.286C208.259 253 207.473 252.76 206.926 252.28C206.379 251.8 206.106 251.02 206.106 249.94V243.84H204.806V241.98H206.106V239.24H208.406V241.98H211.086V243.84H208.406ZM217.968 253.18C216.928 253.18 215.988 252.947 215.148 252.48C214.308 252 213.648 251.333 213.168 250.48C212.688 249.613 212.448 248.613 212.448 247.48C212.448 246.36 212.694 245.367 213.188 244.5C213.681 243.633 214.354 242.967 215.208 242.5C216.061 242.033 217.014 241.8 218.068 241.8C219.121 241.8 220.074 242.033 220.928 242.5C221.781 242.967 222.454 243.633 222.948 244.5C223.441 245.367 223.688 246.36 223.688 247.48C223.688 248.6 223.434 249.593 222.928 250.46C222.421 251.327 221.728 252 220.848 252.48C219.981 252.947 219.021 253.18 217.968 253.18ZM217.968 251.2C218.554 251.2 219.101 251.06 219.608 250.78C220.128 250.5 220.548 250.08 220.868 249.52C221.188 248.96 221.348 248.28 221.348 247.48C221.348 246.68 221.194 246.007 220.888 245.46C220.581 244.9 220.174 244.48 219.668 244.2C219.161 243.92 218.614 243.78 218.028 243.78C217.441 243.78 216.894 243.92 216.388 244.2C215.894 244.48 215.501 244.9 215.208 245.46C214.914 246.007 214.768 246.68 214.768 247.48C214.768 248.667 215.068 249.587 215.668 250.24C216.281 250.88 217.048 251.2 217.968 251.2ZM228.221 243.58C228.555 243.02 228.995 242.587 229.541 242.28C230.101 241.96 230.761 241.8 231.521 241.8V244.16H230.941C230.048 244.16 229.368 244.387 228.901 244.84C228.448 245.293 228.221 246.08 228.221 247.2V253H225.941V241.98H228.221V243.58ZM243.537 241.98L236.777 258.18H234.417L236.657 252.82L232.317 241.98H234.857L237.957 250.38L241.177 241.98H243.537Z" fill="#010010"/>
<rect x="0.75" y="0.75" width="298.5" height="388.5" rx="19.25" stroke="#C39EFF" stroke-width="1.5"/>
</svg>
