<svg width="15" height="15" viewBox="0 0 15 15" fill="none" xmlns="http://www.w3.org/2000/svg">
<path d="M13.3333 15V11.5358C14.375 10.3192 15 8.77 15 7.08333C15 3.17167 11.6417 0 7.5 0C3.35833 0 0 3.17167 0 7.08333C0 10.995 3.35833 14.1667 7.5 14.1667C8.88499 14.1711 10.2461 13.8064 11.4433 13.11L13.3333 15ZM7.5 12.5C4.27833 12.5 1.66667 10.075 1.66667 7.08333C1.66667 4.09167 4.27833 1.66667 7.5 1.66667C10.7217 1.66667 13.3333 4.09167 13.3333 7.08333C13.3333 10.075 10.7217 12.5 7.5 12.5Z" fill="#838383"/>
</svg>
