<svg width="25" height="28" viewBox="0 0 25 28" fill="none" xmlns="http://www.w3.org/2000/svg">
<g clip-path="url(#clip0)">
<path d="M20.3693 14.7476C20.3568 12.461 21.3911 10.7352 23.4845 9.46416C22.3132 7.78815 20.5437 6.86603 18.2073 6.68535C15.9954 6.51089 13.578 7.97506 12.6932 7.97506C11.7586 7.97506 9.61534 6.74765 7.93309 6.74765C4.45644 6.80373 0.761719 9.52023 0.761719 15.0467C0.761719 16.6791 1.06079 18.3655 1.65892 20.1059C2.45643 22.3925 5.33494 28 8.33807 27.9065C9.90817 27.8691 11.0172 26.7912 13.0608 26.7912C15.0421 26.7912 16.0702 27.9065 17.821 27.9065C20.849 27.8629 23.4534 22.7663 24.2135 20.4735C20.1512 18.5607 20.3693 14.866 20.3693 14.7476ZM16.8428 4.51713C18.5437 2.49844 18.388 0.660435 18.3381 0C16.8365 0.0872273 15.0982 1.02181 14.1076 2.17445C13.0172 3.40809 12.3755 4.93457 12.5125 6.65419C14.1387 6.7788 15.6216 5.94391 16.8428 4.51713Z" fill="black"/>
</g>
<defs>
<clipPath id="clip0">
<rect width="24.976" height="28" fill="white"/>
</clipPath>
</defs>
</svg>
