<svg width="48" height="48" viewBox="0 0 110 48" fill="none" xmlns="http://www.w3.org/2000/svg">
<path opacity="0.9" d="M105.381 21.5857C105.416 21.9459 105.434 22.216 105.434 22.3961C105.434 23.2605 105.283 23.8638 104.98 24.2059C104.678 24.5301 104.144 24.6922 103.378 24.6922C102.631 24.6922 102.052 24.6832 101.643 24.6652C100.948 29.7796 100.601 33.4444 100.601 35.6595C100.601 36.722 100.619 37.4874 100.655 37.9556C100.708 38.4418 100.833 39.2612 101.028 40.4138C99.7468 39.9996 98.8034 39.3242 98.1981 38.3878C97.5929 37.4693 97.2903 36.3798 97.2903 35.1192C97.2903 33.2283 97.5573 30.437 98.0913 26.7452C98.2159 25.8087 98.296 25.1874 98.3316 24.8813C97.3882 25.0433 96.427 25.3495 95.4479 25.7997C95.4123 25.4035 95.3945 25.1064 95.3945 24.9083C95.3945 23.9358 95.6882 23.2785 96.2757 22.9363C96.8631 22.5942 97.7086 22.4141 98.8123 22.3961C99.1683 20.6312 99.64 19.1095 100.227 17.8309C100.833 16.5523 101.491 15.5888 102.203 14.9405C103.556 13.6799 104.971 13.0496 106.449 13.0496C107.446 13.0496 108.282 13.3557 108.959 13.968C109.653 14.5623 110 15.3006 110 16.1831C110 17.0475 109.706 17.8039 109.119 18.4522C108.532 19.1005 107.757 19.4246 106.796 19.4246C106.422 19.4246 106.057 19.3616 105.701 19.2355C105.986 19.0194 106.262 18.6413 106.529 18.101C106.814 17.5607 106.956 17.0565 106.956 16.5883C106.956 16.102 106.849 15.7239 106.636 15.4537C106.44 15.1836 106.173 15.0485 105.835 15.0485C105.105 15.0485 104.357 15.6698 103.592 16.9124C102.844 18.137 102.283 19.9919 101.91 22.4771C103.494 22.4771 104.651 22.18 105.381 21.5857Z" fill="#010010"/>
<path opacity="0.9" d="M98.5132 33.097C96.8918 34.6462 93.4131 37.994 92.7139 38.4628C92.0147 38.9316 91.3459 39.166 90.7074 39.166C89.1063 39.166 88.3514 37.7443 88.4426 34.9008C87.4292 36.3582 86.4918 37.4334 85.6304 38.1265C84.7792 38.8195 83.8976 39.166 82.9855 39.166C82.0938 39.166 81.3337 38.7482 80.7055 37.9124C80.0873 37.0665 79.7782 36.032 79.7782 34.809C79.7782 33.2803 80.1937 31.8228 81.0247 30.4368C81.8658 29.0507 82.9399 27.9296 84.2472 27.0735C85.5544 26.2174 86.7097 25.7893 87.7129 25.7893C88.9796 25.7893 89.8663 26.3753 90.373 27.5474L93.4739 25.8199H94.3252L92.9875 30.2992C92.2984 32.5516 91.9539 34.0956 91.9539 34.9313C91.9539 35.8078 92.263 36.2461 92.8811 36.2461C93.2763 36.2461 93.7121 36.0371 94.1884 35.6193C94.6647 35.1912 97.6518 32.2052 98.5132 31.3389V33.097ZM85.068 36.2766C86.0814 36.2766 87.034 35.4103 87.9257 33.6777C88.8276 31.9349 89.2786 30.3297 89.2786 28.8621C89.2786 28.2914 89.1519 27.848 88.8986 27.5321C88.6452 27.206 88.3058 27.0429 87.8801 27.0429C86.8668 27.0429 85.9041 27.9092 84.992 29.6418C84.0901 31.3744 83.6392 32.9694 83.6392 34.4268C83.6392 34.9772 83.7709 35.4256 84.0344 35.7722C84.308 36.1085 84.6525 36.2766 85.068 36.2766Z" fill="#010010"/>
<path d="M94.2012 21.7677C94.1408 21.4659 93.9607 21.2045 93.694 21.0317C93.4947 20.9026 93.2736 20.8448 93.037 20.8599C92.9176 20.8676 92.7973 20.8936 92.6778 20.9376C92.6677 20.8097 92.6411 20.6884 92.5983 20.5756C92.5135 20.3523 92.3694 20.1736 92.1701 20.0444C91.9034 19.8716 91.5928 19.8152 91.2956 19.8854C91.002 19.9548 90.7448 20.143 90.5715 20.4152C90.3931 20.6955 90.3387 21.0225 90.4001 21.4444C90.4551 21.8218 90.5992 22.2621 90.766 22.772C90.823 22.9461 90.8875 23.1435 90.9527 23.3514C90.9699 23.4063 91.0064 23.4541 91.0556 23.486C91.1047 23.5178 91.163 23.5315 91.2196 23.5244C91.4341 23.4976 91.639 23.4747 91.8197 23.4545C92.3486 23.3955 92.8054 23.3445 93.1685 23.2379C93.5744 23.1187 93.8465 22.9327 94.0249 22.6525C94.1982 22.3802 94.2608 22.066 94.2012 21.7677Z" fill="url(#paint0_linear)"/>
<path opacity="0.5" d="M89.1675 16.2358C88.9653 16.1394 88.7342 16.1316 88.5167 16.214C88.3542 16.2756 88.2237 16.3813 88.1288 16.5282C88.081 16.6023 88.0434 16.6851 88.0167 16.7752C87.9378 16.7251 87.8555 16.6878 87.7711 16.6637C87.6039 16.6162 87.4366 16.6233 87.2741 16.6849C87.0566 16.7672 86.8877 16.9266 86.7984 17.1335C86.7102 17.338 86.7071 17.5729 86.7898 17.7949C86.8749 18.0234 87.0415 18.1989 87.3141 18.3473C87.5581 18.48 87.8776 18.5875 88.2477 18.712C88.374 18.7545 88.5172 18.8027 88.6669 18.8551C88.7064 18.869 88.7502 18.8683 88.7903 18.8531C88.8304 18.838 88.8639 18.8094 88.8845 18.7727C88.9629 18.6338 89.0394 18.5024 89.1068 18.3864C89.3041 18.047 89.4745 17.7539 89.5715 17.492C89.6799 17.1992 89.6907 16.9564 89.6056 16.7279C89.523 16.5059 89.3674 16.3312 89.1675 16.2358Z" fill="url(#paint1_linear)"/>
<path opacity="0.3" d="M92.7678 13.5992C92.7059 13.487 92.6015 13.4062 92.4738 13.3716C92.3783 13.3458 92.2833 13.3512 92.1911 13.3875C92.1447 13.4058 92.1001 13.4315 92.0582 13.4643C92.0381 13.4148 92.0123 13.37 91.9811 13.3307C91.9193 13.2528 91.8396 13.2002 91.7441 13.1744C91.6165 13.1399 91.486 13.1572 91.3767 13.2231C91.2688 13.2883 91.1903 13.396 91.1556 13.5263C91.12 13.6605 91.1395 13.7974 91.217 13.9571C91.2863 14.1001 91.3989 14.2566 91.5293 14.4378C91.5738 14.4997 91.6243 14.5698 91.6763 14.6441C91.69 14.6637 91.7106 14.678 91.7341 14.6844C91.7576 14.6908 91.7825 14.6887 91.8041 14.6787C91.886 14.6406 91.9645 14.6053 92.0338 14.5741C92.2365 14.483 92.4115 14.4042 92.5424 14.3154C92.6887 14.2161 92.7734 14.1074 92.809 13.9732C92.8437 13.8429 92.829 13.7101 92.7678 13.5992Z" fill="url(#paint2_linear)"/>
<path opacity="0.9" fill-rule="evenodd" clip-rule="evenodd" d="M71.8856 21.7134C73.5357 21.7134 75.0258 22.1041 76.356 22.8854C77.703 23.6668 78.7554 24.7624 79.5131 26.1723C79.9978 27.044 80.3309 27.989 80.5122 29.0071C80.3082 29.2905 80.114 29.5852 79.9296 29.8912C78.9868 31.4753 78.5154 33.1409 78.5154 34.8881C78.5154 35.5845 78.6024 36.2274 78.7766 36.8168C78.1178 37.6816 77.311 38.397 76.356 38.963C75.0258 39.7443 73.5357 40.135 71.8856 40.135C70.2187 40.135 68.7118 39.7443 67.3648 38.963C66.0346 38.1646 64.9822 37.069 64.2077 35.6761C63.4332 34.2663 63.0459 32.678 63.0459 30.9115C63.0459 29.1449 63.4332 27.5652 64.2077 26.1723C64.9822 24.7624 66.0346 23.6668 67.3648 22.8854C68.7118 22.1041 70.2187 21.7134 71.8856 21.7134Z" fill="#010010"/>
<path d="M76.6917 27.7799C76.1197 27.154 75.3349 26.8093 74.4816 26.8093C73.8437 26.8093 73.2596 27.0128 72.7454 27.4139C72.4859 27.6164 72.2508 27.8642 72.0435 28.1533C71.8362 27.8642 71.601 27.6164 71.3415 27.4139C70.8273 27.0128 70.2432 26.8093 69.6054 26.8093C68.752 26.8093 67.9671 27.154 67.3951 27.7799C66.83 28.3984 66.5186 29.2435 66.5186 30.1594C66.5186 31.1021 66.8669 31.9651 67.6146 32.8753C68.2834 33.6894 69.2447 34.5159 70.3579 35.473C70.738 35.7998 71.1689 36.1703 71.6163 36.5649C71.7345 36.6693 71.8862 36.7268 72.0435 36.7268C72.2007 36.7268 72.3524 36.6693 72.4705 36.565C72.9178 36.1703 73.349 35.7997 73.7293 35.4727C74.8423 34.5158 75.8036 33.6894 76.4724 32.8752C77.2201 31.9651 77.5683 31.1021 77.5683 30.1593C77.5683 29.2435 77.257 28.3984 76.6917 27.7799Z" fill="url(#paint3_linear)"/>
<path opacity="0.9" d="M66.7118 17.8843C66.7542 18.3153 66.7754 18.6385 66.7754 18.854C66.7754 19.8884 66.5953 20.6103 66.235 21.0197C65.8748 21.4076 65.239 21.6015 64.3278 21.6015C63.4378 21.6015 62.7491 21.5907 62.2616 21.5692C61.4352 27.6891 61.0219 32.0743 61.0219 34.7248C61.0219 35.9961 61.0431 36.912 61.0855 37.4722C61.1491 38.0541 61.2974 39.0345 61.5305 40.4137C60.0048 39.918 58.8816 39.11 58.1611 37.9894C57.4406 36.8904 57.0803 35.5867 57.0803 34.0783C57.0803 31.8157 57.3982 28.4756 58.034 24.0581C58.1823 22.9375 58.2777 22.1941 58.32 21.8278C57.1969 22.0217 56.0526 22.388 54.887 22.9268C54.8446 22.4527 54.8235 22.0971 54.8235 21.8601C54.8235 20.6965 55.1731 19.9099 55.8724 19.5005C56.5717 19.0911 57.5783 18.8756 58.8922 18.854C59.316 16.7422 59.8776 14.9214 60.5769 13.3914C61.2974 11.8614 62.0815 10.7086 62.9292 9.9328C64.5397 8.42438 66.2244 7.67017 67.9833 7.67017C69.1701 7.67017 70.1661 8.0365 70.9713 8.76916C71.7978 9.48027 72.211 10.3638 72.211 11.4197C72.211 12.454 71.8614 13.3591 71.1621 14.1348C70.4627 14.9106 69.5409 15.2985 68.3966 15.2985C67.9515 15.2985 67.5171 15.223 67.0933 15.0722C67.4324 14.8136 67.7608 14.3611 68.0787 13.7146C68.4178 13.0682 68.5873 12.4648 68.5873 11.9045C68.5873 11.3227 68.4601 10.8702 68.2058 10.5469C67.9727 10.2237 67.6549 10.0621 67.2522 10.0621C66.3834 10.0621 65.4933 10.8055 64.5821 12.2924C63.6921 13.7577 63.0245 15.9773 62.5795 18.951C64.4656 18.951 65.843 18.5954 66.7118 17.8843Z" fill="#010010"/>
<rect opacity="0.9" width="22.979" height="9.46193" rx="4.73097" transform="matrix(0.703991 0.710209 -0.703991 0.710209 14.2741 24.9597)" fill="#010010"/>
<rect width="9.46193" height="9.46193" rx="4.73097" transform="matrix(0.703991 0.710209 -0.703991 0.710209 6.66112 17.2798)" fill="url(#paint4_linear)"/>
<rect opacity="0.9" width="12.1653" height="9.46194" rx="4.73097" transform="matrix(0.703991 0.710209 -0.703991 0.710209 30.4512 24)" fill="#010010"/>
<rect width="20.2756" height="9.46193" rx="4.73097" transform="matrix(0.703991 0.710209 -0.703991 0.710209 15.2258 8.64062)" fill="url(#paint5_linear)"/>
<rect width="33.7926" height="9.46193" rx="4.73097" transform="matrix(0.703991 0.710209 -0.703991 0.710209 23.7904 0.000732422)" fill="url(#paint6_linear)"/>
<defs>
<linearGradient id="paint0_linear" x1="91.3495" y1="18.7972" x2="95.1872" y2="21.3645" gradientUnits="userSpaceOnUse">
<stop stop-color="#FE5E71"/>
<stop offset="1" stop-color="#FF3951"/>
</linearGradient>
<linearGradient id="paint1_linear" x1="86.1882" y1="16.6249" x2="89.3798" y2="15.5183" gradientUnits="userSpaceOnUse">
<stop stop-color="#FE5E71"/>
<stop offset="1" stop-color="#FF3951"/>
</linearGradient>
<linearGradient id="paint2_linear" x1="91.2613" y1="12.7839" x2="93.107" y2="13.3191" gradientUnits="userSpaceOnUse">
<stop stop-color="#FE5E71"/>
<stop offset="1" stop-color="#FF3951"/>
</linearGradient>
<linearGradient id="paint3_linear" x1="65.9477" y1="25.1047" x2="78.3426" y2="25.3713" gradientUnits="userSpaceOnUse">
<stop stop-color="#FE5E71"/>
<stop offset="1" stop-color="#FF3951"/>
</linearGradient>
<linearGradient id="paint4_linear" x1="-0.488866" y1="-1.62628" x2="10.1259" y2="-1.42136" gradientUnits="userSpaceOnUse">
<stop stop-color="#FE5E71"/>
<stop offset="1" stop-color="#FF3951"/>
</linearGradient>
<linearGradient id="paint5_linear" x1="-1.04757" y1="-1.62628" x2="21.668" y2="-0.686601" gradientUnits="userSpaceOnUse">
<stop stop-color="#FE5E71"/>
<stop offset="1" stop-color="#FF3951"/>
</linearGradient>
<linearGradient id="paint6_linear" x1="-1.74595" y1="-1.62628" x2="35.9987" y2="0.976036" gradientUnits="userSpaceOnUse">
<stop stop-color="#FE5E71"/>
<stop offset="1" stop-color="#FF3951"/>
</linearGradient>
</defs>
</svg>
