<svg width="24" height="24" viewBox="0 0 24 24" fill="none" xmlns="http://www.w3.org/2000/svg">
<path d="M23.9981 12.2661C24.0126 11.4408 23.9255 10.6155 23.7416 9.81396H12.2432V14.2676H18.9941C18.7377 15.847 17.8327 17.251 16.4922 18.1616L16.468 18.3086L20.1024 21.0691L20.354 21.0928C22.6624 19.0011 23.9981 15.9229 23.9981 12.2661Z" fill="#4285F4"/>
<path d="M12.2437 24.0002C15.549 24.0002 18.3269 22.933 20.3546 21.0927L16.4927 18.1568C15.2393 18.9821 13.7536 19.3995 12.2486 19.3568C9.0739 19.3378 6.26704 17.3268 5.2798 14.3672L5.13462 14.3814L1.35503 17.2462L1.30664 17.379C3.37791 21.4437 7.6124 24.0049 12.2437 24.0002Z" fill="#34A853"/>
<path d="M5.27496 14.372C5.00879 13.6083 4.86845 12.8068 4.86845 11.9957C4.87329 11.1894 5.00879 10.3879 5.26528 9.61949L5.26044 9.46297L1.43247 6.55078L1.30664 6.60769C-0.435547 9.99893 -0.435547 13.9925 1.30664 17.3838L5.27496 14.372Z" fill="#FBBC05"/>
<path d="M12.2436 4.63936C14.0003 4.6109 15.6941 5.2512 16.9766 6.42746L20.4319 3.1216C18.2155 1.08212 15.2779 -0.0324799 12.2388 0.000720943C7.60747 0.000720943 3.37298 2.55719 1.29688 6.61718L5.25552 9.62897C6.25244 6.66935 9.06414 4.65833 12.2436 4.63936Z" fill="#EB4335"/>
</svg>
