<svg width="20" height="20" viewBox="0 0 20 20" fill="none" xmlns="http://www.w3.org/2000/svg">
<path d="M10.0002 17C10.9462 17 11.8102 16.897 12.5982 16.719L10.8412 14.962C10.5682 14.983 10.2912 15 10.0002 15C4.64922 15 2.57622 11.154 2.07422 9.99997C2.45117 9.15878 2.96027 8.38331 3.58222 7.70297L2.18422 6.30497C0.646223 7.97197 0.0632231 9.65097 0.0522231 9.68397C-0.0167566 9.88933 -0.0167566 10.1116 0.0522231 10.317C0.0732231 10.383 2.36722 17 10.0002 17ZM10.0002 2.99997C8.16322 2.99997 6.65422 3.39597 5.39622 3.98097L1.70722 0.292969L0.293223 1.70697L18.2932 19.707L19.7072 18.293L16.3882 14.974C19.0022 13.023 19.9352 10.359 19.9492 10.317C20.0182 10.1116 20.0182 9.88933 19.9492 9.68397C19.9272 9.61697 17.6332 2.99997 10.0002 2.99997ZM14.9722 13.558L12.6922 11.278C12.8822 10.888 13.0002 10.459 13.0002 9.99997C13.0002 8.35897 11.6412 6.99997 10.0002 6.99997C9.54122 6.99997 9.11222 7.11797 8.72322 7.30897L6.91522 5.50097C7.90774 5.16038 8.95093 4.99097 10.0002 4.99997C15.3512 4.99997 17.4242 8.84597 17.9262 9.99997C17.6242 10.692 16.7602 12.342 14.9722 13.558Z" fill="black"/>
</svg>
