<svg width="28" height="30" viewBox="0 0 28 30" fill="none" xmlns="http://www.w3.org/2000/svg">
<path d="M14.0153 11.0483C13.042 11.0483 12.1306 11.4259 11.4405 12.116C10.7536 12.8061 10.3728 13.7175 10.3728 14.6908C10.3728 15.6641 10.7536 16.5756 11.4405 17.2657C12.1306 17.9526 13.042 18.3334 14.0153 18.3334C14.9886 18.3334 15.9001 17.9526 16.5902 17.2657C17.2771 16.5756 17.6579 15.6641 17.6579 14.6908C17.6579 13.7175 17.2771 12.8061 16.5902 12.116C16.2531 11.7763 15.8519 11.507 15.4099 11.3237C14.9679 11.1404 14.4939 11.0468 14.0153 11.0483ZM27.4366 18.7143L25.3077 16.8946C25.4086 16.2761 25.4606 15.6446 25.4606 15.0164C25.4606 14.3881 25.4086 13.7533 25.3077 13.1381L27.4366 11.3184C27.5974 11.1808 27.7125 10.9974 27.7666 10.7927C27.8206 10.588 27.8111 10.3718 27.7393 10.1726L27.71 10.088C27.1241 8.44959 26.2462 6.93093 25.1189 5.60555L25.0603 5.53719C24.9234 5.37623 24.7409 5.26052 24.5369 5.20531C24.333 5.15011 24.1171 5.158 23.9177 5.22795L21.2745 6.1687C20.2979 5.36792 19.2107 4.73641 18.0323 4.29696L17.5212 1.53328C17.4826 1.32509 17.3816 1.13355 17.2316 0.984124C17.0816 0.834695 16.8897 0.734446 16.6814 0.696696L16.5935 0.68042C14.9008 0.37443 13.1169 0.37443 11.4242 0.68042L11.3363 0.696696C11.128 0.734446 10.936 0.834695 10.786 0.984124C10.636 1.13355 10.535 1.32509 10.4965 1.53328L9.98213 4.30998C8.81491 4.75293 7.72756 5.38291 6.76273 6.17521L4.09997 5.22795C3.90064 5.15744 3.68458 5.14927 3.48049 5.20451C3.2764 5.25974 3.09395 5.37578 2.95739 5.53719L2.8988 5.60555C1.77345 6.93234 0.895776 8.45063 0.307653 10.088L0.278356 10.1726C0.131872 10.5795 0.252315 11.0352 0.581091 11.3184L2.73604 13.1576C2.63513 13.7696 2.5863 14.3946 2.5863 15.0131C2.5863 15.6381 2.63513 16.2631 2.73604 16.8686L0.587601 18.7078C0.42678 18.8454 0.311678 19.0288 0.257601 19.2335C0.203524 19.4382 0.213034 19.6545 0.284867 19.8536L0.314164 19.9382C0.903356 21.5756 1.7725 23.0893 2.90531 24.4207L2.9639 24.489C3.1008 24.65 3.28325 24.7657 3.48722 24.8209C3.69118 24.8761 3.90709 24.8682 4.10648 24.7983L6.76924 23.851C7.73929 24.6485 8.82002 25.28 9.98864 25.7162L10.503 28.4929C10.5415 28.7011 10.6425 28.8927 10.7925 29.0421C10.9425 29.1915 11.1345 29.2918 11.3428 29.3295L11.4307 29.3458C13.1401 29.6534 14.8906 29.6534 16.6 29.3458L16.6879 29.3295C16.8962 29.2918 17.0881 29.1915 17.2381 29.0421C17.3882 28.8927 17.4891 28.7011 17.5277 28.4929L18.0388 25.7292C19.2172 25.2865 20.3044 24.6583 21.281 23.8575L23.9242 24.7983C24.1235 24.8688 24.3396 24.8769 24.5437 24.8217C24.7478 24.7665 24.9302 24.6504 25.0668 24.489L25.1254 24.4207C26.2582 23.0828 27.1273 21.5756 27.7165 19.9382L27.7458 19.8536C27.8858 19.4499 27.7653 18.9975 27.4366 18.7143ZM14.0153 20.4135C10.8545 20.4135 8.29268 17.8516 8.29268 14.6908C8.29268 11.53 10.8545 8.96818 14.0153 8.96818C17.1761 8.96818 19.738 11.53 19.738 14.6908C19.738 17.8516 17.1761 20.4135 14.0153 20.4135Z" fill="url(#paint0_linear_4624_35168)"/>
<defs>
<linearGradient id="paint0_linear_4624_35168" x1="0.216797" y1="15.0137" x2="27.8033" y2="15.0137" gradientUnits="userSpaceOnUse">
<stop stop-color="#80002B"/>
<stop offset="1" stop-color="#E60573"/>
</linearGradient>
</defs>
</svg>
