<svg width="26" height="26" viewBox="0 0 26 26" fill="none" xmlns="http://www.w3.org/2000/svg">
<path d="M13 0.25C5.96944 0.25 0.25 5.96944 0.25 13C0.25 20.0306 5.96944 25.75 13 25.75C20.0306 25.75 25.75 20.0306 25.75 13C25.75 5.96944 20.0306 0.25 13 0.25ZM13 2.375C18.8809 2.375 23.625 7.11906 23.625 13C23.625 18.8809 18.8809 23.625 13 23.625C7.11906 23.625 2.375 18.8809 2.375 13C2.375 7.11906 7.11906 2.375 13 2.375ZM8.21875 8.75C7.79606 8.75 7.39068 8.91791 7.0918 9.2168C6.79291 9.51568 6.625 9.92106 6.625 10.3438C6.625 10.7664 6.79291 11.1718 7.0918 11.4707C7.39068 11.7696 7.79606 11.9375 8.21875 11.9375C8.64144 11.9375 9.04682 11.7696 9.3457 11.4707C9.64459 11.1718 9.8125 10.7664 9.8125 10.3438C9.8125 9.92106 9.64459 9.51568 9.3457 9.2168C9.04682 8.91791 8.64144 8.75 8.21875 8.75ZM15.125 9.8125V11.9375H20.4375V9.8125H15.125ZM18.2796 14.0954C18.2796 15.8847 17.5613 17.1257 16.519 18.0139C15.4778 18.9022 14.0997 19.375 13 19.375C10.7464 19.375 9.21431 18.4613 8.019 17.2829L6.52513 18.8119C8.00731 20.2664 10.1525 21.5 13 21.5C14.6522 21.5 16.4659 20.8774 17.9141 19.6406C19.3623 18.4039 20.4046 16.4956 20.4046 14.0954H18.2796Z" fill="url(#paint0_linear_4624_35236)"/>
<defs>
<linearGradient id="paint0_linear_4624_35236" x1="-2.75536" y1="0.249994" x2="26.1088" y2="1.83698" gradientUnits="userSpaceOnUse">
<stop stop-color="#1A83CF"/>
<stop offset="0.555477" stop-color="#5FB5F4"/>
<stop offset="1" stop-color="#2DA6FF"/>
</linearGradient>
</defs>
</svg>
