<svg width="29" height="24" viewBox="0 0 29 24" fill="none" xmlns="http://www.w3.org/2000/svg">
<g clip-path="url(#clip0_4624_35149)">
<path opacity="0.3" d="M21.9171 12C24.2634 12 26.1671 10.0404 26.1671 7.625C26.1671 5.20964 24.2634 3.25 21.9171 3.25C19.5707 3.25 17.6671 5.20964 17.6671 7.625C17.6671 10.0404 19.5707 12 21.9171 12ZM24.0421 13.4583H23.8738C23.2585 13.6771 22.6077 13.8229 21.9171 13.8229C21.2264 13.8229 20.5756 13.6771 19.9603 13.4583H19.7921C18.8889 13.4583 18.0566 13.7272 17.3262 14.1602C18.4064 15.3587 19.0837 16.9492 19.0837 18.7083V20.4583C19.0837 20.5586 19.0616 20.6543 19.0572 20.75H26.8754C28.0486 20.75 29.0004 19.7702 29.0004 18.5625C29.0004 15.7415 26.7824 13.4583 24.0421 13.4583Z" fill="url(#paint0_linear_4624_35149)"/>
<path d="M14.1253 6.89567C14.1253 9.71664 11.9074 11.9998 9.16699 11.9998C6.42663 11.9998 4.20866 9.71664 4.20866 6.89567C4.20866 4.07471 6.42663 1.7915 9.16699 1.7915C11.9074 1.7915 14.1253 4.07471 14.1253 6.89567Z" fill="url(#paint1_linear_4624_35149)"/>
<path d="M12.1995 13.4582H12.567C14.267 13.5554 17.667 14.7415 17.667 18.7082V20.0207C17.7503 20.8193 17.442 22.3748 15.542 22.2082H2.79199C1.61882 22.2082 0.666992 21.2284 0.666992 20.0207V18.7082C0.666992 15.8097 2.95137 13.4582 5.76699 13.4582H6.13444C7.0597 13.9139 8.07793 14.1873 9.16699 14.1873C10.2561 14.1873 11.2787 13.9139 12.1995 13.4582Z" fill="url(#paint2_linear_4624_35149)"/>
</g>
<defs>
<linearGradient id="paint0_linear_4624_35149" x1="15.9503" y1="3.25" x2="29.1868" y2="3.73548" gradientUnits="userSpaceOnUse">
<stop stop-color="#C7539A"/>
<stop offset="0.555477" stop-color="#FB3E78"/>
<stop offset="1" stop-color="#FF5369"/>
</linearGradient>
<linearGradient id="paint1_linear_4624_35149" x1="-1.33801" y1="1.7915" x2="17.9363" y2="2.67398" gradientUnits="userSpaceOnUse">
<stop stop-color="#C7539A"/>
<stop offset="0.555477" stop-color="#FB3E78"/>
<stop offset="1" stop-color="#FF5369"/>
</linearGradient>
<linearGradient id="paint2_linear_4624_35149" x1="-1.33801" y1="1.7915" x2="17.9363" y2="2.67398" gradientUnits="userSpaceOnUse">
<stop stop-color="#C7539A"/>
<stop offset="0.555477" stop-color="#FB3E78"/>
<stop offset="1" stop-color="#FF5369"/>
</linearGradient>
<clipPath id="clip0_4624_35149">
<rect width="28.3333" height="23.3333" fill="white" transform="translate(0.666992 0.333252)"/>
</clipPath>
</defs>
</svg>
