<svg width="29" height="22" viewBox="0 0 29 22" fill="none" xmlns="http://www.w3.org/2000/svg">
<path d="M9.16699 10.9998C11.9074 10.9998 14.1253 8.71663 14.1253 5.89567C14.1253 3.07471 11.9074 0.791504 9.16699 0.791504C6.42663 0.791504 4.20866 3.07471 4.20866 5.89567C4.20866 8.71663 6.42663 10.9998 9.16699 10.9998ZM12.567 12.4582H12.1995C11.2787 12.9139 10.2561 13.1873 9.16699 13.1873C8.07793 13.1873 7.0597 12.9139 6.13444 12.4582H5.76699C2.95137 12.4582 0.666992 14.8097 0.666992 17.7082V19.0207C0.666992 20.2284 1.61882 21.2082 2.79199 21.2082H15.542C16.7152 21.2082 17.667 20.2284 17.667 19.0207V17.7082C17.667 14.8097 15.3826 12.4582 12.567 12.4582ZM21.917 10.9998C24.2633 10.9998 26.167 9.0402 26.167 6.62484C26.167 4.20947 24.2633 2.24984 21.917 2.24984C19.5706 2.24984 17.667 4.20947 17.667 6.62484C17.667 9.0402 19.5706 10.9998 21.917 10.9998ZM24.042 12.4582H23.8738C23.2584 12.6769 22.6076 12.8228 21.917 12.8228C21.2264 12.8228 20.5756 12.6769 19.9602 12.4582H19.792C18.8889 12.4582 18.0566 12.7271 17.3261 13.16C18.4063 14.3586 19.0837 15.9491 19.0837 17.7082V19.4582C19.0837 19.5584 19.0615 19.6541 19.0571 19.7498H26.8753C28.0485 19.7498 29.0003 18.77 29.0003 17.5623C29.0003 14.7414 26.7824 12.4582 24.042 12.4582Z" fill="url(#paint0_linear_4624_35144)"/>
<defs>
<linearGradient id="paint0_linear_4624_35144" x1="0.666992" y1="10.9998" x2="29.0003" y2="10.9998" gradientUnits="userSpaceOnUse">
<stop stop-color="#EF843B"/>
<stop offset="1" stop-color="#FFA567"/>
</linearGradient>
</defs>
</svg>
