<svg width="30" height="30" viewBox="0 0 30 30" fill="none" xmlns="http://www.w3.org/2000/svg">
<path d="M22.3594 13.6209C24.1031 13.3759 25.4456 11.8809 25.4494 10.0697C25.4494 8.28466 24.1481 6.80466 22.4419 6.52466" stroke="url(#paint0_linear_4665_2536)" stroke-width="1.5" stroke-linecap="round" stroke-linejoin="round"/>
<path d="M24.6611 17.8129C26.3499 18.0654 27.5286 18.6566 27.5286 19.8754C27.5286 20.7141 26.9736 21.2591 26.0761 21.6016" stroke="url(#paint1_linear_4665_2536)" stroke-width="1.5" stroke-linecap="round" stroke-linejoin="round"/>
<path fill-rule="evenodd" clip-rule="evenodd" d="M14.8589 18.3297C10.8414 18.3297 7.41016 18.9385 7.41016 21.3697C7.41016 23.7997 10.8202 24.426 14.8589 24.426C18.8764 24.426 22.3064 23.8235 22.3064 21.391C22.3064 18.9585 18.8977 18.3297 14.8589 18.3297Z" stroke="url(#paint2_linear_4665_2536)" stroke-width="1.5" stroke-linecap="round" stroke-linejoin="round"/>
<path fill-rule="evenodd" clip-rule="evenodd" d="M14.8587 14.8599C17.495 14.8599 19.6325 12.7236 19.6325 10.0861C19.6325 7.44988 17.495 5.31238 14.8587 5.31238C12.2225 5.31238 10.085 7.44988 10.085 10.0861C10.075 12.7136 12.1962 14.8511 14.8237 14.8599L14.8587 14.8599Z" stroke="url(#paint3_linear_4665_2536)" stroke-width="1.5" stroke-linecap="round" stroke-linejoin="round"/>
<path d="M7.3566 13.6209C5.6116 13.3759 4.27035 11.8809 4.2666 10.0697C4.2666 8.28466 5.56785 6.80466 7.2741 6.52466" stroke="url(#paint4_linear_4665_2536)" stroke-width="1.5" stroke-linecap="round" stroke-linejoin="round"/>
<path d="M5.055 17.8129C3.36625 18.0654 2.1875 18.6566 2.1875 19.8754C2.1875 20.7141 2.7425 21.2591 3.64 21.6016" stroke="url(#paint5_linear_4665_2536)" stroke-width="1.5" stroke-linecap="round" stroke-linejoin="round"/>
<defs>
<linearGradient id="paint0_linear_4665_2536" x1="21.5308" y1="10.4398" x2="26.4071" y2="10.7544" gradientUnits="userSpaceOnUse">
<stop stop-color="#FF808F"/>
<stop offset="1" stop-color="#C50018"/>
</linearGradient>
<linearGradient id="paint1_linear_4665_2536" x1="23.8922" y1="19.9032" x2="28.3799" y2="20.4063" gradientUnits="userSpaceOnUse">
<stop stop-color="#FF808F"/>
<stop offset="1" stop-color="#C50018"/>
</linearGradient>
<linearGradient id="paint2_linear_4665_2536" x1="3.41563" y1="21.6932" x2="24.2871" y2="29.2475" gradientUnits="userSpaceOnUse">
<stop stop-color="#FF808F"/>
<stop offset="1" stop-color="#C50018"/>
</linearGradient>
<linearGradient id="paint3_linear_4665_2536" x1="7.52473" y1="10.58" x2="22.3297" y2="12.7729" gradientUnits="userSpaceOnUse">
<stop stop-color="#FF808F"/>
<stop offset="1" stop-color="#C50018"/>
</linearGradient>
<linearGradient id="paint4_linear_4665_2536" x1="3.438" y1="10.4398" x2="8.31436" y2="10.7544" gradientUnits="userSpaceOnUse">
<stop stop-color="#FF808F"/>
<stop offset="1" stop-color="#C50018"/>
</linearGradient>
<linearGradient id="paint5_linear_4665_2536" x1="1.41856" y1="19.9032" x2="5.90622" y2="20.4063" gradientUnits="userSpaceOnUse">
<stop stop-color="#FF808F"/>
<stop offset="1" stop-color="#C50018"/>
</linearGradient>
</defs>
</svg>
