<svg width="27" height="26" viewBox="0 0 27 26" fill="none" xmlns="http://www.w3.org/2000/svg">
<path d="M19.5003 0.499878C17.1803 0.499878 14.9537 1.61363 13.5003 3.37363C12.047 1.61363 9.82033 0.499878 7.50033 0.499878C3.39366 0.499878 0.166992 3.82738 0.166992 8.06238C0.166992 13.2599 4.70033 17.4949 11.567 23.9299L13.5003 25.7311L15.4337 23.9161C22.3003 17.4949 26.8337 13.2599 26.8337 8.06238C26.8337 3.82738 23.607 0.499878 19.5003 0.499878ZM13.6337 21.8811L13.5003 22.0186L13.367 21.8811C7.02032 15.9549 2.83366 12.0361 2.83366 8.06238C2.83366 5.31238 4.83366 3.24988 7.50033 3.24988C9.55366 3.24988 11.5537 4.61113 12.2603 6.49488L14.7537 6.49488C15.447 4.61113 17.447 3.24988 19.5003 3.24988C22.167 3.24988 24.167 5.31238 24.167 8.06238C24.167 12.0361 19.9803 15.9549 13.6337 21.8811Z" fill="url(#paint0_linear_4665_262)"/>
<defs>
<linearGradient id="paint0_linear_4665_262" x1="-1.21079" y1="-3.83677" x2="28.7037" y2="-3.22643" gradientUnits="userSpaceOnUse">
<stop stop-color="#FE5E71"/>
<stop offset="1" stop-color="#FF3951"/>
</linearGradient>
</defs>
</svg>
