<svg width="22" height="29" viewBox="0 0 22 29" fill="none" xmlns="http://www.w3.org/2000/svg">
<path d="M21.6667 14.8334C21.6667 13.2708 20.452 12.0001 18.9583 12.0001H17.6042V7.75008C17.6042 3.84433 14.5668 0.666748 10.8333 0.666748C7.0999 0.666748 4.0625 3.84433 4.0625 7.75008V12.0001H2.70833C1.21469 12.0001 0 13.2708 0 14.8334V26.1667C0 27.7293 1.21469 29.0001 2.70833 29.0001H18.9583C20.452 29.0001 21.6667 27.7293 21.6667 26.1667V14.8334ZM6.77083 7.75008C6.77083 5.40691 8.59354 3.50008 10.8333 3.50008C13.0731 3.50008 14.8958 5.40691 14.8958 7.75008V12.0001H6.77083V7.75008Z" fill="url(#paint0_linear_4624_35174)"/>
<defs>
<linearGradient id="paint0_linear_4624_35174" x1="4.03573e-08" y1="14.8334" x2="21.6667" y2="14.8334" gradientUnits="userSpaceOnUse">
<stop stop-color="#6DD7A4"/>
<stop offset="1" stop-color="#3EC684"/>
</linearGradient>
</defs>
</svg>
