<svg width="34" height="31" viewBox="0 0 34 31" fill="none" xmlns="http://www.w3.org/2000/svg">
<path d="M15.3579 1.98911C15.4553 1.98911 15.5769 2.03687 15.6824 2.18014C15.2119 1.51949 16.2097 1.80604 16.2665 1.17722C16.8343 0.763319 16.6315 0.492689 16.7938 0.47677L16.9723 0.333496C16.6234 0.460851 16.5017 0.48473 16.4044 0.48473H16.2422C16.1205 0.48473 15.9177 0.508609 15.439 0.651883C14.3439 0.73148 13.557 1.89359 13.1838 1.92543C12.8025 2.12442 12.8188 2.16422 12.908 2.16422C12.9323 2.16422 12.9648 2.15626 12.9972 2.15626C13.0297 2.15626 13.054 2.1483 13.0784 2.1483C13.1676 2.1483 13.1433 2.1881 12.6241 2.42689C12.7458 2.45873 11.7155 2.90447 11.7074 3.60492C11.6749 3.87555 11.7885 4.05862 11.9751 4.05862C12.1373 4.05862 12.3401 3.93923 12.5592 3.63676C13.2893 2.80895 14.8306 2.72936 15.4958 2.2279C15.0821 2.19606 15.1632 1.98911 15.3579 1.98911ZM11.6506 2.2677C11.5776 2.2677 11.6749 2.18014 11.7804 2.09258C11.894 2.00503 12.0238 1.91747 12.0238 1.91747L12.0157 1.92543C12.4537 1.75828 12.186 1.71848 12.4213 1.60704H12.405C12.3564 1.60704 12.4456 1.54337 12.5267 1.47173C12.6079 1.40805 12.6809 1.33641 12.6079 1.33641C12.5673 1.33641 12.4618 1.36029 12.2834 1.43193C12.3401 1.35233 12.5592 1.29662 12.8674 1.12946C12.4213 1.27274 12.0724 1.36029 12.0319 1.36029C11.9994 1.36029 12.186 1.29662 12.7458 1.12946C12.7701 1.12946 12.7944 1.13742 12.8107 1.13742C12.8674 1.13742 12.8918 1.1215 12.8837 1.10558C12.8756 1.08966 12.8431 1.08171 12.7863 1.08171C11.9832 1.14538 11.3829 1.63888 11.5614 1.70256C11.6668 1.67072 11.7398 1.6548 11.7885 1.6548C11.894 1.6548 11.8453 1.74236 11.6344 1.86971C11.7317 2.09258 10.0119 2.66568 9.81723 2.87263C9.91458 2.81691 9.97948 2.80099 10.0119 2.80099C10.1417 2.80099 9.97137 3.04774 9.80101 3.16714C9.90647 3.26266 9.98759 3.29449 10.0525 3.29449C10.2228 3.29449 10.2959 3.06366 10.4419 2.99203C10.4743 3.0557 10.5068 3.08754 10.5473 3.08754C10.6852 3.08754 10.8556 2.75324 10.9935 2.57812C11.0341 2.61792 11.0827 2.64976 11.1476 2.64976C11.2774 2.64976 11.4721 2.54628 11.7804 2.25178C11.7155 2.25974 11.6668 2.2677 11.6506 2.2677ZM9.78478 3.73228C9.49274 3.90739 9.33861 3.97903 9.27371 3.97903C9.15203 3.97903 9.31427 3.75615 9.46029 3.52532C9.60631 3.30245 9.73611 3.07958 9.54953 3.07958C9.46029 3.07958 9.29805 3.12734 9.03845 3.2547C8.33269 3.71636 7.14018 4.9899 6.61288 4.9899H6.56421C7.416 4.37701 7.16452 3.1751 8.35702 2.86467C9.5333 2.20402 10.3364 2.41097 11.3829 1.6548C11.0746 1.80604 10.6203 1.97319 10.5149 1.97319C10.45 1.97319 10.5473 1.89359 10.9692 1.6946C10.9286 1.70256 10.8962 1.71052 10.8718 1.71052C10.5879 1.71052 12.7377 0.954351 12.8431 0.938431C11.9589 1.05783 10.5311 1.78216 10.3364 1.78216C10.3121 1.78216 10.3121 1.7742 10.3121 1.75828C10.3445 1.7344 10.3445 1.71848 10.3121 1.71848C10.2066 1.71848 9.76856 1.86175 9.32238 2.00503C8.88432 2.1483 8.43815 2.29953 8.3408 2.29953C8.30835 2.29953 8.30835 2.28362 8.35702 2.25178C4.52803 4.38497 1.33179 7.98274 0.333984 12.2491C0.74771 13.1804 0.463781 14.9554 1.14521 15.4728C1.92399 16.1175 0.480005 17.988 0.861282 19.1422C1.25067 21.2276 2.92991 22.6524 3.10838 24.7856C3.41665 26.2502 4.54425 28.0411 5.01477 28.9724C5.37171 29.3226 6.35329 30.3335 6.52365 30.3335C6.58855 30.3335 6.54799 30.1823 6.28839 29.7763C6.12615 29.3226 5.18512 28.1366 5.63941 28.1366C5.66375 28.1366 5.68809 28.1366 5.72053 28.1446C5.16079 27.5874 6.96171 27.7386 5.70431 26.9825C5.55829 26.8074 5.52584 26.7516 5.55829 26.7516C5.59885 26.7516 5.71242 26.8153 5.84222 26.879C5.98013 26.9427 6.14237 27.0064 6.27217 27.0064C6.47498 27.0064 6.61288 26.871 6.53176 26.3775C6.56421 26.3935 6.59666 26.3935 6.621 26.3935C6.83192 26.3935 6.75891 25.9875 6.77513 25.5816C6.79135 25.1756 6.89681 24.7697 7.46467 24.7697C7.52957 24.7697 7.60258 24.7776 7.67559 24.7856C8.98978 24.0852 7.84595 22.151 9.35483 21.4425C9.29805 19.8347 7.09962 19.7551 6.27217 19.1024C6.13426 19.182 6.00446 19.2059 5.87467 19.2059C5.72865 19.2059 5.59885 19.174 5.48528 19.1342C5.37171 19.1024 5.26625 19.0626 5.19324 19.0626C5.17701 19.0626 5.16079 19.0626 5.14456 19.0706C6.5561 18.7044 5.52584 16.7782 4.35767 16.7782H4.27655C4.18731 15.9424 3.74925 16.2608 3.70058 15.5683C3.62757 15.6081 3.55456 15.624 3.48155 15.624C3.28685 15.624 3.10838 15.4887 2.95425 15.3614C2.80012 15.226 2.67032 15.0987 2.55675 15.0987C2.46751 15.0987 2.38639 15.1862 2.31338 15.441C2.3945 15.0509 2.37016 14.9236 2.28904 14.9236C2.20792 14.9236 2.0619 15.0589 1.89965 15.1942C1.74552 15.3295 1.56705 15.4648 1.42914 15.4648H1.38858C0.439444 14.8042 1.39669 13.6341 0.893731 12.7347C1.21822 12.3924 1.34802 11.8113 1.202 11.8113C1.12899 11.8113 0.982966 11.9546 0.755823 12.3446C0.431332 11.5328 1.29123 9.69407 2.02134 9.59059C2.04567 9.59059 2.0619 9.58263 2.08624 9.58263C2.21603 9.58263 2.34583 9.64631 2.4594 9.78162C2.5243 10.1557 2.36205 10.9437 2.42695 10.9437C2.4594 10.9437 2.5243 10.7845 2.68654 10.3706C2.89746 9.42344 4.3739 8.73891 4.52803 8.15785C4.53614 8.16581 4.53614 8.16581 4.54425 8.16581C4.71461 8.16581 5.80977 7.21861 6.28839 7.11514C6.47498 6.93206 6.60477 6.86839 6.70212 6.86839C6.80758 6.86839 6.86437 6.94798 6.90493 7.01962C6.94549 7.09922 6.97794 7.17085 7.0185 7.17085C7.05095 7.17085 7.09151 7.12309 7.16452 6.98778C6.91304 6.50224 7.56202 6.04058 7.38355 6.04058C7.31865 6.04058 7.12396 6.10426 6.72646 6.26345C6.66156 6.29529 6.62911 6.30325 6.61288 6.30325C6.56421 6.30325 6.75891 6.17589 7.04284 6.04854C7.32676 5.92119 7.6837 5.79383 7.98386 5.79383C8.12988 5.79383 8.25968 5.82567 8.35702 5.90527C9.61443 5.61076 8.92488 5.20481 8.98978 5.20481H9.00601C9.36295 4.99786 9.25749 4.21782 9.78478 3.73228ZM4.16298 6.98778C4.14675 6.98778 4.21976 6.88431 4.46313 6.5898C4.96609 6.22365 5.37171 5.9769 4.90931 5.73811C5.11211 5.65056 5.30681 5.54708 5.49339 5.43565C5.48528 5.82567 5.15268 6.77287 4.97421 6.77287C4.93364 6.77287 4.89308 6.71715 4.87686 6.59776C4.98232 6.41468 4.99043 6.34305 4.94987 6.34305C4.88497 6.34305 4.69839 6.50224 4.51992 6.66939C4.34145 6.82063 4.1792 6.98778 4.16298 6.98778ZM4.62538 7.20269C4.40635 7.20269 4.44691 7.06738 5.12023 6.93206C5.41227 6.89226 5.18512 6.90818 5.53395 6.82859C5.19324 7.09922 4.81196 7.20269 4.62538 7.20269ZM17.24 6.39877C17.3373 6.38285 17.4103 6.38285 17.4671 6.38285C17.7024 6.38285 17.5969 6.47836 17.459 6.57388C17.3211 6.66939 17.1507 6.76491 17.2481 6.76491C17.3049 6.76491 17.459 6.73307 17.7754 6.64551C19.3735 6.53408 17.1507 5.20481 17.5077 4.75907L17.4103 4.72723C16.7532 5.54708 17.8484 5.563 17.24 6.39877ZM16.5748 6.4306C16.6883 6.4306 16.8343 6.30325 16.9885 5.94506C17.1994 5.69831 17.1102 5.66648 16.883 5.54708C16.2584 5.70627 16.3152 6.4306 16.5748 6.4306ZM22.1722 8.95382C22.1479 8.95382 22.1317 8.96178 22.1154 8.96974C22.1803 8.98566 22.2452 9.00158 22.3101 9.00158C22.2452 8.96974 22.2047 8.95382 22.1722 8.95382ZM33.067 10.9358C33.2049 11.2303 33.2779 11.3497 33.286 11.3497C33.3428 11.3497 32.2639 8.77075 31.8177 8.30909C29.4895 4.55212 25.6605 1.67868 21.2961 0.604125H21.288C21.1744 0.604125 21.3042 0.659843 21.4583 0.71556C21.6125 0.771278 21.7991 0.826996 21.7991 0.826996C21.7991 0.826996 21.6774 0.787198 21.3042 0.683722C20.8905 0.564327 20.4686 0.47677 20.0387 0.444932C19.9657 0.468811 21.8153 1.18518 23.0565 1.55929C22.6427 1.43193 22.2128 1.3205 22.1073 1.3205C22.0343 1.3205 22.1073 1.36825 22.4075 1.49561C22.0424 1.39213 21.8883 1.34437 21.8721 1.34437C21.8477 1.34437 22.3588 1.51153 22.8374 1.67868C23.3242 1.84583 23.7866 2.01299 23.6568 2.01299C23.6243 2.01299 23.5351 1.99707 23.3972 1.97319C23.8109 2.19606 23.9569 2.28362 23.9326 2.28362C23.892 2.28362 23.381 2.04483 22.8537 1.80604C22.3345 1.56725 21.8072 1.32845 21.7342 1.32845C21.6936 1.32845 21.7991 1.40805 22.156 1.615C22.6427 1.82195 23.1295 2.02891 22.9916 2.02891C22.9267 2.02891 22.7401 1.98911 22.375 1.88563C23.1863 2.29158 21.7991 2.13238 22.2696 2.6816C22.01 2.44281 21.9045 2.36321 21.8802 2.36321C21.8558 2.36321 21.9207 2.45873 21.9856 2.55424C22.0505 2.64976 22.0992 2.74528 22.0424 2.74528H22.0262C22.5941 3.35021 21.6287 2.80895 22.3182 3.35021C21.7991 3.11938 20.9148 2.73732 21.3123 2.73732C21.4097 2.73732 21.5963 2.7612 21.8883 2.82487C21.361 2.21994 19.8683 2.19606 19.8359 2.12442C19.4627 2.1483 19.4546 2.42689 19.5195 2.93631C19.5114 3.74024 18.7083 3.75615 18.8137 4.21782C18.8137 4.20986 18.8219 4.20986 18.8219 4.20986C18.8381 4.20986 18.8462 4.36905 18.8949 4.5362C18.9517 4.6954 19.049 4.86255 19.2599 4.86255C19.3735 4.86255 19.5195 4.81479 19.698 4.6954C19.9495 5.14114 20.1766 5.30033 20.3551 5.30033C20.6228 5.30033 20.785 4.94215 20.7688 4.6158C20.4768 4.45661 20.0955 3.1353 20.5173 3.1353C20.5822 3.1353 20.6633 3.16714 20.7688 3.23878C20.1117 4.82275 23.3647 3.76411 21.5232 4.48844C21.937 5.02174 21.2636 4.99786 21.4583 5.6426C21.142 5.73015 20.7931 5.80975 20.4849 5.80975C20.0306 5.80975 19.6818 5.61872 19.7223 4.95011C19.1545 5.24461 20.2902 6.23957 19.1626 6.23957H19.0977C18.5541 7.21861 16.518 6.88431 18.1161 7.91906C18.2053 8.37276 17.9133 8.45236 17.5401 8.45236C17.4428 8.45236 17.3373 8.4444 17.2318 8.43644C17.1264 8.42848 17.0209 8.42848 16.9236 8.42848C16.5017 8.42848 16.2016 8.53196 16.4612 9.17669C16.2746 9.8453 16.7127 10.1398 17.2481 10.1398C17.8971 10.1398 18.6921 9.72591 18.7488 9.04138C19.0977 8.524 19.5438 8.30909 20.0062 8.30909C20.7364 8.30909 21.507 8.85034 22.01 9.51896C22.0505 9.58263 22.083 9.60651 22.0992 9.60651C22.1398 9.60651 22.0992 9.44732 22.083 9.28813C22.0668 9.16077 22.0668 9.03342 22.1154 8.99362C21.3934 8.79463 20.8418 7.93498 21.0852 7.93498C21.1663 7.93498 21.3367 8.0305 21.6125 8.28521H21.653C22.1073 8.28521 22.4643 8.63543 22.7401 8.98566C23.024 9.33588 23.2349 9.68611 23.4215 9.68611C23.4945 9.68611 23.5675 9.62243 23.6324 9.47916C23.6 9.4314 23.5189 9.29608 23.4783 9.16077C23.4296 8.99362 23.4296 8.82646 23.6487 8.82646C23.7379 8.82646 23.8596 8.8583 24.0299 8.92198C24.5816 8.77871 23.6811 7.36984 24.4112 7.36984C24.4842 7.36984 24.5735 7.38577 24.687 7.4176C24.6789 7.66435 24.7925 7.75191 24.8979 7.75191C25.1089 7.75191 25.3198 7.4574 24.8087 7.36984C25.0034 7.18677 25.117 7.11514 25.1981 7.11514C25.482 7.11514 25.2549 8.03846 26.2365 8.03846C26.5691 8.81055 23.3485 8.09417 24.3788 9.57467C24.614 9.74183 24.9061 9.77366 25.19 9.77366C25.2792 9.77366 25.3603 9.77367 25.4415 9.76571C25.5226 9.76571 25.6037 9.75775 25.6767 9.75775C26.1797 9.75775 26.5366 9.87714 26.3176 10.896C26.0499 11.087 25.7497 11.1507 25.4415 11.1507C25.1657 11.1507 24.8898 11.1029 24.6221 11.0552C24.3544 11.0074 24.0948 10.9597 23.8596 10.9597C23.4945 10.9597 23.2025 11.0791 23.024 11.493C22.0749 11.1109 20.8256 11.095 20.9473 9.94082C19.2924 10.1716 17.5645 10.0523 16.3476 11.0472C16.2746 12.5038 13.7273 12.9735 14.3439 14.6291C13.6057 16.1573 15.2362 18.2985 16.8992 18.2985C16.956 18.2985 17.0209 18.2985 17.0777 18.2905C17.9863 18.2826 18.903 17.8846 19.7061 17.8846C20.1198 17.8846 20.493 17.988 20.8175 18.3064C20.8905 18.2985 20.9554 18.2905 21.0122 18.2905C22.2533 18.2905 20.6147 20.2247 22.0992 20.5511C23.4459 21.9201 21.2718 23.329 22.3345 24.6423C22.448 25.6691 22.9672 26.5288 22.9672 27.5317C23.1051 27.5476 23.2349 27.5556 23.3728 27.5556C25.0845 27.5556 26.1553 26.091 27.1613 24.9846C26.853 23.329 29.5544 23.0026 28.6296 21.148C28.1996 19.1183 30.6658 17.9164 30.5279 15.8867C30.5522 15.6001 30.4711 15.5126 30.3494 15.5126C30.2277 15.5126 30.0492 15.6001 29.8789 15.6797C29.7004 15.7673 29.5057 15.8469 29.3516 15.8469C29.1488 15.8469 28.9946 15.7116 28.9784 15.2658C27.7859 14.1754 27.2424 12.6949 26.131 11.493C27.575 12.1775 28.3943 13.7217 29.0595 15.1226C29.1163 15.1385 29.1731 15.1464 29.238 15.1464C30.4143 15.1464 32.053 12.3844 30.2683 11.7158C30.1709 11.9785 30.0411 12.074 29.887 12.074C29.6193 12.074 29.311 11.7556 29.092 11.4452C28.873 11.1268 28.7594 10.8084 28.8811 10.8084C28.9622 10.8084 29.1407 10.9358 29.4489 11.2701C29.7978 11.485 30.1385 11.5407 30.4954 11.5407C30.8442 11.5407 31.2012 11.485 31.5744 11.4532C32.0449 11.6362 32.2477 12.2252 32.3937 12.2252C32.418 12.2252 32.4505 12.2014 32.4748 12.1456C32.848 13.0212 33.2779 14.5813 33.6673 15.0032C33.4645 13.6659 33.4158 12.2491 33.067 10.9358ZM28.5404 9.09709C27.6237 8.86626 27.3235 7.75191 26.6015 7.10718C26.5934 6.93206 26.8611 6.9639 26.7962 6.66939C27.7697 6.9639 27.4533 7.25841 27.3641 7.31413C27.721 7.89518 28.7188 8.29317 28.5404 9.09709ZM15.942 3.03978C15.0578 3.29449 14.9361 3.0159 15.0902 3.5492C15.1551 3.59696 15.2768 3.61288 15.3985 3.61288C15.8284 3.62084 16.4125 3.37409 15.942 3.03978ZM28.9297 24.9687C30.0898 24.0056 30.2358 22.8594 30.2926 21.6973C29.7734 22.6922 28.2321 23.7906 28.9297 24.9687ZM23.6487 9.44732C23.6405 9.45528 23.6405 9.45528 23.6405 9.46324C23.6487 9.47916 23.6568 9.47916 23.6568 9.47916C23.6568 9.47916 23.6568 9.4712 23.6487 9.44732Z" fill="url(#paint0_linear_4624_35137)"/>
<defs>
<linearGradient id="paint0_linear_4624_35137" x1="0.333984" y1="15.3335" x2="33.6673" y2="15.3335" gradientUnits="userSpaceOnUse">
<stop stop-color="#C39EFF"/>
<stop offset="1" stop-color="#A576F3"/>
</linearGradient>
</defs>
</svg>
