<svg width="22" height="21" viewBox="0 0 22 21" fill="none" xmlns="http://www.w3.org/2000/svg">
<path d="M11.1429 11V19H1.85714V11H11.1429ZM11.1429 9H1.85714C1.3646 9 0.892226 9.21071 0.543944 9.58579C0.195663 9.96086 0 10.4696 0 11V19C0 19.5304 0.195663 20.0391 0.543944 20.4142C0.892226 20.7893 1.3646 21 1.85714 21H11.1429C11.6354 21 12.1078 20.7893 12.4561 20.4142C12.8043 20.0391 13 19.5304 13 19V11C13 10.4696 12.8043 9.96086 12.4561 9.58579C12.1078 9.21071 11.6354 9 11.1429 9Z" fill="url(#paint0_linear_4624_35246)"/>
<path d="M20.1429 1.77778V6.22222H10.8571V1.77778H20.1429ZM20.1429 0H10.8571C10.3646 0 9.89223 0.187301 9.54394 0.520699C9.19566 0.854097 9 1.30628 9 1.77778V6.22222C9 6.69372 9.19566 7.1459 9.54394 7.4793C9.89223 7.8127 10.3646 8 10.8571 8H20.1429C20.6354 8 21.1078 7.8127 21.4561 7.4793C21.8043 7.1459 22 6.69372 22 6.22222V1.77778C22 1.30628 21.8043 0.854097 21.4561 0.520699C21.1078 0.187301 20.6354 0 20.1429 0Z" fill="url(#paint1_linear_4624_35246)"/>
<path d="M20.2222 11.6667V18.3333H15.7778V11.6667H20.2222ZM20.2222 9H15.7778C15.3063 9 14.8541 9.28095 14.5207 9.78105C14.1873 10.2811 14 10.9594 14 11.6667V18.3333C14 19.0406 14.1873 19.7189 14.5207 20.219C14.8541 20.719 15.3063 21 15.7778 21H20.2222C20.6937 21 21.1459 20.719 21.4793 20.219C21.8127 19.7189 22 19.0406 22 18.3333V11.6667C22 10.9594 21.8127 10.2811 21.4793 9.78105C21.1459 9.28095 20.6937 9 20.2222 9Z" fill="url(#paint2_linear_4624_35246)"/>
<path d="M6.22222 1.77778V6.22222H1.77778V1.77778H6.22222ZM6.22222 0H1.77778C1.30628 0 0.854097 0.187301 0.520699 0.520699C0.187301 0.854097 0 1.30628 0 1.77778V6.22222C0 6.69372 0.187301 7.1459 0.520699 7.4793C0.854097 7.8127 1.30628 8 1.77778 8H6.22222C6.69372 8 7.1459 7.8127 7.4793 7.4793C7.8127 7.1459 8 6.69372 8 6.22222V1.77778C8 1.30628 7.8127 0.854097 7.4793 0.520699C7.1459 0.187301 6.69372 0 6.22222 0Z" fill="url(#paint3_linear_4624_35246)"/>
<defs>
<linearGradient id="paint0_linear_4624_35246" x1="2.42144e-08" y1="15" x2="13" y2="15" gradientUnits="userSpaceOnUse">
<stop stop-color="#EF843B"/>
<stop offset="1" stop-color="#FFA567"/>
</linearGradient>
<linearGradient id="paint1_linear_4624_35246" x1="9" y1="4" x2="22" y2="4" gradientUnits="userSpaceOnUse">
<stop stop-color="#EF843B"/>
<stop offset="1" stop-color="#FFA567"/>
</linearGradient>
<linearGradient id="paint2_linear_4624_35246" x1="14" y1="15" x2="22" y2="15" gradientUnits="userSpaceOnUse">
<stop stop-color="#EF843B"/>
<stop offset="1" stop-color="#FFA567"/>
</linearGradient>
<linearGradient id="paint3_linear_4624_35246" x1="1.49012e-08" y1="4" x2="8" y2="4" gradientUnits="userSpaceOnUse">
<stop stop-color="#EF843B"/>
<stop offset="1" stop-color="#FFA567"/>
</linearGradient>
</defs>
</svg>
