<svg width="18" height="22" viewBox="0 0 18 22" fill="none" xmlns="http://www.w3.org/2000/svg">
<path d="M14.1253 5.89567C14.1253 8.71664 11.9074 10.9998 9.16699 10.9998C6.42663 10.9998 4.20866 8.71664 4.20866 5.89567C4.20866 3.07471 6.42663 0.791504 9.16699 0.791504C11.9074 0.791504 14.1253 3.07471 14.1253 5.89567Z" fill="url(#paint0_linear_4624_35161)"/>
<path d="M12.1995 12.4582H12.567C14.267 12.5554 17.667 13.7415 17.667 17.7082V19.0207C17.7503 19.8193 17.442 21.3748 15.542 21.2082H2.79199C1.61882 21.2082 0.666992 20.2284 0.666992 19.0207V17.7082C0.666992 14.8097 2.95137 12.4582 5.76699 12.4582H6.13444C7.0597 12.9139 8.07793 13.1873 9.16699 13.1873C10.2561 13.1873 11.2787 12.9139 12.1995 12.4582Z" fill="url(#paint1_linear_4624_35161)"/>
<defs>
<linearGradient id="paint0_linear_4624_35161" x1="-1.33801" y1="0.791499" x2="17.9363" y2="1.67398" gradientUnits="userSpaceOnUse">
<stop stop-color="#1A83CF"/>
<stop offset="0.555477" stop-color="#5FB5F4"/>
<stop offset="1" stop-color="#2DA6FF"/>
</linearGradient>
<linearGradient id="paint1_linear_4624_35161" x1="-1.33801" y1="0.791499" x2="17.9363" y2="1.67398" gradientUnits="userSpaceOnUse">
<stop stop-color="#1A83CF"/>
<stop offset="0.555477" stop-color="#5FB5F4"/>
<stop offset="1" stop-color="#2DA6FF"/>
</linearGradient>
</defs>
</svg>
