<svg width="24" height="24" viewBox="0 0 24 24" fill="none" xmlns="http://www.w3.org/2000/svg">
<path d="M23.7028 6.79717C23.5786 6.64489 23.4228 6.5223 23.2464 6.43814C23.07 6.35399 22.8775 6.31036 22.6825 6.31037H22.6479H22.6499H19.2545L20.1958 1.6693C20.2427 1.46412 20.2433 1.25086 20.1975 1.04542C20.1517 0.839985 20.0608 0.647664 19.9314 0.482799L19.9333 0.485798C19.8087 0.333659 19.6524 0.211244 19.4757 0.127274C19.299 0.0433045 19.1062 -0.000152302 18.9111 4.01043e-07H18.8785H18.8805C17.9924 0.0289883 17.2592 0.664723 17.0697 1.50937L17.0668 1.52237L16.8112 2.78384C16.8033 2.81583 16.7895 2.84581 16.7826 2.8778L16.084 6.31137H10.3676L11.309 1.6703C11.3559 1.46512 11.3565 1.25186 11.3107 1.04642C11.2649 0.840984 11.1739 0.648664 11.0445 0.483799L11.0465 0.486798C10.9219 0.334659 10.7656 0.212243 10.5889 0.128274C10.4122 0.0443041 10.2194 0.000847282 10.0242 0.000999984H9.99165H9.99362C9.10553 0.0299879 8.37236 0.665723 8.1829 1.51037L8.17994 1.52337L7.91351 2.83582C7.91351 2.85081 7.90365 2.86381 7.90069 2.8778L7.20797 6.31137H3.51055C2.62246 6.34036 1.88929 6.97509 1.69884 7.81974L1.69588 7.83274C1.64869 8.038 1.64788 8.2514 1.6935 8.45702C1.73912 8.66265 1.83 8.85518 1.95935 9.02024L1.95738 9.01724C2.2021 9.31512 2.56819 9.50404 2.97868 9.50404H3.01223H3.01026H6.55967L5.55119 14.472H1.84982C0.961728 14.501 0.228558 15.1367 0.038112 15.9813L0.0351517 15.9943C-0.0112849 16.1992 -0.0117186 16.4119 0.0338825 16.6169C0.0794836 16.822 0.169955 17.014 0.298619 17.1788L0.296645 17.1758C0.542351 17.4737 0.908442 17.6626 1.31894 17.6626H1.35249H1.35051H4.89992L3.95262 22.3287C3.90572 22.5339 3.90515 22.7471 3.95094 22.9526C3.99673 23.158 4.0877 23.3503 4.21708 23.5152L4.2151 23.5122C4.46081 23.8101 4.8269 23.999 5.2374 23.999H5.26996H5.26799C5.69213 23.9854 6.09989 23.83 6.42764 23.5569C6.75538 23.2839 6.98466 22.9086 7.07969 22.4896L7.08265 22.4766L8.05956 17.6646H13.7789L12.8316 22.3307C12.7847 22.5359 12.7841 22.7491 12.8299 22.9546C12.8757 23.16 12.9666 23.3523 13.096 23.5172L13.0941 23.5142C13.3398 23.8121 13.7058 24 14.1163 24H14.1489H14.1469C14.571 23.9865 14.9787 23.8311 15.3063 23.558C15.6339 23.2849 15.863 22.9096 15.9577 22.4906L15.9606 22.4776L16.9375 17.6656H20.4899C20.9139 17.6521 21.3216 17.4968 21.6493 17.2239C21.977 16.9511 22.2064 16.576 22.3016 16.1573L22.3046 16.1443C22.3532 15.9394 22.3551 15.7259 22.3101 15.5202C22.2651 15.3144 22.1745 15.1217 22.045 14.9568L22.047 14.9598C21.9222 14.8075 21.7658 14.6849 21.589 14.6008C21.4121 14.5166 21.2191 14.473 21.0237 14.473H20.9882H20.9902H17.5888L18.5973 9.50504H22.1496C22.5738 9.49145 22.9815 9.336 23.3093 9.06295C23.637 8.7899 23.8663 8.41461 23.9613 7.99567L23.9643 7.98267C24.0113 7.77734 24.0119 7.5639 23.9661 7.35829C23.9203 7.15268 23.8293 6.96019 23.6998 6.79517L23.7018 6.79817L23.7028 6.79717ZM8.7128 14.469L9.72127 9.50104H15.4406L14.4321 14.469H8.7128Z" fill="url(#paint0_linear_4665_2527)"/>
<defs>
<linearGradient id="paint0_linear_4665_2527" x1="4.47035e-08" y1="12" x2="24" y2="12" gradientUnits="userSpaceOnUse">
<stop stop-color="#EF843B"/>
<stop offset="1" stop-color="#FFA567"/>
</linearGradient>
</defs>
</svg>
