<svg width="73" height="47" viewBox="0 0 73 47" fill="none" xmlns="http://www.w3.org/2000/svg">
<path d="M20.3001 33.444C21.3401 33.444 22.2041 33.708 22.8921 34.236C23.5801 34.764 24.0441 35.48 24.2841 36.384H22.8321C22.6321 35.872 22.3121 35.468 21.8721 35.172C21.4401 34.868 20.9081 34.716 20.2761 34.716C19.7721 34.716 19.3201 34.84 18.9201 35.088C18.5281 35.336 18.2161 35.692 17.9841 36.156C17.7601 36.612 17.6481 37.148 17.6481 37.764C17.6481 38.372 17.7601 38.908 17.9841 39.372C18.2161 39.828 18.5281 40.18 18.9201 40.428C19.3201 40.676 19.7721 40.8 20.2761 40.8C20.9081 40.8 21.4401 40.652 21.8721 40.356C22.3121 40.052 22.6321 39.648 22.8321 39.144H24.2841C24.0441 40.048 23.5801 40.764 22.8921 41.292C22.2041 41.812 21.3401 42.072 20.3001 42.072C19.5001 42.072 18.7921 41.892 18.1761 41.532C17.5601 41.164 17.0841 40.656 16.7481 40.008C16.4121 39.352 16.2441 38.604 16.2441 37.764C16.2441 36.924 16.4121 36.18 16.7481 35.532C17.0841 34.876 17.5601 34.364 18.1761 33.996C18.7921 33.628 19.5001 33.444 20.3001 33.444ZM27.017 36.684C27.241 36.252 27.561 35.912 27.977 35.664C28.393 35.408 28.873 35.28 29.417 35.28V36.768H29.009C28.409 36.768 27.925 36.916 27.557 37.212C27.197 37.5 27.017 37.98 27.017 38.652V42H25.649V35.388H27.017V36.684ZM36.586 38.376C36.586 38.6 36.57 38.796 36.538 38.964H31.45C31.474 39.644 31.662 40.148 32.014 40.476C32.366 40.804 32.802 40.968 33.322 40.968C33.778 40.968 34.162 40.852 34.474 40.62C34.794 40.388 34.99 40.08 35.062 39.696H36.526C36.438 40.16 36.254 40.572 35.974 40.932C35.694 41.292 35.33 41.576 34.882 41.784C34.434 41.984 33.934 42.084 33.382 42.084C32.742 42.084 32.174 41.948 31.678 41.676C31.19 41.404 30.806 41.012 30.526 40.5C30.246 39.988 30.106 39.384 30.106 38.688C30.106 38 30.246 37.4 30.526 36.888C30.806 36.376 31.19 35.984 31.678 35.712C32.174 35.44 32.742 35.304 33.382 35.304C34.03 35.304 34.594 35.44 35.074 35.712C35.562 35.976 35.934 36.344 36.19 36.816C36.454 37.28 36.586 37.8 36.586 38.376ZM35.206 38.34C35.222 37.908 35.146 37.548 34.978 37.26C34.818 36.964 34.594 36.748 34.306 36.612C34.026 36.468 33.718 36.396 33.382 36.396C32.846 36.396 32.398 36.56 32.038 36.888C31.678 37.216 31.482 37.7 31.45 38.34H35.206ZM40.5589 35.304C41.1589 35.304 41.6709 35.452 42.0949 35.748C42.5189 36.044 42.8189 36.436 42.9949 36.924V35.388H44.3629V42H42.9949V40.464C42.8189 40.952 42.5189 41.344 42.0949 41.64C41.6709 41.936 41.1589 42.084 40.5589 42.084C39.9829 42.084 39.4669 41.948 39.0109 41.676C38.5629 41.404 38.2109 41.012 37.9549 40.5C37.6989 39.988 37.5709 39.384 37.5709 38.688C37.5709 38 37.6989 37.4 37.9549 36.888C38.2109 36.376 38.5629 35.984 39.0109 35.712C39.4669 35.44 39.9829 35.304 40.5589 35.304ZM40.9789 36.504C40.3709 36.504 39.8829 36.7 39.5149 37.092C39.1549 37.476 38.9749 38.008 38.9749 38.688C38.9749 39.368 39.1549 39.904 39.5149 40.296C39.8829 40.68 40.3709 40.872 40.9789 40.872C41.3629 40.872 41.7069 40.784 42.0109 40.608C42.3149 40.424 42.5549 40.168 42.7309 39.84C42.9069 39.512 42.9949 39.128 42.9949 38.688C42.9949 38.256 42.9069 37.876 42.7309 37.548C42.5549 37.212 42.3149 36.956 42.0109 36.78C41.7069 36.596 41.3629 36.504 40.9789 36.504ZM49.3285 40.812V42H48.4885C47.7845 42 47.2485 41.832 46.8805 41.496C46.5205 41.152 46.3405 40.584 46.3405 39.792V36.552H45.3925V35.388H46.3405V33.744H47.7205V35.388H49.3165V36.552H47.7205V39.816C47.7205 40.192 47.7885 40.452 47.9245 40.596C48.0685 40.74 48.3165 40.812 48.6685 40.812H49.3285ZM56.754 38.376C56.754 38.6 56.738 38.796 56.706 38.964H51.618C51.642 39.644 51.83 40.148 52.182 40.476C52.534 40.804 52.97 40.968 53.49 40.968C53.946 40.968 54.33 40.852 54.642 40.62C54.962 40.388 55.158 40.08 55.23 39.696H56.694C56.606 40.16 56.422 40.572 56.142 40.932C55.862 41.292 55.498 41.576 55.05 41.784C54.602 41.984 54.102 42.084 53.55 42.084C52.91 42.084 52.342 41.948 51.846 41.676C51.358 41.404 50.974 41.012 50.694 40.5C50.414 39.988 50.274 39.384 50.274 38.688C50.274 38 50.414 37.4 50.694 36.888C50.974 36.376 51.358 35.984 51.846 35.712C52.342 35.44 52.91 35.304 53.55 35.304C54.198 35.304 54.762 35.44 55.242 35.712C55.73 35.976 56.102 36.344 56.358 36.816C56.622 37.28 56.754 37.8 56.754 38.376ZM55.374 38.34C55.39 37.908 55.314 37.548 55.146 37.26C54.986 36.964 54.762 36.748 54.474 36.612C54.194 36.468 53.886 36.396 53.55 36.396C53.014 36.396 52.566 36.56 52.206 36.888C51.846 37.216 51.65 37.7 51.618 38.34H55.374Z" fill="white"/>
<path d="M38.4695 22C43.9923 22 48.4695 17.5228 48.4695 12C48.4695 6.47715 43.9923 2 38.4695 2C32.9466 2 28.4695 6.47715 28.4695 12C28.4695 14.7974 29.6181 17.3265 31.4695 19.1414M31.4695 19.1414L32.4695 14M31.4695 19.1414L36.4695 18M32.4695 14L40.4695 6L42.4695 8M32.4695 14L34.4695 16M36.4695 18L44.4695 10L42.4695 8M36.4695 18L34.4695 16M34.4695 16L42.4695 8" stroke="white" stroke-width="1.5" stroke-linecap="round" stroke-linejoin="round"/>
</svg>
