<svg width="35" height="34" viewBox="0 0 35 34" fill="none" xmlns="http://www.w3.org/2000/svg">
<circle cx="17.5" cy="17" r="17" fill="url(#paint0_linear_2563:28981)"/>
<path d="M21.5548 11.981C21.5548 14.29 19.7381 16.1588 17.4935 16.1588C15.2489 16.1588 13.4322 14.29 13.4322 11.981C13.4322 9.67204 15.2489 7.80322 17.4935 7.80322C19.7381 7.80322 21.5548 9.67204 21.5548 11.981Z" fill="white"/>
<path d="M19.9774 17.3525H20.2784C21.6708 17.432 24.4557 18.4029 24.4557 21.6496V22.7239C24.524 23.3776 24.2715 24.6508 22.7152 24.5144H12.2718C11.3109 24.5144 10.5312 23.7124 10.5312 22.7239V21.6496C10.5312 19.2772 12.4024 17.3525 14.7086 17.3525H15.0096C15.7674 17.7255 16.6015 17.9493 17.4935 17.9493C18.3855 17.9493 19.2232 17.7255 19.9774 17.3525Z" fill="white"/>
<defs>
<linearGradient id="paint0_linear_2563:28981" x1="-3.50714" y1="-7.99353e-06" x2="34.9784" y2="2.11597" gradientUnits="userSpaceOnUse">
<stop stop-color="#C7539A"/>
<stop offset="0.555477" stop-color="#FB3E78"/>
<stop offset="1" stop-color="#FF5369"/>
</linearGradient>
</defs>
</svg>
